SplineFontDB: 3.0
FontName: Jost-BoldItalic
FullName: Jost* 700 Bold Italic
FamilyName: Jost*
Weight: Bold
Copyright: This typeface is licensed under the SIL open font license.
UComments: "2018-6-8: Created with FontForge (http://fontforge.org)"
Version: 003.400
ItalicAngle: -10
UnderlinePosition: -100
UnderlineWidth: 50
Ascent: 800
Descent: 200
InvalidEm: 0
LayerCount: 2
Layer: 0 0 "Back" 1
Layer: 1 0 "Fore" 0
XUID: [1021 69 1495626776 760146]
FSType: 0
OS2Version: 0
OS2_WeightWidthSlopeOnly: 0
OS2_UseTypoMetrics: 0
CreationTime: 1528480336
ModificationTime: 1577674042
PfmFamily: 17
TTFWeight: 700
TTFWidth: 5
LineGap: 100
VLineGap: 0
OS2TypoAscent: 825
OS2TypoAOffset: 0
OS2TypoDescent: -225
OS2TypoDOffset: 0
OS2TypoLinegap: 100
OS2WinAscent: 900
OS2WinAOffset: 0
OS2WinDescent: 300
OS2WinDOffset: 0
HheadAscent: 1030
HheadAOffset: 0
HheadDescent: -350
HheadDOffset: 0
OS2CapHeight: 700
OS2XHeight: 460
OS2Vendor: 'PfEd'
Lookup: 1 0 0 "alt a" { "alt a"  } ['ss01' ('DFLT' <'dflt' > 'latn' <'dflt' > ) ]
Lookup: 1 0 0 "Tabular Numbers lookup" { "Tabular Numbers lookup"  } ['tnum' ('DFLT' <'dflt' > 'grek' <'dflt' > 'latn' <'dflt' > ) ]
Lookup: 258 0 0 "Lets get our kern on" { "kernin like nobodys business" [150,0,4] } ['kern' ('DFLT' <'dflt' > 'latn' <'dflt' > ) ]
MarkAttachClasses: 1
DEI: 91125
KernClass2: 16 14 "kernin like nobodys business"
 43 slash seven V W Wcircumflex uni040E uni0423
 175 quotedbl quotesingle asterisk grave dieresis ordfeminine macron degree acute ordmasculine circumflex breve dotaccent ring tilde quoteleft quoteright quotedblleft quotedblright
 25 nine question F P uni0420
 131 A L backslash Agrave Aacute Acircumflex Atilde Adieresis Aring Amacron Abreve Aogonek Lacute uni013B Lslash uni0410 uni0414 uni041C
 58 three eight B C germandbls uni0411 uni0412 uni0417 uni0421
 29 K X Z uni0416 uni041A uni0425

StartChar: H
Encoding: 72 72 0
Width: 762
VWidth: 0
Flags: HMW
LayerCount: 2
Fore
SplineSet
139 294 m 1
 165 445 l 1
 682 445 l 1
 656 294 l 1
 139 294 l 1
618 700 m 1
 786 700 l 1
 666 0 l 1
 500 0 l 1
 618 700 l 1
162 700 m 1
 330 700 l 1
 210 0 l 1
 44 0 l 1
 162 700 l 1
EndSplineSet
EndChar

StartChar: O
Encoding: 79 79 1
Width: 796
VWidth: 0
Flags: HMW
LayerCount: 2
Fore
SplineSet
240 350 m 0
 223 242 272 142 390 140 c 0
 510 138 602 235 622 350 c 0
 640 458 592 559 472 560 c 0
 352 561 260 465 240 350 c 0
64 350 m 0
 96 558 275 716 488 716 c 0
 699 716 827 550 798 350 c 0
 766 142 590 -22 372 -22 c 0
 158 -22 35 150 64 350 c 0
EndSplineSet
EndChar

StartChar: I
Encoding: 73 73 2
Width: 310
VWidth: 0
Flags: HMW
LayerCount: 2
Fore
SplineSet
162 700 m 1
 333 700 l 1
 212 0 l 1
 44 0 l 1
 162 700 l 1
EndSplineSet
EndChar

StartChar: C
Encoding: 67 67 3
Width: 679
VWidth: 0
Flags: HMW
LayerCount: 2
Fore
SplineSet
246 350 m 0
 228 236 294 148 408 146 c 0
 500 145 572 189 630 237 c 1
 603 54 l 1
 541 12 473 -16 381 -16 c 0
 165 -16 34 146 64 350 c 0
 96 560 276 716 496 716 c 0
 584 716 645 690 701 645 c 1
 673 462 l 1
 631 516 574 554 488 554 c 0
 372 554 266 470 246 350 c 0
EndSplineSet
EndChar

StartChar: E
Encoding: 69 69 4
Width: 585
VWidth: 0
Flags: HMW
LayerCount: 2
Fore
SplineSet
152 0 m 1
 176 139 l 1
 522 139 l 1
 498 0 l 1
 152 0 l 1
248 561 m 1
 272 700 l 1
 618 700 l 1
 594 561 l 1
 248 561 l 1
204 300 m 1
 227 436 l 1
 553 436 l 1
 529 300 l 1
 204 300 l 1
162 700 m 1
 324 700 l 1
 204 0 l 1
 44 0 l 1
 162 700 l 1
EndSplineSet
EndChar

StartChar: F
Encoding: 70 70 6
Width: 536
VWidth: 0
Flags: HMW
LayerCount: 2
Fore
SplineSet
247 554 m 1
 272 700 l 1
 578 700 l 1
 554 554 l 1
 247 554 l 1
200 281 m 1
 224 417 l 1
 521 417 l 1
 497 281 l 1
 200 281 l 1
162 700 m 1
 324 700 l 1
 204 0 l 1
 44 0 l 1
 162 700 l 1
EndSplineSet
EndChar

StartChar: G
Encoding: 71 71 7
Width: 789
VWidth: 0
Flags: HMW
LayerCount: 2
Fore
SplineSet
422 253 m 1
 446 382 l 1
 790 382 l 1
 766 167 624 -22 382 -22 c 0
 166 -22 34 145 64 350 c 0
 96 563 280 716 500 716 c 0
 634 716 728 651 786 549 c 1
 628 472 l 1
 602 528 560 568 486 568 c 0
 364 568 259 475 238 350 c 0
 220 231 276 126 400 126 c 0
 500 126 560 179 598 253 c 1
 422 253 l 1
EndSplineSet
EndChar

StartChar: T
Encoding: 84 84 8
Width: 544
VWidth: 0
Flags: HMW
LayerCount: 2
Fore
SplineSet
68 548 m 1
 95 700 l 1
 636 700 l 1
 609 548 l 1
 423 548 l 1
 329 0 l 1
 162 0 l 1
 256 548 l 1
 68 548 l 1
EndSplineSet
EndChar

StartChar: L
Encoding: 76 76 9
Width: 512
VWidth: 0
Flags: HMW
LayerCount: 2
Fore
SplineSet
163 700 m 1
 330 700 l 1
 235 146 l 1
 508 146 l 1
 482 0 l 1
 43 0 l 1
 163 700 l 1
EndSplineSet
EndChar

StartChar: D
Encoding: 68 68 10
Width: 711
VWidth: 0
Flags: HMW
LayerCount: 2
Fore
SplineSet
162 700 m 1
 336 700 l 1
 216 0 l 1
 44 0 l 1
 162 700 l 1
292 0 m 2
 152 0 l 1
 178 151 l 1
 302 151 l 2
 418 151 518 218 540 350 c 0
 560 478 493 550 380 550 c 2
 246 550 l 1
 272 700 l 1
 402 700 l 2
 618 700 742 554 712 350 c 0
 680 140 513 0 292 0 c 2
EndSplineSet
EndChar

StartChar: Q
Encoding: 81 81 11
Width: 837
VWidth: 0
Flags: HMW
LayerCount: 2
Fore
SplineSet
240 350 m 0
 222 233 282 129 404 128 c 0
 524 127 617 216 637 331 c 0
 655 442 605 558 475 560 c 0
 355 561 260 466 240 350 c 0
64 350 m 0
 96 558 279 716 492 716 c 0
 703 716 827 550 798 350 c 0
 766 142 594 -22 376 -22 c 0
 162 -22 35 150 64 350 c 0
372 300 m 1
 538 300 l 1
 812 -12 l 1
 641 -12 l 1
 372 300 l 1
EndSplineSet
EndChar

StartChar: A
Encoding: 65 65 12
Width: 712
VWidth: 0
Flags: HMW
LayerCount: 2
Fore
SplineSet
174 135 m 1
 207 264 l 1
 546 264 l 1
 535 135 l 1
 174 135 l 1
406 442 m 1
 274 216 l 1
 275 178 l 1
 161 0 l 1
 -32 0 l 1
 456 746 l 1
 686 0 l 1
 502 0 l 1
 452 172 l 1
 462 216 l 1
 406 442 l 1
EndSplineSet
EndChar

StartChar: R
Encoding: 82 82 13
Width: 627
VWidth: 0
Flags: HMW
LayerCount: 2
Fore
SplineSet
270 317 m 1
 438 317 l 1
 596 0 l 1
 406 0 l 1
 270 317 l 1
162 700 m 1
 330 700 l 1
 210 0 l 1
 44 0 l 1
 162 700 l 1
242 556 m 1
 266 700 l 1
 407 700 l 2
 563 700 657 609 639 471 c 0
 621 331 500 242 338 242 c 2
 187 242 l 1
 210 374 l 1
 340 374 l 2
 403 374 455 408 465 466 c 0
 475 522 440 556 380 556 c 2
 242 556 l 1
EndSplineSet
EndChar

StartChar: V
Encoding: 86 86 14
Width: 712
VWidth: 0
Flags: HMW
LayerCount: 2
Fore
SplineSet
382 286 m 1
 610 700 l 1
 808 700 l 1
 334 -46 l 1
 90 700 l 1
 281 700 l 1
 382 286 l 1
EndSplineSet
EndChar

StartChar: M
Encoding: 77 77 15
Width: 864
VWidth: 0
Flags: HMW
LayerCount: 2
Fore
SplineSet
283 356 m 1
 180 0 l 1
 3 0 l 1
 240 735 l 1
 456 310 l 1
 823 740 l 1
 806 0 l 1
 630 0 l 1
 650 350 l 1
 418 64 l 1
 283 356 l 1
EndSplineSet
EndChar

StartChar: W
Encoding: 87 87 16
Width: 1033
VWidth: 0
Flags: HMW
LayerCount: 2
Fore
SplineSet
730 296 m 1
 923 700 l 1
 1124 700 l 1
 714 -43 l 1
 560 378 l 1
 274 -44 l 1
 95 700 l 1
 290 700 l 1
 355 298 l 1
 612 738 l 1
 730 296 l 1
EndSplineSet
EndChar

StartChar: N
Encoding: 78 78 17
Width: 769
VWidth: 0
Flags: HMW
LayerCount: 2
Fore
SplineSet
632 700 m 1
 792 700 l 1
 668 -34 l 1
 272 394 l 1
 204 0 l 1
 43 0 l 1
 168 734 l 1
 564 306 l 1
 632 700 l 1
EndSplineSet
EndChar

StartChar: a
Encoding: 97 97 18
Width: 597
VWidth: 0
Flags: HMW
LayerCount: 2
Fore
SplineSet
447 460 m 1
 596 460 l 1
 516 0 l 1
 368 0 l 1
 447 460 l 1
42 230 m 0
 60 367 169 470 291 470 c 0
 415 470 465 355 449 230 c 0
 431 98 341 -10 219 -10 c 0
 97 -10 25 98 42 230 c 0
198 230 m 0
 189 170 218 113 280 112 c 0
 338 111 396 165 406 230 c 0
 414 291 384 346 328 348 c 0
 266 350 208 294 198 230 c 0
EndSplineSet
Substitution2: "alt a" a.alt
EndChar

StartChar: X
Encoding: 88 88 19
Width: 665
VWidth: 0
Flags: HMW
LayerCount: 2
Fore
SplineSet
532 700 m 1
 742 700 l 1
 472 356 l 1
 644 0 l 1
 443 0 l 1
 356 230 l 1
 192 0 l 1
 -17 0 l 1
 276 362 l 1
 120 700 l 1
 321 700 l 1
 394 500 l 1
 532 700 l 1
EndSplineSet
EndChar

StartChar: K
Encoding: 75 75 20
Width: 678
VWidth: 0
Flags: HMW
LayerCount: 2
Fore
SplineSet
162 700 m 1
 336 700 l 1
 216 0 l 1
 44 0 l 1
 162 700 l 1
561 700 m 1
 762 700 l 1
 426 368 l 1
 652 0 l 1
 456 0 l 1
 230 371 l 1
 561 700 l 1
EndSplineSet
EndChar

StartChar: Y
Encoding: 89 89 21
Width: 640
VWidth: 0
Flags: HMW
LayerCount: 2
Fore
SplineSet
542 700 m 1
 738 700 l 1
 426 281 l 1
 378 0 l 1
 208 0 l 1
 259 288 l 1
 92 700 l 1
 280 700 l 1
 366 440 l 1
 542 700 l 1
EndSplineSet
EndChar

StartChar: B
Encoding: 66 66 22
Width: 644
VWidth: 0
Flags: HMW
LayerCount: 2
Fore
SplineSet
225 348 m 1
 238 422 l 1
 344 422 l 2
 396 422 442 450 450 498 c 0
 458 544 428 568 378 568 c 2
 308 569 l 1
 232 131 l 1
 310 131 l 2
 372 132 432 157 442 221 c 0
 452 279 406 303 348 304 c 2
 217 304 l 1
 234 396 l 1
 374 396 l 2
 500 396 630 334 610 196 c 0
 590 56 466 0 316 0 c 2
 43 0 l 1
 163 700 l 1
 410 700 l 2
 534 700 644 644 626 522 c 0
 608 405 489 348 359 348 c 2
 225 348 l 1
EndSplineSet
EndChar

StartChar: Z
Encoding: 90 90 23
Width: 601
VWidth: 0
Flags: HMW
LayerCount: 2
Fore
SplineSet
120 548 m 1
 146 700 l 1
 684 700 l 1
 269 146 l 1
 554 146 l 1
 528 0 l 1
 -22 0 l 1
 388 548 l 1
 120 548 l 1
EndSplineSet
EndChar

StartChar: o
Encoding: 111 111 24
Width: 571
VWidth: 0
Flags: HMW
LayerCount: 2
Fore
SplineSet
48 230 m 0
 66 371 191 470 337 470 c 0
 481 470 579 368 561 230 c 0
 543 89 418 -10 272 -10 c 0
 129 -10 30 92 48 230 c 0
201 230 m 0
 193 170 223 117 283 116 c 0
 344 115 398 166 408 230 c 0
 416 290 386 345 326 346 c 0
 265 347 211 294 201 230 c 0
EndSplineSet
EndChar

StartChar: J
Encoding: 74 74 25
Width: 320
VWidth: 0
Flags: HMW
LayerCount: 2
Fore
SplineSet
-112 -64 m 1
 -93 -82 -68 -96 -40 -96 c 0
 -3 -95 34 -65 40 -16 c 2
 163 700 l 1
 344 700 l 1
 215 -54 l 2
 195 -180 86 -238 -38 -238 c 0
 -109 -238 -172 -210 -218 -180 c 1
 -112 -64 l 1
EndSplineSet
EndChar

StartChar: t
Encoding: 116 116 26
Width: 308
VWidth: 0
Flags: HMW
LayerCount: 2
Fore
SplineSet
56 460 m 1
 358 460 l 1
 336 335 l 1
 34 335 l 1
 56 460 l 1
161 620 m 1
 306 620 l 1
 198 0 l 1
 55 0 l 1
 161 620 l 1
EndSplineSet
EndChar

StartChar: d
Encoding: 100 100 27
Width: 597
VWidth: 0
Flags: HMW
LayerCount: 2
Fore
SplineSet
500 780 m 1
 650 780 l 1
 516 0 l 1
 368 0 l 1
 500 780 l 1
42 230 m 0
 60 367 169 470 291 470 c 0
 415 470 465 355 449 230 c 0
 431 98 341 -10 219 -10 c 0
 97 -10 25 98 42 230 c 0
198 230 m 0
 189 170 218 113 280 112 c 0
 338 111 396 165 406 230 c 0
 414 291 384 346 328 348 c 0
 266 350 208 294 198 230 c 0
EndSplineSet
EndChar

StartChar: l
Encoding: 108 108 28
Width: 262
VWidth: 0
Flags: HMW
LayerCount: 2
Fore
SplineSet
162 780 m 1
 313 780 l 1
 178 0 l 1
 30 0 l 1
 162 780 l 1
EndSplineSet
EndChar

StartChar: i
Encoding: 105 105 29
Width: 267
VWidth: 0
Flags: HMW
LayerCount: 2
Fore
SplineSet
127 632 m 0
 127 680 166 714 215 714 c 0
 264 714 303 680 303 632 c 0
 303 584 264 550 215 550 c 0
 166 550 127 584 127 632 c 0
112 460 m 1
 258 460 l 1
 180 0 l 1
 34 0 l 1
 112 460 l 1
EndSplineSet
EndChar

StartChar: r
Encoding: 114 114 30
Width: 402
VWidth: 0
Flags: HMW
LayerCount: 2
Fore
SplineSet
255 460 m 1
 176 0 l 1
 28 0 l 1
 108 460 l 1
 255 460 l 1
362 304 m 1
 348 318 333 329 310 329 c 0
 260 330 222 281 214 227 c 1
 192 281 l 1
 209 375 287 471 367 471 c 0
 400 471 428 454 446 431 c 1
 362 304 l 1
EndSplineSet
EndChar

StartChar: c
Encoding: 99 99 31
Width: 473
VWidth: 0
Flags: HMW
LayerCount: 2
Fore
SplineSet
195 230 m 0
 185 164 226 114 292 112 c 0
 348 110 401 140 436 178 c 1
 416 32 l 1
 377 6 329 -10 268 -10 c 0
 123 -10 24 91 42 230 c 0
 61 372 186 470 334 470 c 0
 394 470 439 454 475 430 c 1
 455 282 l 1
 431 324 385 349 336 349 c 0
 265 349 206 296 195 230 c 0
EndSplineSet
EndChar

StartChar: b
Encoding: 98 98 32
Width: 597
VWidth: 0
Flags: HMW
LayerCount: 2
Fore
SplineSet
311 780 m 1
 177 0 l 1
 27 0 l 1
 161 780 l 1
 311 780 l 1
581 230 m 0
 563 93 454 -10 332 -10 c 0
 208 -10 158 105 174 230 c 0
 192 362 282 470 404 470 c 0
 526 470 598 362 581 230 c 0
426 230 m 0
 435 290 404 347 342 348 c 0
 284 349 226 295 216 230 c 0
 208 169 239 114 295 112 c 0
 357 110 416 166 426 230 c 0
EndSplineSet
EndChar

StartChar: p
Encoding: 112 112 33
Width: 597
VWidth: 0
Flags: HMW
LayerCount: 2
Fore
SplineSet
140 -220 m 1
 -10 -220 l 1
 106 460 l 1
 256 460 l 1
 140 -220 l 1
581 230 m 0
 563 89 454 -16 330 -16 c 0
 202 -16 164 106 180 230 c 0
 198 362 278 476 404 476 c 0
 528 476 598 365 581 230 c 0
426 230 m 0
 435 291 402 341 342 342 c 0
 286 343 226 295 216 230 c 0
 208 168 241 120 296 118 c 0
 358 116 416 166 426 230 c 0
EndSplineSet
EndChar

StartChar: q
Encoding: 113 113 34
Width: 597
VWidth: 0
Flags: HMW
LayerCount: 2
Fore
SplineSet
329 -220 m 1
 446 460 l 1
 596 460 l 1
 479 -220 l 1
 329 -220 l 1
42 230 m 0
 60 371 168 476 292 476 c 0
 420 476 459 354 443 230 c 0
 425 98 344 -16 218 -16 c 0
 94 -16 25 95 42 230 c 0
198 230 m 0
 189 169 222 119 282 118 c 0
 338 117 396 165 406 230 c 0
 414 292 382 340 327 342 c 0
 265 344 208 294 198 230 c 0
EndSplineSet
EndChar

StartChar: h
Encoding: 104 104 35
Width: 551
VWidth: 0
Flags: HMW
LayerCount: 2
Fore
SplineSet
313 780 m 1
 178 0 l 1
 28 0 l 1
 162 780 l 1
 313 780 l 1
368 280 m 2
 374 323 368 361 321 364 c 0
 273 367 237 324 226 280 c 1
 200 281 l 1
 218 383 276 476 390 476 c 0
 501 476 534 402 520 302 c 1
 468 0 l 1
 319 0 l 1
 368 280 l 2
EndSplineSet
EndChar

StartChar: n
Encoding: 110 110 36
Width: 557
VWidth: 0
Flags: HMW
LayerCount: 2
Fore
SplineSet
368 280 m 2
 374 322 368 364 318 364 c 0
 270 364 236 331 228 282 c 2
 178 0 l 1
 28 0 l 1
 108 460 l 1
 258 460 l 1
 248 396 l 1
 280 442 326 470 390 470 c 0
 500 470 539 395 524 296 c 2
 474 0 l 1
 319 0 l 1
 368 280 l 2
EndSplineSet
EndChar

StartChar: m
Encoding: 109 109 37
Width: 795
VWidth: 0
Flags: HMW
LayerCount: 2
Fore
SplineSet
763 296 m 2
 712 0 l 1
 562 0 l 1
 612 280 l 2
 616 321 615 363 573 363 c 0
 531 363 498 331 490 281 c 2
 442 0 l 1
 292 0 l 1
 342 280 l 2
 346 322 346 363 304 363 c 0
 263 363 229 333 222 284 c 2
 173 0 l 1
 28 0 l 1
 108 460 l 1
 252 460 l 1
 242 397 l 1
 272 442 317 470 377 470 c 0
 447 470 481 440 492 392 c 1
 529 440 583 470 647 470 c 0
 753 470 775 392 763 296 c 2
EndSplineSet
EndChar

StartChar: k
Encoding: 107 107 38
Width: 559
VWidth: 0
Flags: HMW
LayerCount: 2
Fore
SplineSet
160 780 m 1
 305 780 l 1
 171 0 l 1
 28 0 l 1
 160 780 l 1
407 460 m 1
 591 460 l 1
 361 265 l 1
 525 0 l 1
 356 0 l 1
 188 274 l 1
 407 460 l 1
EndSplineSet
EndChar

StartChar: u
Encoding: 117 117 39
Width: 557
VWidth: 0
Flags: HMW
LayerCount: 2
Fore
SplineSet
214 180 m 2
 208 138 214 96 261 96 c 0
 309 96 346 125 354 177 c 2
 404 460 l 1
 554 460 l 1
 474 0 l 1
 324 0 l 1
 334 64 l 1
 302 18 256 -10 192 -10 c 0
 82 -10 44 65 58 164 c 1
 108 460 l 1
 264 460 l 1
 214 180 l 2
EndSplineSet
EndChar

StartChar: e
Encoding: 101 101 40
Width: 556
VWidth: 0
Flags: HMW
LayerCount: 2
Fore
SplineSet
276 -10 m 0
 136 -10 44 70 44 200 c 0
 44 352 163 470 334 470 c 0
 473 470 548 393 548 266 c 0
 548 244 544 218 538 198 c 1
 121 198 l 1
 121 282 l 1
 418 282 l 1
 382 236 l 1
 389 250 396 264 396 278 c 0
 396 334 372 369 320 369 c 0
 248 369 208 312 196 220 c 0
 186 148 216 99 282 99 c 0
 332 99 370 122 396 159 c 1
 527 126 l 1
 478 38 393 -10 276 -10 c 0
EndSplineSet
EndChar

StartChar: g
Encoding: 103 103 41
Width: 592
VWidth: 0
Flags: HMW
LayerCount: 2
Fore
SplineSet
6 -32 m 1
 148 -34 l 1
 150 -86 176 -117 232 -117 c 0
 301 -118 357 -64 368 10 c 2
 446 460 l 1
 590 460 l 1
 513 10 l 2
 489 -148 378 -238 230 -238 c 0
 78 -238 4 -158 6 -32 c 1
43 236 m 0
 61 373 169 470 291 470 c 0
 414 470 466 362 450 236 c 0
 432 104 343 2 221 2 c 0
 99 2 26 104 43 236 c 0
198 236 m 0
 189 175 222 125 282 124 c 0
 338 123 398 172 408 237 c 0
 416 299 383 347 328 348 c 0
 263 349 208 300 198 236 c 0
EndSplineSet
EndChar

StartChar: f
Encoding: 102 102 42
Width: 333
VWidth: 0
Flags: HMW
LayerCount: 2
Fore
SplineSet
68 460 m 1
 376 460 l 1
 354 335 l 1
 46 335 l 1
 68 460 l 1
392 636 m 1
 382 650 369 660 351 660 c 0
 319 660 296 630 291 592 c 2
 188 0 l 1
 45 0 l 1
 152 630 l 2
 169 728 237 797 346 796 c 0
 404 796 439 770 466 744 c 1
 392 636 l 1
EndSplineSet
EndChar

StartChar: s
Encoding: 115 115 43
Width: 442
VWidth: 0
Flags: HMW
LayerCount: 2
Fore
SplineSet
88 166 m 1
 140 118 186 90 230 92 c 0
 257 92 278 109 279 131 c 0
 281 163 245 179 196 196 c 0
 136 218 80 258 86 337 c 0
 94 425 174 470 265 470 c 0
 341 470 402 439 453 401 c 1
 391 304 l 1
 357 338 312 367 270 367 c 0
 243 367 224 353 222 335 c 0
 218 302 264 291 312 272 c 0
 378 246 431 211 426 132 c 0
 418 37 346 -19 243 -19 c 0
 148 -19 73 20 14 68 c 1
 88 166 l 1
EndSplineSet
EndChar

StartChar: y
Encoding: 121 121 44
Width: 505
VWidth: 0
Flags: HMW
LayerCount: 2
Fore
SplineSet
570 460 m 1
 162 -220 l 1
 8 -220 l 1
 164 42 l 1
 44 460 l 1
 202 460 l 1
 284 91 l 1
 207 92 l 1
 413 460 l 1
 570 460 l 1
EndSplineSet
EndChar

StartChar: w
Encoding: 119 119 45
Width: 738
VWidth: 0
Flags: HMW
LayerCount: 2
Fore
SplineSet
45 460 m 1
 198 460 l 1
 250 228 l 1
 424 498 l 1
 508 226 l 1
 641 460 l 1
 802 460 l 1
 484 -31 l 1
 385 242 l 1
 192 -31 l 1
 45 460 l 1
EndSplineSet
EndChar

StartChar: v
Encoding: 118 118 46
Width: 511
VWidth: 0
Flags: HMW
LayerCount: 2
Fore
SplineSet
52 460 m 1
 209 460 l 1
 270 208 l 1
 410 460 l 1
 572 460 l 1
 232 -56 l 1
 52 460 l 1
EndSplineSet
EndChar

StartChar: x
Encoding: 120 120 47
Width: 516
VWidth: 0
Flags: HMW
LayerCount: 2
Fore
SplineSet
394 460 m 1
 564 460 l 1
 355 232 l 1
 498 0 l 1
 338 0 l 1
 264 136 l 1
 155 0 l 1
 -21 0 l 1
 200 244 l 1
 65 460 l 1
 230 460 l 1
 294 340 l 1
 394 460 l 1
EndSplineSet
EndChar

StartChar: z
Encoding: 122 122 48
Width: 506
VWidth: 0
Flags: HMW
LayerCount: 2
Fore
SplineSet
272 322 m 1
 82 322 l 1
 106 460 l 1
 548 460 l 1
 270 138 l 1
 459 138 l 1
 435 0 l 1
 -16 0 l 1
 272 322 l 1
EndSplineSet
EndChar

StartChar: j
Encoding: 106 106 49
Width: 263
VWidth: 0
Flags: HMW
LayerCount: 2
Fore
SplineSet
122 632 m 0
 122 680 161 714 210 714 c 0
 259 714 298 680 298 632 c 0
 298 584 259 550 210 550 c 0
 161 550 122 584 122 632 c 0
-76 -78 m 1
 -66 -92 -51 -103 -33 -103 c 0
 0 -104 20 -70 24 -34 c 2
 110 460 l 1
 254 460 l 1
 164 -73 l 2
 147 -169 80 -239 -29 -238 c 0
 -86 -238 -123 -214 -151 -186 c 1
 -76 -78 l 1
EndSplineSet
EndChar

StartChar: P
Encoding: 80 80 50
Width: 604
VWidth: 0
Flags: HMW
LayerCount: 2
Fore
SplineSet
162 700 m 1
 330 700 l 1
 210 0 l 1
 44 0 l 1
 162 700 l 1
242 561 m 1
 266 700 l 1
 395 700 l 1
 553 699 642 613 626 471 c 0
 610 326 489 243 327 242 c 1
 187 242 l 1
 212 382 l 1
 341 382 l 1
 403 383 456 414 466 472 c 0
 476 528 440 561 380 561 c 2
 242 561 l 1
EndSplineSet
EndChar

StartChar: U
Encoding: 85 85 51
Width: 680
VWidth: 0
Flags: HMW
LayerCount: 2
Fore
SplineSet
158 700 m 1
 325 700 l 1
 245 242 l 2
 237 180 258 125 330 124 c 0
 406 123 450 176 462 242 c 1
 541 700 l 1
 708 700 l 1
 628 230 l 2
 602 68 479 -28 313 -28 c 0
 157 -28 56 70 78 230 c 1
 158 700 l 1
EndSplineSet
EndChar

StartChar: S
Encoding: 83 83 52
Width: 606
VWidth: 0
Flags: HMW
LayerCount: 2
Fore
SplineSet
156 246 m 1
 189 175 234 124 306 124 c 0
 360 124 401 157 405 200 c 0
 411 252 359 272 288 302 c 0
 216 334 124 397 134 513 c 0
 146 638 264 716 400 716 c 0
 526 716 600 645 634 562 c 1
 500 492 l 1
 476 538 444 574 386 574 c 0
 340 574 306 550 302 515 c 0
 295 465 368 439 434 413 c 0
 524 377 589 311 580 205 c 0
 566 65 434 -22 296 -22 c 0
 168 -22 69 56 32 162 c 1
 156 246 l 1
EndSplineSet
EndChar

StartChar: at
Encoding: 64 64 53
Width: 747
VWidth: 0
Flags: HMW
LayerCount: 2
Fore
SplineSet
334 320 m 0
 330 288 336 255 364 252 c 0
 404 246 451 312 457 364 c 0
 461 398 454 429 426 432 c 0
 384 438 340 368 334 320 c 0
216 314 m 0
 229 429 314 532 408 530 c 0
 486 528 514 444 505 370 c 0
 492 255 416 154 322 154 c 0
 237 154 206 230 216 314 c 0
44 320 m 0
 78 538 264 722 494 722 c 0
 696 722 796 554 770 390 c 0
 753 246 656 141 544 144 c 0
 472 146 444 200 452 264 c 1
 444 296 l 1
 504 520 l 1
 618 520 l 1
 556 308 l 2
 554 300 552 290 550 281 c 0
 548 263 548 245 566 242 c 0
 604 232 654 314 660 390 c 0
 680 508 630 622 486 622 c 0
 311 622 182 485 154 320 c 0
 132 183 193 76 348 74 c 0
 416 74 476 92 536 118 c 1
 560 27 l 1
 494 -6 419 -26 328 -26 c 0
 116 -24 16 132 44 320 c 0
EndSplineSet
EndChar

StartChar: period
Encoding: 46 46 54
Width: 312
VWidth: 0
Flags: HMW
LayerCount: 2
Fore
SplineSet
50 68 m 0
 50 119 89 160 144 160 c 0
 199 160 238 119 238 68 c 0
 238 17 199 -24 144 -24 c 0
 89 -24 50 17 50 68 c 0
EndSplineSet
EndChar

StartChar: comma
Encoding: 44 44 55
Width: 313
VWidth: 0
Flags: HMW
LayerCount: 2
Fore
SplineSet
106 109 m 1
 253 76 l 1
 88 -171 l 1
 -24 -148 l 1
 106 109 l 1
EndSplineSet
EndChar

StartChar: colon
Encoding: 58 58 56
Width: 312
VWidth: 0
Flags: HMW
LayerCount: 2
Fore
SplineSet
47 68 m 0
 47 119 86 160 141 160 c 0
 196 160 236 119 236 68 c 0
 236 17 196 -24 141 -24 c 0
 86 -24 47 17 47 68 c 0
110 442 m 0
 110 493 149 534 204 534 c 0
 259 534 299 493 299 442 c 0
 299 391 259 349 204 349 c 0
 149 349 110 391 110 442 c 0
EndSplineSet
EndChar

StartChar: semicolon
Encoding: 59 59 57
Width: 381
VWidth: 0
Flags: HMW
LayerCount: 2
Fore
SplineSet
160 436 m 0
 160 487 199 528 254 528 c 0
 309 528 348 487 348 436 c 0
 348 385 309 343 254 343 c 0
 199 343 160 385 160 436 c 0
127 109 m 1
 274 76 l 1
 110 -171 l 1
 -2 -148 l 1
 127 109 l 1
EndSplineSet
EndChar

StartChar: quotedbl
Encoding: 34 34 58
Width: 502
VWidth: 0
Flags: HMW
LayerCount: 2
Fore
SplineSet
191 700 m 1
 352 700 l 1
 199 382 l 1
 99 382 l 1
 191 700 l 1
396 700 m 1
 556 700 l 1
 404 382 l 1
 304 382 l 1
 396 700 l 1
EndSplineSet
EndChar

StartChar: exclam
Encoding: 33 33 59
Width: 333
VWidth: 0
Flags: HMW
LayerCount: 2
Fore
SplineSet
168 700 m 1
 352 700 l 1
 240 232 l 1
 118 232 l 1
 168 700 l 1
57 62 m 0
 57 113 96 148 151 148 c 0
 206 148 246 113 246 62 c 0
 246 11 206 -24 151 -24 c 0
 96 -24 57 11 57 62 c 0
EndSplineSet
EndChar

StartChar: quotesingle
Encoding: 39 39 60
Width: 297
VWidth: 0
Flags: HMW
LayerCount: 2
Fore
SplineSet
191 700 m 1
 352 700 l 1
 199 382 l 1
 99 382 l 1
 191 700 l 1
EndSplineSet
EndChar

StartChar: numbersign
Encoding: 35 35 61
Width: 647
VWidth: 0
Flags: HMW
LayerCount: 2
Fore
SplineSet
116 412 m 1
 136 533 l 1
 679 533 l 1
 658 412 l 1
 512 412 l 1
 484 418 l 1
 286 418 l 1
 259 412 l 1
 116 412 l 1
34 172 m 1
 56 293 l 1
 189 293 l 1
 219 287 l 1
 442 287 l 1
 472 293 l 1
 599 293 l 1
 578 172 l 1
 34 172 l 1
548 700 m 1
 682 700 l 1
 397 0 l 1
 265 0 l 1
 356 224 l 1
 373 250 l 1
 457 456 l 1
 463 487 l 1
 548 700 l 1
315 700 m 1
 448 700 l 1
 362 488 l 1
 342 456 l 1
 259 252 l 1
 256 226 l 1
 163 0 l 1
 31 0 l 1
 315 700 l 1
EndSplineSet
EndChar

StartChar: hyphen
Encoding: 45 45 62
Width: 215
VWidth: 0
Flags: HMW
LayerCount: 2
Fore
SplineSet
6 172 m 1
 28 303 l 1
 238 303 l 1
 215 172 l 1
 6 172 l 1
EndSplineSet
EndChar

StartChar: dollar
Encoding: 36 36 63
Width: 602
VWidth: 0
Flags: HMW
LayerCount: 2
Fore
SplineSet
362 818 m 1
 485 818 l 1
 450 637 l 1
 340 637 l 1
 362 818 l 1
252 62 m 1
 362 62 l 1
 340 -112 l 1
 218 -112 l 1
 252 62 l 1
497 490 m 1
 475 541 446 584 393 584 c 0
 346 584 311 558 304 521 c 0
 292 459 375 439 439 414 c 0
 531 377 597 305 583 196 c 0
 565 62 442 -11 294 -10 c 0
 172 -9 78 68 40 168 c 1
 166 251 l 1
 199 179 237 126 311 126 c 0
 363 126 400 151 408 195 c 0
 418 253 350 276 288 302 c 0
 210 336 120 404 134 522 c 0
 150 632 270 710 400 710 c 0
 524 710 591 645 630 561 c 1
 497 490 l 1
EndSplineSet
EndChar

StartChar: bar
Encoding: 124 124 64
Width: 341
VWidth: 0
Flags: HMW
LayerCount: 2
Fore
SplineSet
200 785 m 1
 350 785 l 1
 196 -215 l 1
 46 -215 l 1
 200 785 l 1
EndSplineSet
EndChar

StartChar: zero
Encoding: 48 48 65
Width: 642
VWidth: 0
Flags: HMW
LayerCount: 2
Fore
SplineSet
230 350 m 0
 220 256 222 135 312 133 c 0
 402 131 462 244 477 350 c 0
 487 444 486 565 396 567 c 0
 306 569 245 456 230 350 c 0
70 350 m 0
 98 549 225 713 411 713 c 0
 601 713 662 538 638 350 c 0
 610 150 486 -13 297 -13 c 0
 111 -13 46 162 70 350 c 0
EndSplineSet
Substitution2: "Tabular Numbers lookup" uniFF10
EndChar

StartChar: one
Encoding: 49 49 66
Width: 493
VWidth: 0
Flags: HMW
LayerCount: 2
Fore
SplineSet
121 496 m 1
 148 646 l 1
 489 714 l 1
 366 0 l 1
 205 0 l 1
 298 538 l 1
 121 496 l 1
EndSplineSet
Substitution2: "Tabular Numbers lookup" uniFF11
EndChar

StartChar: two
Encoding: 50 50 67
Width: 636
VWidth: 0
Flags: HMW
LayerCount: 2
Fore
SplineSet
-1 0 m 1
 351 323 l 2
 404 374 457 419 466 480 c 0
 472 524 447 567 391 568 c 0
 323 570 280 508 267 442 c 1
 103 442 l 1
 128 590 237 714 410 714 c 0
 558 714 657 610 639 492 c 0
 629 414 576 351 514 301 c 2
 335 156 l 1
 604 155 l 1
 580 0 l 1
 -1 0 l 1
EndSplineSet
Substitution2: "Tabular Numbers lookup" uniFF12
EndChar

StartChar: four
Encoding: 52 52 68
Width: 677
VWidth: 0
Flags: HMW
LayerCount: 2
Fore
SplineSet
5 125 m 1
 496 700 l 1
 624 700 l 1
 504 0 l 1
 330 0 l 1
 360 176 l 1
 380 186 l 1
 425 447 l 1
 250 246 l 1
 492 246 l 1
 512 268 l 1
 657 268 l 1
 632 124 l 1
 5 125 l 1
EndSplineSet
Substitution2: "Tabular Numbers lookup" uniFF14
EndChar

StartChar: slash
Encoding: 47 47 69
Width: 590
VWidth: 0
Flags: HMW
LayerCount: 2
Fore
SplineSet
524 700 m 1
 672 700 l 1
 112 -150 l 1
 -41 -150 l 1
 524 700 l 1
EndSplineSet
EndChar

StartChar: backslash
Encoding: 92 92 70
Width: 529
VWidth: 0
Flags: HMW
LayerCount: 2
Fore
SplineSet
108 700 m 1
 249 700 l 1
 487 0 l 1
 346 0 l 1
 108 700 l 1
EndSplineSet
EndChar

StartChar: eight
Encoding: 56 56 71
Width: 608
VWidth: 0
Flags: HMW
LayerCount: 2
Fore
SplineSet
137 532 m 0
 155 649 272 716 394 716 c 0
 512 716 615 647 598 530 c 0
 581 408 457 342 341 342 c 0
 229 342 120 410 137 532 c 0
290 514 m 0
 284 474 306 436 348 436 c 0
 394 436 433 474 440 516 c 0
 446 556 426 594 382 594 c 0
 334 594 297 557 290 514 c 0
54 190 m 0
 73 328 218 396 340 396 c 0
 456 396 584 328 565 190 c 0
 546 62 412 -16 280 -16 c 0
 153 -16 36 63 54 190 c 0
224 215 m 0
 216 163 244 122 294 122 c 0
 348 122 396 162 404 216 c 0
 411 262 383 306 333 306 c 0
 279 306 233 263 224 215 c 0
EndSplineSet
Substitution2: "Tabular Numbers lookup" uniFF18
EndChar

StartChar: nine
Encoding: 57 57 72
Width: 649
VWidth: 0
Flags: HMW
LayerCount: 2
Fore
SplineSet
492 454 m 0
 502 517 466 571 400 572 c 0
 333 573 274 520 264 454 c 0
 254 392 290 337 356 336 c 0
 423 335 482 388 492 454 c 0
314 4 m 1
 98 4 l 1
 358 255 l 1
 396 270 l 1
 360 241 326 228 280 228 c 0
 166 228 86 330 100 454 c 0
 120 616 258 716 414 716 c 0
 568 716 676 612 656 454 c 0
 646 378 599 314 548 259 c 2
 314 4 l 1
EndSplineSet
Substitution2: "Tabular Numbers lookup" uniFF19
EndChar

StartChar: three
Encoding: 51 51 73
Width: 602
VWidth: 0
Flags: HMW
LayerCount: 2
Fore
SplineSet
302 340 m 1
 312 414 l 1
 378 418 446 451 454 508 c 0
 458 546 437 578 391 578 c 0
 339 580 301 539 289 495 c 1
 134 496 l 1
 157 620 261 713 404 713 c 0
 538 713 635 633 619 518 c 0
 599 385 448 342 302 340 c 1
292 -16 m 0
 136 -16 52 92 62 222 c 1
 224 222 l 1
 221 162 252 122 312 120 c 0
 368 119 418 152 426 208 c 0
 439 275 377 303 297 306 c 1
 309 392 l 1
 461 390 608 339 588 190 c 0
 570 62 444 -16 292 -16 c 0
EndSplineSet
Substitution2: "Tabular Numbers lookup" uniFF13
EndChar

StartChar: five
Encoding: 53 53 74
Width: 625
VWidth: 0
Flags: HMW
LayerCount: 2
Fore
SplineSet
606 224 m 0
 586 70 439 -13 299 -13 c 0
 185 -13 102 27 36 79 c 1
 118 216 l 1
 164 172 222 142 278 142 c 0
 352 142 418 174 428 242 c 0
 438 307 378 339 316 340 c 0
 254 342 182 326 114 297 c 1
 269 700 l 1
 666 700 l 1
 642 553 l 1
 372 554 l 1
 309 428 l 1
 346 444 387 452 429 452 c 0
 547 450 621 350 606 224 c 0
EndSplineSet
Substitution2: "Tabular Numbers lookup" uniFF15
EndChar

StartChar: six
Encoding: 54 54 75
Width: 649
VWidth: 0
Flags: HMW
LayerCount: 2
Fore
SplineSet
232 246 m 0
 222 183 258 129 324 128 c 0
 391 127 450 180 460 246 c 0
 470 308 434 363 368 364 c 0
 301 365 242 312 232 246 c 0
410 696 m 1
 626 696 l 1
 366 445 l 1
 327 430 l 1
 363 459 397 472 443 472 c 0
 557 472 638 370 624 246 c 0
 604 84 466 -16 310 -16 c 0
 156 -16 48 88 68 246 c 0
 78 322 124 386 175 441 c 2
 410 696 l 1
EndSplineSet
Substitution2: "Tabular Numbers lookup" uniFF16
EndChar

StartChar: seven
Encoding: 55 55 76
Width: 584
VWidth: 0
Flags: HMW
LayerCount: 2
Fore
SplineSet
94 542 m 1
 118 700 l 1
 678 700 l 1
 240 0 l 1
 57 0 l 1
 406 542 l 1
 94 542 l 1
EndSplineSet
Substitution2: "Tabular Numbers lookup" uniFF17
EndChar

StartChar: plus
Encoding: 43 43 77
Width: 654
VWidth: 0
Flags: HMW
LayerCount: 2
Fore
SplineSet
68 196 m 1
 94 342 l 1
 624 342 l 1
 599 196 l 1
 68 196 l 1
315 540 m 1
 470 541 l 1
 376 -2 l 1
 222 -2 l 1
 315 540 l 1
EndSplineSet
EndChar

StartChar: equal
Encoding: 61 61 78
Width: 607
VWidth: 0
Flags: HMW
LayerCount: 2
Fore
SplineSet
40 84 m 1
 63 215 l 1
 566 215 l 1
 542 84 l 1
 40 84 l 1
75 290 m 1
 98 421 l 1
 600 421 l 1
 578 290 l 1
 75 290 l 1
EndSplineSet
EndChar

StartChar: percent
Encoding: 37 37 79
Width: 891
VWidth: 0
Flags: HMW
LayerCount: 2
Fore
SplineSet
84 534 m 0
 98 634 190 718 296 718 c 0
 401 718 468 631 454 534 c 0
 440 434 349 350 243 350 c 0
 138 350 70 437 84 534 c 0
206 533 m 0
 202 502 221 468 259 468 c 0
 295 468 327 501 332 535 c 0
 336 566 319 600 281 600 c 0
 245 600 211 567 206 533 c 0
504 166 m 0
 518 266 609 350 715 350 c 0
 820 350 887 263 873 166 c 0
 859 66 768 -18 662 -18 c 0
 557 -18 490 69 504 166 c 0
626 165 m 0
 622 134 641 100 676 100 c 0
 712 100 745 131 751 167 c 0
 755 198 736 232 701 232 c 0
 665 232 632 201 626 165 c 0
720 700 m 1
 880 700 l 1
 238 0 l 1
 79 0 l 1
 720 700 l 1
EndSplineSet
EndChar

StartChar: ampersand
Encoding: 38 38 80
Width: 729
VWidth: 0
Flags: HMW
LayerCount: 2
Fore
SplineSet
258 372 m 2
 219 424 180 476 188 544 c 0
 202 640 302 716 421 716 c 0
 534 716 608 640 596 548 c 0
 583 452 498 403 400 344 c 0
 330 304 221 282 208 200 c 0
 200 151 234 118 292 116 c 0
 418 110 538 234 622 340 c 1
 712 262 l 1
 607 133 455 -15 261 -13 c 0
 137 -13 34 64 50 188 c 0
 69 338 232 378 326 420 c 0
 388 449 452 486 459 534 c 0
 463 564 444 596 404 596 c 0
 364 596 336 568 330 534 c 0
 322 490 360 448 398 400 c 2
 695 0 l 1
 531 0 l 1
 258 372 l 2
EndSplineSet
EndChar

StartChar: question
Encoding: 63 63 81
Width: 608
VWidth: 0
Flags: HMW
LayerCount: 2
Fore
SplineSet
466 500 m 0
 475 556 438 589 376 590 c 0
 312 592 251 553 208 504 c 1
 118 591 l 1
 195 667 285 719 400 719 c 0
 527 719 635 632 616 500 c 0
 598 378 485 308 374 285 c 1
 354 202 l 1
 231 202 l 1
 241 379 l 1
 271 379 l 1
 369 381 452 434 466 500 c 0
172 60 m 0
 172 105 213 142 265 142 c 0
 317 142 358 105 358 60 c 0
 358 14 317 -24 265 -24 c 0
 213 -24 172 14 172 60 c 0
EndSplineSet
EndChar

StartChar: parenleft
Encoding: 40 40 82
Width: 330
VWidth: 0
Flags: HMW
LayerCount: 2
Fore
SplineSet
283 780 m 1
 420 779 l 1
 333 628 268 463 240 290 c 0
 215 126 224 -42 271 -200 c 1
 138 -200 l 1
 82 -43 68 125 92 290 c 0
 118 464 185 632 283 780 c 1
EndSplineSet
EndChar

StartChar: parenright
Encoding: 41 41 83
Width: 330
VWidth: 0
Flags: HMW
LayerCount: 2
Fore
SplineSet
103 -200 m 1
 -34 -199 l 1
 53 -48 118 117 146 290 c 0
 171 454 162 622 115 780 c 1
 248 780 l 1
 304 623 318 455 294 290 c 0
 268 116 201 -52 103 -200 c 1
EndSplineSet
EndChar

StartChar: asterisk
Encoding: 42 42 84
Width: 574
VWidth: 0
Flags: HMW
LayerCount: 2
Fore
SplineSet
558 603 m 1
 578 470 l 1
 344 428 l 1
 332 501 l 1
 558 603 l 1
504 313 m 1
 380 232 l 1
 307 446 l 1
 368 486 l 1
 504 313 l 1
224 234 m 1
 124 318 l 1
 311 486 l 1
 366 440 l 1
 224 234 l 1
102 472 m 1
 164 602 l 1
 358 498 l 1
 325 429 l 1
 102 472 l 1
310 700 m 1
 450 700 l 1
 377 464 l 1
 304 464 l 1
 310 700 l 1
EndSplineSet
EndChar

StartChar: less
Encoding: 60 60 85
Width: 621
VWidth: 0
Flags: HMW
LayerCount: 2
Fore
SplineSet
291 264 m 1
 558 144 l 1
 532 0 l 1
 72 215 l 1
 89 316 l 1
 624 530 l 1
 596 376 l 1
 291 264 l 1
EndSplineSet
EndChar

StartChar: greater
Encoding: 62 62 86
Width: 621
VWidth: 0
Flags: HMW
LayerCount: 2
Fore
SplineSet
366 264 m 1
 100 384 l 1
 124 527 l 1
 586 312 l 1
 568 212 l 1
 33 -3 l 1
 60 152 l 1
 366 264 l 1
EndSplineSet
EndChar

StartChar: bracketleft
Encoding: 91 91 87
Width: 351
VWidth: 0
Flags: HMW
LayerCount: 2
Fore
SplineSet
319 649 m 1
 205 -89 l 1
 303 -89 l 1
 282 -220 l 1
 36 -220 l 1
 190 780 l 1
 436 780 l 1
 416 649 l 1
 319 649 l 1
EndSplineSet
EndChar

StartChar: bracketright
Encoding: 93 93 88
Width: 351
VWidth: 0
Flags: HMW
LayerCount: 2
Fore
SplineSet
86 -89 m 1
 199 649 l 1
 100 649 l 1
 122 780 l 1
 368 780 l 1
 214 -220 l 1
 -34 -220 l 1
 -13 -89 l 1
 86 -89 l 1
EndSplineSet
EndChar

StartChar: asciicircum
Encoding: 94 94 89
Width: 494
VWidth: 0
Flags: HMW
LayerCount: 2
Fore
SplineSet
322 578 m 1
 223 448 l 1
 84 448 l 1
 294 710 l 1
 384 710 l 1
 504 448 l 1
 374 448 l 1
 322 578 l 1
EndSplineSet
EndChar

StartChar: underscore
Encoding: 95 95 90
Width: 515
VWidth: 0
Flags: HMW
LayerCount: 2
Fore
SplineSet
-54 -154 m 1
 -38 -58 l 1
 480 -58 l 1
 464 -154 l 1
 -54 -154 l 1
EndSplineSet
EndChar

StartChar: grave
Encoding: 96 96 91
Width: 363
VWidth: 0
Flags: HMW
LayerCount: 2
Fore
SplineSet
135 656 m 1
 252 706 l 1
 376 544 l 1
 290 504 l 1
 135 656 l 1
EndSplineSet
EndChar

StartChar: braceleft
Encoding: 123 123 92
Width: 386
VWidth: 0
Flags: HMW
LayerCount: 2
Fore
SplineSet
336 610 m 2
 318 490 l 2
 300 390 274 290 144 280 c 1
 146 300 l 1
 272 288 269 182 255 90 c 2
 236 -30 l 2
 232 -57 244 -80 274 -80 c 2
 309 -80 l 1
 291 -200 l 1
 206 -200 l 2
 125 -199 56 -150 68 -60 c 2
 97 125 l 2
 104 187 97 215 55 235 c 1
 70 344 l 1
 116 361 137 392 146 456 c 2
 174 640 l 2
 188 732 264 779 348 780 c 1
 442 780 l 1
 424 660 l 1
 392 660 l 2
 362 660 340 638 336 610 c 2
EndSplineSet
EndChar

StartChar: braceright
Encoding: 125 125 93
Width: 386
VWidth: 0
Flags: HMW
LayerCount: 2
Fore
SplineSet
108 -30 m 2
 127 90 l 2
 145 190 172 290 302 300 c 1
 300 280 l 1
 174 292 176 398 190 490 c 2
 209 610 l 2
 213 636 201 660 172 660 c 2
 136 660 l 1
 154 780 l 1
 240 780 l 2
 321 779 388 730 376 640 c 2
 348 455 l 2
 341 393 348 365 390 345 c 1
 374 236 l 1
 328 219 308 188 299 124 c 2
 271 -60 l 2
 258 -152 180 -199 96 -200 c 1
 2 -200 l 1
 20 -80 l 1
 53 -80 l 2
 83 -80 104 -58 108 -30 c 2
EndSplineSet
EndChar

StartChar: asciitilde
Encoding: 126 126 94
Width: 558
VWidth: 0
Flags: HMW
LayerCount: 2
Fore
SplineSet
162 163 m 1
 45 168 l 1
 44 176 44 185 45 193 c 0
 49 227 64 260 88 288 c 0
 119 322 161 346 220 346 c 0
 263 346 296 325 335 296 c 0
 357 280 378 263 398 263 c 0
 419 263 434 283 438 302 c 0
 440 312 438 326 436 336 c 1
 554 330 l 1
 555 321 556 312 555 302 c 0
 551 268 538 234 514 206 c 0
 486 174 449 154 399 154 c 0
 359 154 325 176 285 204 c 0
 261 222 237 238 212 237 c 0
 184 236 165 214 160 192 c 0
 158 181 160 172 162 163 c 1
EndSplineSet
EndChar

StartChar: exclamdown
Encoding: 161 161 95
Width: 333
VWidth: 0
Flags: HMW
LayerCount: 2
Fore
SplineSet
192 -229 m 1
 8 -229 l 1
 120 239 l 1
 241 239 l 1
 192 -229 l 1
302 408 m 0
 296 360 249 323 198 323 c 0
 146 323 112 360 118 410 c 0
 124 458 170 494 221 494 c 0
 273 494 308 458 302 408 c 0
EndSplineSet
EndChar

StartChar: cent
Encoding: 162 162 96
Width: 562
VWidth: 0
Flags: HMW
LayerCount: 2
Fore
SplineSet
207 38 m 1
 318 38 l 1
 300 -112 l 1
 172 -112 l 1
 207 38 l 1
212 230 m 0
 202 163 240 114 306 112 c 0
 366 110 416 143 452 179 c 1
 430 30 l 1
 391 5 340 -10 282 -10 c 0
 137 -10 39 92 59 230 c 0
 80 372 206 470 355 470 c 0
 411 470 460 456 496 430 c 1
 472 280 l 1
 448 320 412 349 356 349 c 0
 289 349 224 297 212 230 c 0
291 578 m 1
 419 578 l 1
 384 428 l 1
 274 428 l 1
 291 578 l 1
EndSplineSet
EndChar

StartChar: sterling
Encoding: 163 163 97
Width: 592
VWidth: 0
Flags: HMW
LayerCount: 2
Fore
SplineSet
100 370 m 1
 470 370 l 1
 452 270 l 1
 82 270 l 1
 100 370 l 1
476 467 m 1
 478 518 468 575 400 576 c 0
 351 577 305 545 295 494 c 0
 279 414 357 364 346 270 c 0
 330 160 207 78 117 52 c 1
 180 139 l 1
 522 139 l 1
 497 0 l 1
 23 0 l 1
 114 94 186 176 204 286 c 0
 216 374 131 422 143 522 c 0
 159 640 282 710 406 710 c 0
 540 710 620 616 617 517 c 1
 476 467 l 1
EndSplineSet
EndChar

StartChar: currency
Encoding: 164 164 98
Width: 559
VWidth: 0
Flags: HMW
LayerCount: 2
Fore
SplineSet
80 505 m 1
 150 566 l 1
 232 461 l 1
 166 404 l 1
 80 505 l 1
66 34 m 1
 12 101 l 1
 124 196 l 1
 176 132 l 1
 66 34 l 1
486 404 m 1
 432 470 l 1
 544 566 l 1
 596 500 l 1
 486 404 l 1
375 136 m 1
 444 196 l 1
 526 93 l 1
 460 35 l 1
 375 136 l 1
72 300 m 0
 91 432 204 540 340 540 c 0
 474 540 554 428 536 300 c 0
 517 168 404 60 268 60 c 0
 134 60 54 172 72 300 c 0
206 300 m 0
 198 246 227 199 284 198 c 0
 342 197 392 243 402 300 c 0
 410 354 383 401 326 402 c 0
 268 403 216 357 206 300 c 0
EndSplineSet
EndChar

StartChar: yen
Encoding: 165 165 99
Width: 649
VWidth: 0
Flags: HMW
LayerCount: 2
Fore
SplineSet
60 265 m 1
 78 365 l 1
 640 365 l 1
 622 265 l 1
 60 265 l 1
35 115 m 1
 52 215 l 1
 614 215 l 1
 596 115 l 1
 35 115 l 1
546 700 m 1
 742 700 l 1
 432 283 l 1
 384 0 l 1
 212 0 l 1
 263 289 l 1
 96 700 l 1
 284 700 l 1
 370 440 l 1
 546 700 l 1
EndSplineSet
EndChar

StartChar: brokenbar
Encoding: 166 166 100
Width: 341
VWidth: 0
Flags: HMW
LayerCount: 2
Fore
SplineSet
188 695 m 1
 338 695 l 1
 292 430 l 1
 142 430 l 1
 188 695 l 1
266 270 m 1
 220 5 l 1
 69 5 l 1
 115 270 l 1
 266 270 l 1
EndSplineSet
EndChar

StartChar: section
Encoding: 167 167 101
Width: 559
VWidth: 0
Flags: HMW
LayerCount: 2
Fore
SplineSet
460 550 m 1
 435 578 399 598 365 598 c 0
 339 598 308 588 306 568 c 0
 302 540 356 532 392 520 c 0
 461 498 514 447 504 377 c 0
 488 271 376 233 272 230 c 1
 279 271 l 1
 317 281 359 302 365 344 c 0
 374 398 310 416 266 436 c 0
 208 462 156 504 166 578 c 0
 179 672 278 724 368 724 c 0
 442 724 509 693 542 646 c 1
 460 550 l 1
123 173 m 1
 161 129 210 101 256 102 c 0
 286 102 316 116 320 138 c 0
 325 170 276 182 238 194 c 0
 169 216 102 259 112 335 c 0
 127 437 244 476 350 479 c 1
 344 442 l 1
 306 428 263 409 256 368 c 0
 246 310 320 298 364 278 c 0
 426 250 477 203 467 130 c 0
 453 28 348 -22 251 -22 c 0
 153 -22 83 18 39 77 c 1
 123 173 l 1
EndSplineSet
EndChar

StartChar: dieresis
Encoding: 168 168 102
Width: 495
VWidth: 0
Flags: HMW
LayerCount: 2
Fore
SplineSet
360 633 m 0
 365 678 410 714 456 714 c 0
 502 714 539 677 533 631 c 0
 528 586 483 550 437 550 c 0
 391 550 354 587 360 633 c 0
124 633 m 0
 129 678 174 714 220 714 c 0
 266 714 302 677 296 631 c 0
 291 586 246 550 200 550 c 0
 154 550 118 587 124 633 c 0
EndSplineSet
EndChar

StartChar: copyright
Encoding: 169 169 103
Width: 776
VWidth: 0
Flags: HMW
LayerCount: 2
Fore
SplineSet
318 350 m 0
 308 282 348 230 417 228 c 0
 473 227 516 254 550 282 c 1
 535 172 l 1
 497 147 458 130 404 130 c 0
 275 130 192 226 208 350 c 0
 224 476 332 570 464 570 c 0
 518 570 553 553 588 527 c 1
 574 417 l 1
 548 449 514 473 462 473 c 0
 392 473 330 422 318 350 c 0
130 350 m 0
 106 189 201 41 373 40 c 0
 547 39 694 181 720 350 c 0
 744 511 649 659 477 660 c 0
 303 661 156 519 130 350 c 0
74 350 m 0
 101 550 272 710 476 710 c 0
 677 710 801 543 776 350 c 0
 749 150 578 -10 374 -10 c 0
 173 -10 49 157 74 350 c 0
EndSplineSet
EndChar

StartChar: registered
Encoding: 174 174 104
Width: 776
VWidth: 0
Flags: HMW
LayerCount: 2
Fore
SplineSet
399 328 m 1
 488 328 l 1
 577 150 l 1
 463 150 l 1
 399 328 l 1
316 570 m 1
 416 570 l 1
 352 150 l 1
 250 150 l 1
 316 570 l 1
364 484 m 1
 378 570 l 1
 462 570 l 1
 554 568 615 518 605 438 c 0
 594 354 523 304 428 302 c 1
 336 302 l 1
 348 380 l 1
 426 380 l 1
 462 382 495 400 500 434 c 0
 504 466 481 482 447 484 c 1
 364 484 l 1
130 350 m 0
 106 189 201 41 373 40 c 0
 547 39 694 181 720 350 c 0
 744 511 649 659 477 660 c 0
 303 661 156 519 130 350 c 0
74 350 m 0
 101 550 272 710 476 710 c 0
 677 710 801 543 776 350 c 0
 749 150 578 -10 374 -10 c 0
 173 -10 49 157 74 350 c 0
EndSplineSet
EndChar

StartChar: ordfeminine
Encoding: 170 170 105
Width: 261
VWidth: 0
Flags: HMW
LayerCount: 2
Fore
SplineSet
154 529 m 0
 152 515 164 505 180 505 c 0
 208 505 231 523 240 552 c 1
 243 524 l 1
 231 484 200 456 152 456 c 0
 108 456 74 485 80 529 c 0
 87 575 136 603 186 603 c 0
 218 603 245 590 261 578 c 1
 256 543 l 1
 240 555 224 562 202 562 c 0
 181 562 156 547 154 529 c 0
143 624 m 1
 126 680 l 1
 155 692 191 705 229 705 c 0
 283 705 328 680 324 630 c 1
 295 460 l 1
 222 460 l 1
 250 611 l 1
 248 629 242 642 220 644 c 0
 191 646 160 632 143 624 c 1
EndSplineSet
EndChar

StartChar: ordmasculine
Encoding: 186 186 106
Width: 269
VWidth: 0
Flags: HMW
LayerCount: 2
Fore
SplineSet
89 581 m 0
 99 650 162 700 234 700 c 0
 306 700 356 648 346 579 c 0
 336 509 273 460 201 460 c 0
 129 460 79 512 89 581 c 0
165 580 m 0
 161 552 177 525 205 524 c 0
 234 523 266 549 270 580 c 0
 274 608 258 637 230 638 c 0
 201 639 169 611 165 580 c 0
EndSplineSet
EndChar

StartChar: guillemotleft
Encoding: 171 171 107
Width: 524
VWidth: 0
Flags: HMW
LayerCount: 2
Fore
SplineSet
358 256 m 1
 471 62 l 1
 372 0 l 1
 240 260 l 1
 454 508 l 1
 537 442 l 1
 358 256 l 1
161 256 m 1
 274 62 l 1
 174 0 l 1
 44 260 l 1
 256 508 l 1
 340 442 l 1
 161 256 l 1
EndSplineSet
EndChar

StartChar: guillemotright
Encoding: 187 187 108
Width: 524
VWidth: 0
Flags: HMW
LayerCount: 2
Fore
SplineSet
200 254 m 1
 86 448 l 1
 186 510 l 1
 317 250 l 1
 105 2 l 1
 21 68 l 1
 200 254 l 1
398 254 m 1
 284 448 l 1
 384 510 l 1
 515 250 l 1
 302 2 l 1
 218 68 l 1
 398 254 l 1
EndSplineSet
EndChar

StartChar: uni00AD
Encoding: 173 173 109
Width: 203
VWidth: 0
Flags: HMW
LayerCount: 2
Fore
SplineSet
12 200 m 1
 24 275 l 1
 221 275 l 1
 208 200 l 1
 12 200 l 1
EndSplineSet
EndChar

StartChar: logicalnot
Encoding: 172 172 110
Width: 630
VWidth: 0
Flags: HMW
LayerCount: 2
Fore
SplineSet
82 272 m 1
 104 403 l 1
 612 403 l 1
 572 175 l 1
 466 175 l 1
 486 272 l 1
 82 272 l 1
EndSplineSet
EndChar

StartChar: macron
Encoding: 175 175 111
Width: 515
VWidth: 0
Flags: HMW
LayerCount: 2
Fore
SplineSet
148 572 m 1
 168 703 l 1
 532 703 l 1
 511 572 l 1
 148 572 l 1
EndSplineSet
EndChar

StartChar: degree
Encoding: 176 176 112
Width: 287
VWidth: 0
Flags: HMW
LayerCount: 2
Fore
SplineSet
90 598 m 0
 100 667 163 720 235 720 c 0
 307 720 358 665 348 596 c 0
 338 526 274 474 201 474 c 0
 129 474 80 529 90 598 c 0
163 596 m 0
 159 567 176 541 206 540 c 0
 238 539 269 566 274 598 c 0
 278 627 261 655 231 656 c 0
 199 657 168 628 163 596 c 0
EndSplineSet
EndChar

StartChar: plusminus
Encoding: 177 177 113
Width: 614
VWidth: 0
Flags: HMW
LayerCount: 2
Fore
SplineSet
46 6 m 1
 66 136 l 1
 558 136 l 1
 537 6 l 1
 46 6 l 1
96 332 m 1
 118 469 l 1
 609 469 l 1
 588 332 l 1
 96 332 l 1
310 620 m 1
 462 620 l 1
 394 181 l 1
 242 182 l 1
 310 620 l 1
EndSplineSet
EndChar

StartChar: uni00B2
Encoding: 178 178 114
Width: 395
VWidth: 0
Flags: HMW
LayerCount: 2
Fore
SplineSet
42 282 m 1
 256 476 l 2
 288 506 322 534 328 570 c 0
 332 595 319 621 287 623 c 0
 246 625 219 586 210 548 c 1
 110 548 l 1
 128 636 192 710 297 710 c 0
 387 710 443 646 432 574 c 0
 425 528 394 492 357 462 c 2
 248 376 l 1
 408 374 l 1
 392 282 l 1
 42 282 l 1
EndSplineSet
EndChar

StartChar: uni00B3
Encoding: 179 179 115
Width: 354
VWidth: 0
Flags: HMW
LayerCount: 2
Fore
SplineSet
205 484 m 1
 212 528 l 1
 252 532 293 551 299 586 c 0
 302 608 288 626 262 626 c 0
 230 626 208 604 200 578 c 1
 106 578 l 1
 123 650 182 708 268 708 c 0
 348 708 408 660 397 591 c 0
 384 512 293 486 205 484 c 1
198 270 m 0
 103 270 55 336 59 414 c 1
 156 414 l 1
 156 378 171 354 207 352 c 0
 239 350 274 374 278 406 c 0
 286 446 247 461 200 464 c 1
 208 514 l 1
 300 512 389 484 376 394 c 0
 365 318 288 270 198 270 c 0
EndSplineSet
EndChar

StartChar: acute
Encoding: 180 180 116
Width: 363
VWidth: 0
Flags: HMW
LayerCount: 2
Fore
SplineSet
394 651 m 1
 198 504 l 1
 117 549 l 1
 285 706 l 1
 394 651 l 1
EndSplineSet
EndChar

StartChar: mu
Encoding: 181 181 117
Width: 569
VWidth: 0
Flags: HMW
LayerCount: 2
Fore
SplineSet
264 460 m 1
 216 200 l 2
 209 154 223 121 271 121 c 0
 319 121 352 154 360 204 c 2
 407 460 l 1
 552 460 l 1
 476 0 l 1
 324 0 l 1
 333 52 l 1
 309 18 274 -4 237 -4 c 0
 215 -4 196 0 176 16 c 1
 120 -320 l 1
 -26 -320 l 1
 108 460 l 1
 264 460 l 1
EndSplineSet
EndChar

StartChar: paragraph
Encoding: 182 182 118
Width: 651
VWidth: 0
Flags: HMW
LayerCount: 2
Fore
SplineSet
298 271 m 1
 178 279 94 358 112 486 c 0
 132 621 242 700 370 700 c 2
 688 700 l 1
 530 -220 l 1
 399 -220 l 1
 540 607 l 1
 486 607 l 1
 344 -220 l 1
 214 -220 l 1
 298 271 l 1
EndSplineSet
EndChar

StartChar: periodcentered
Encoding: 183 183 119
Width: 312
VWidth: 0
Flags: HMW
LayerCount: 2
Fore
SplineSet
82 269 m 0
 88 317 136 360 188 360 c 0
 240 360 274 316 268 267 c 0
 262 219 214 176 162 176 c 0
 110 176 76 220 82 269 c 0
EndSplineSet
EndChar

StartChar: uni00B9
Encoding: 185 185 120
Width: 467
VWidth: 0
Flags: HMW
LayerCount: 2
Fore
SplineSet
198 572 m 1
 214 662 l 1
 420 703 l 1
 346 274 l 1
 249 274 l 1
 304 596 l 1
 198 572 l 1
EndSplineSet
EndChar

StartChar: cedilla
Encoding: 184 184 121
Width: 381
VWidth: 0
Flags: HMW
LayerCount: 2
Fore
SplineSet
160 70 m 1
 273 67 l 1
 164 -54 l 1
 174 -52 185 -51 197 -51 c 0
 243 -53 280 -92 274 -149 c 0
 265 -217 195 -256 132 -257 c 0
 79 -258 38 -244 -6 -216 c 1
 46 -150 l 1
 68 -165 96 -175 118 -175 c 0
 144 -175 178 -162 180 -138 c 0
 182 -114 152 -108 130 -108 c 0
 110 -107 77 -112 45 -122 c 1
 160 70 l 1
EndSplineSet
EndChar

StartChar: questiondown
Encoding: 191 191 122
Width: 608
VWidth: 0
Flags: HMW
LayerCount: 2
Fore
SplineSet
208 200 m 0
 199 144 235 111 297 110 c 0
 361 108 423 147 466 196 c 1
 556 109 l 1
 479 33 389 -19 274 -19 c 0
 147 -19 39 68 58 200 c 0
 76 322 189 392 300 415 c 1
 320 498 l 1
 442 499 l 1
 433 321 l 1
 403 321 l 1
 305 319 222 266 208 200 c 0
498 640 m 0
 492 596 444 558 394 558 c 0
 344 558 308 597 314 642 c 0
 320 686 366 724 416 724 c 0
 466 724 504 685 498 640 c 0
EndSplineSet
EndChar

StartChar: multiply
Encoding: 215 215 123
Width: 578
VWidth: 0
Flags: HMW
LayerCount: 2
Fore
SplineSet
112 3 m 1
 34 101 l 1
 220 258 l 1
 88 417 l 1
 192 508 l 1
 318 346 l 1
 499 507 l 1
 577 409 l 1
 392 252 l 1
 523 93 l 1
 419 2 l 1
 294 164 l 1
 112 3 l 1
EndSplineSet
EndChar

StartChar: Oslash
Encoding: 216 216 124
Width: 766
VWidth: 0
Flags: HMW
LayerCount: 2
Fore
SplineSet
240 350 m 0
 222 240 271 141 390 140 c 0
 510 138 602 233 622 350 c 0
 640 460 591 559 472 560 c 0
 352 562 260 467 240 350 c 0
64 350 m 0
 96 558 273 716 488 716 c 0
 698 716 827 550 798 350 c 0
 766 142 588 -22 372 -22 c 0
 160 -22 35 150 64 350 c 0
774 756 m 1
 840 700 l 1
 82 -56 l 1
 19 -4 l 1
 774 756 l 1
EndSplineSet
EndChar

StartChar: Thorn
Encoding: 222 222 125
Width: 593
VWidth: 0
Flags: HMW
LayerCount: 2
Fore
SplineSet
168 700 m 1
 315 700 l 1
 195 0 l 1
 50 0 l 1
 168 700 l 1
216 446 m 1
 240 579 l 1
 368 579 l 1
 525 577 622 494 600 352 c 0
 578 208 463 130 301 128 c 1
 162 128 l 1
 185 261 l 1
 314 261 l 1
 384 263 440 288 452 354 c 0
 464 418 420 444 354 446 c 1
 216 446 l 1
EndSplineSet
EndChar

StartChar: divide
Encoding: 247 247 126
Width: 620
VWidth: 0
Flags: HMW
LayerCount: 2
Fore
SplineSet
284 554 m 0
 290 602 338 646 390 646 c 0
 442 646 476 601 470 552 c 0
 464 504 417 462 365 462 c 0
 313 462 278 505 284 554 c 0
207 99 m 0
 213 147 260 190 312 190 c 0
 364 190 398 146 392 97 c 0
 386 49 339 6 287 6 c 0
 235 6 201 50 207 99 c 0
41 260 m 1
 65 396 l 1
 638 396 l 1
 614 259 l 1
 41 260 l 1
EndSplineSet
EndChar

StartChar: oslash
Encoding: 248 248 127
Width: 529
VWidth: 0
Flags: HMW
LayerCount: 2
Fore
SplineSet
42 230 m 0
 63 374 188 470 334 470 c 0
 476 470 575 372 555 230 c 0
 534 86 408 -10 262 -10 c 0
 120 -10 22 88 42 230 c 0
182 230 m 0
 172 164 208 111 274 110 c 0
 341 109 403 160 414 230 c 0
 424 292 388 349 323 350 c 0
 257 351 194 296 182 230 c 0
498 506 m 1
 552 470 l 1
 87 -50 l 1
 33 -16 l 1
 498 506 l 1
EndSplineSet
EndChar

StartChar: circumflex
Encoding: 710 710 128
Width: 465
VWidth: 0
Flags: HMW
LayerCount: 2
Fore
SplineSet
316 628 m 1
 214 544 l 1
 118 618 l 1
 330 755 l 1
 503 612 l 1
 390 544 l 1
 316 628 l 1
EndSplineSet
EndChar

StartChar: ogonek
Encoding: 731 731 129
Width: 252
VWidth: 0
Flags: HMW
LayerCount: 2
Fore
SplineSet
153 -111 m 1
 176 -182 l 1
 154 -202 122 -220 75 -220 c 0
 13 -220 -34 -181 -27 -119 c 0
 -18 -49 61 -8 127 25 c 1
 167 0 l 1
 123 -26 80 -56 74 -94 c 0
 72 -114 79 -128 100 -130 c 0
 118 -132 139 -121 153 -111 c 1
EndSplineSet
EndChar

StartChar: tilde
Encoding: 732 732 130
Width: 514
VWidth: 0
Flags: HMW
LayerCount: 2
Fore
SplineSet
152 639 m 1
 172 685 218 734 280 732 c 0
 334 731 355 679 405 681 c 0
 433 682 456 707 477 733 c 1
 540 658 l 1
 514 620 458 572 398 574 c 0
 349 576 318 629 272 626 c 0
 238 624 225 594 217 576 c 1
 152 639 l 1
EndSplineSet
EndChar

StartChar: ring
Encoding: 730 730 131
Width: 317
VWidth: 0
Flags: HMW
LayerCount: 2
Fore
SplineSet
141 770 m 0
 150 836 210 884 278 884 c 0
 346 884 395 834 386 768 c 0
 377 702 314 654 246 654 c 0
 178 654 132 704 141 770 c 0
218 768 m 0
 216 744 230 723 252 722 c 0
 276 720 304 745 308 770 c 0
 310 794 296 815 274 816 c 0
 250 818 222 793 218 768 c 0
EndSplineSet
EndChar

StartChar: dotaccent
Encoding: 729 729 132
Width: 291
VWidth: 0
Flags: HMW
LayerCount: 2
Fore
SplineSet
171 814 m 0
 175 860 219 895 266 895 c 0
 314 895 348 859 344 812 c 0
 340 766 297 732 250 732 c 0
 202 732 167 767 171 814 c 0
EndSplineSet
EndChar

StartChar: uni2010
Encoding: 8208 8208 133
Width: 215
VWidth: 0
Flags: HMW
LayerCount: 2
Fore
SplineSet
6 172 m 1
 28 303 l 1
 238 303 l 1
 215 172 l 1
 6 172 l 1
EndSplineSet
EndChar

StartChar: endash
Encoding: 8211 8211 134
Width: 760
VWidth: 0
Flags: HMW
LayerCount: 2
Fore
SplineSet
69 172 m 1
 92 303 l 1
 714 303 l 1
 690 172 l 1
 69 172 l 1
EndSplineSet
EndChar

StartChar: figuredash
Encoding: 8210 8210 135
Width: 608
VWidth: 0
Flags: HMW
LayerCount: 2
Fore
SplineSet
69 172 m 1
 92 303 l 1
 558 303 l 1
 536 172 l 1
 69 172 l 1
EndSplineSet
EndChar

StartChar: emdash
Encoding: 8212 8212 136
Width: 911
VWidth: 0
Flags: HMW
LayerCount: 2
Fore
SplineSet
69 172 m 1
 92 303 l 1
 868 303 l 1
 845 172 l 1
 69 172 l 1
EndSplineSet
EndChar

StartChar: minus
Encoding: 8722 8722 137
Width: 575
VWidth: 0
Flags: HMW
LayerCount: 2
Fore
SplineSet
57 172 m 1
 80 303 l 1
 546 303 l 1
 524 172 l 1
 57 172 l 1
EndSplineSet
EndChar

StartChar: quoteright
Encoding: 8217 8217 138
Width: 321
VWidth: 0
Flags: HMW
LayerCount: 2
Fore
SplineSet
191 700 m 1
 350 700 l 1
 204 446 l 1
 95 446 l 1
 191 700 l 1
EndSplineSet
EndChar

StartChar: quoteleft
Encoding: 8216 8216 139
Width: 321
VWidth: 0
Flags: HMW
LayerCount: 2
Fore
SplineSet
272 445 m 1
 113 446 l 1
 258 700 l 1
 368 700 l 1
 272 445 l 1
EndSplineSet
EndChar

StartChar: quotesinglbase
Encoding: 8218 8218 140
Width: 321
VWidth: 0
Flags: HMW
LayerCount: 2
Fore
SplineSet
95 80 m 1
 253 80 l 1
 108 -174 l 1
 -1 -174 l 1
 95 80 l 1
EndSplineSet
EndChar

StartChar: quotedblleft
Encoding: 8220 8220 141
Width: 545
VWidth: 0
Flags: HMW
LayerCount: 2
Fore
SplineSet
272 445 m 1
 113 446 l 1
 258 700 l 1
 368 700 l 1
 272 445 l 1
496 445 m 1
 337 446 l 1
 482 700 l 1
 592 700 l 1
 496 445 l 1
EndSplineSet
EndChar

StartChar: quotedblright
Encoding: 8221 8221 142
Width: 545
VWidth: 0
Flags: HMW
LayerCount: 2
Fore
SplineSet
191 700 m 1
 350 700 l 1
 204 446 l 1
 95 446 l 1
 191 700 l 1
416 700 m 1
 574 700 l 1
 429 446 l 1
 320 446 l 1
 416 700 l 1
EndSplineSet
EndChar

StartChar: perthousand
Encoding: 8240 8240 143
Width: 1333
VWidth: 0
Flags: HMW
LayerCount: 2
Fore
SplineSet
945 166 m 0
 959 266 1051 350 1157 350 c 0
 1262 350 1329 263 1315 166 c 0
 1301 66 1209 -18 1103 -18 c 0
 998 -18 931 69 945 166 c 0
1067 165 m 0
 1063 134 1081 102 1116 100 c 0
 1152 98 1187 133 1192 167 c 0
 1196 198 1179 230 1144 232 c 0
 1108 234 1072 199 1067 165 c 0
84 534 m 0
 98 634 190 718 296 718 c 0
 401 718 468 631 454 534 c 0
 440 434 349 350 243 350 c 0
 138 350 70 437 84 534 c 0
206 533 m 0
 202 502 221 470 256 468 c 0
 292 466 327 501 332 535 c 0
 336 566 319 598 284 600 c 0
 248 602 211 567 206 533 c 0
504 166 m 0
 518 266 609 350 715 350 c 0
 820 350 887 263 873 166 c 0
 859 66 768 -18 662 -18 c 0
 557 -18 490 69 504 166 c 0
626 165 m 0
 622 134 639 102 674 100 c 0
 710 98 746 133 751 167 c 0
 755 198 737 230 702 232 c 0
 666 234 631 199 626 165 c 0
720 700 m 1
 880 700 l 1
 238 0 l 1
 79 0 l 1
 720 700 l 1
EndSplineSet
EndChar

StartChar: guilsinglleft
Encoding: 8249 8249 144
Width: 339
VWidth: 0
Flags: HMW
LayerCount: 2
Fore
SplineSet
161 256 m 1
 274 62 l 1
 174 0 l 1
 44 260 l 1
 256 508 l 1
 340 442 l 1
 161 256 l 1
EndSplineSet
EndChar

StartChar: guilsinglright
Encoding: 8250 8250 145
Width: 339
VWidth: 0
Flags: HMW
LayerCount: 2
Fore
SplineSet
212 254 m 1
 98 448 l 1
 198 510 l 1
 329 250 l 1
 117 2 l 1
 32 68 l 1
 212 254 l 1
EndSplineSet
EndChar

StartChar: uni2031
Encoding: 8241 8241 146
Width: 1775
VWidth: 0
Flags: HMW
LayerCount: 2
Fore
SplineSet
1386 166 m 0
 1400 266 1492 350 1598 350 c 0
 1703 350 1770 263 1756 166 c 0
 1742 66 1650 -18 1544 -18 c 0
 1439 -18 1372 69 1386 166 c 0
1509 165 m 0
 1505 134 1522 102 1557 100 c 0
 1593 98 1629 133 1634 167 c 0
 1638 198 1621 230 1586 232 c 0
 1550 234 1514 199 1509 165 c 0
945 166 m 0
 959 266 1051 350 1157 350 c 0
 1262 350 1329 263 1315 166 c 0
 1301 66 1209 -18 1103 -18 c 0
 998 -18 931 69 945 166 c 0
1067 165 m 0
 1063 134 1081 102 1116 100 c 0
 1152 98 1187 133 1192 167 c 0
 1196 198 1179 230 1144 232 c 0
 1108 234 1072 199 1067 165 c 0
84 534 m 0
 98 634 190 718 296 718 c 0
 401 718 468 631 454 534 c 0
 440 434 349 350 243 350 c 0
 138 350 70 437 84 534 c 0
206 533 m 0
 202 502 221 470 256 468 c 0
 292 466 327 501 332 535 c 0
 336 566 319 598 284 600 c 0
 248 602 211 567 206 533 c 0
504 166 m 0
 518 266 609 350 715 350 c 0
 820 350 887 263 873 166 c 0
 859 66 768 -18 662 -18 c 0
 557 -18 490 69 504 166 c 0
626 165 m 0
 622 134 639 102 674 100 c 0
 710 98 746 133 751 167 c 0
 755 198 737 230 702 232 c 0
 666 234 631 199 626 165 c 0
720 700 m 1
 880 700 l 1
 238 0 l 1
 79 0 l 1
 720 700 l 1
EndSplineSet
EndChar

StartChar: uni203D
Encoding: 8253 8253 147
Width: 608
VWidth: 0
Flags: HMW
LayerCount: 2
Fore
SplineSet
476 482 m 0
 488 551 443 590 370 590 c 0
 305 591 247 559 208 505 c 1
 118 591 l 1
 180 663 280 718 398 718 c 0
 524 718 635 632 616 500 c 0
 594 352 433 284 306 278 c 1
 298 348 l 1
 379 354 461 404 476 482 c 0
268 504 m 1
 412 504 l 1
 332 202 l 1
 242 202 l 1
 268 504 l 1
174 63 m 0
 180 111 230 148 280 148 c 0
 331 148 368 109 362 61 c 0
 356 13 307 -24 257 -24 c 0
 206 -24 168 15 174 63 c 0
EndSplineSet
EndChar

StartChar: Euro
Encoding: 8364 8364 148
Width: 635
VWidth: 0
Flags: HMW
LayerCount: 2
Fore
SplineSet
89 382 m 1
 104 466 l 1
 583 466 l 1
 568 382 l 1
 89 382 l 1
53 250 m 1
 68 334 l 1
 542 334 l 1
 527 250 l 1
 53 250 l 1
275 350 m 0
 261 236 282 123 391 121 c 0
 449 119 504 147 550 181 c 1
 526 22 l 1
 480 -2 430 -19 376 -19 c 0
 178 -19 106 168 130 350 c 0
 158 543 295 720 493 720 c 0
 545 720 592 703 636 678 c 1
 612 518 l 1
 576 556 532 580 478 580 c 0
 368 580 293 476 275 350 c 0
EndSplineSet
EndChar

StartChar: fraction
Encoding: 8260 8260 149
Width: 708
VWidth: 0
Flags: HMW
LayerCount: 2
Fore
SplineSet
652 700 m 1
 776 699 l 1
 152 0 l 1
 28 0 l 1
 652 700 l 1
EndSplineSet
EndChar

StartChar: onequarter
Encoding: 188 188 150
Width: 797
VWidth: 0
Flags: HMW
LayerCount: 2
Fore
SplineSet
700 700 m 1
 802 699 l 1
 177 0 l 1
 76 0 l 1
 700 700 l 1
92 572 m 1
 108 662 l 1
 314 703 l 1
 240 274 l 1
 142 274 l 1
 198 596 l 1
 92 572 l 1
376 76 m 1
 470 147 l 1
 649 148 l 1
 662 161 l 1
 770 160 l 1
 755 75 l 1
 376 76 l 1
488 105 m 1
 374 72 l 1
 673 420 l 1
 751 420 l 1
 678 0 l 1
 574 0 l 1
 590 96 l 1
 602 102 l 1
 630 265 l 1
 488 105 l 1
EndSplineSet
EndChar

StartChar: onehalf
Encoding: 189 189 151
Width: 867
VWidth: 0
Flags: HMW
LayerCount: 2
Fore
SplineSet
700 700 m 1
 802 699 l 1
 177 0 l 1
 76 0 l 1
 700 700 l 1
92 572 m 1
 108 662 l 1
 314 703 l 1
 240 274 l 1
 142 274 l 1
 198 596 l 1
 92 572 l 1
460 2 m 1
 676 196 l 2
 708 226 742 254 748 290 c 0
 752 315 738 341 706 343 c 0
 665 345 637 306 628 268 c 1
 528 268 l 1
 546 356 611 430 716 430 c 0
 806 430 861 366 850 294 c 0
 843 248 813 212 776 182 c 2
 667 96 l 1
 827 94 l 1
 810 2 l 1
 460 2 l 1
EndSplineSet
EndChar

StartChar: threequarters
Encoding: 190 190 152
Width: 852
VWidth: 0
Flags: HMW
LayerCount: 2
Fore
SplineSet
762 700 m 1
 863 699 l 1
 239 0 l 1
 138 0 l 1
 762 700 l 1
213 484 m 1
 220 528 l 1
 260 532 300 551 306 586 c 0
 309 608 296 626 270 626 c 0
 238 626 216 604 208 578 c 1
 114 578 l 1
 131 650 190 708 276 708 c 0
 356 708 416 660 405 591 c 0
 392 512 301 486 213 484 c 1
206 270 m 0
 111 270 63 336 67 414 c 1
 164 414 l 1
 164 378 179 354 215 352 c 0
 247 350 281 374 285 406 c 0
 293 446 255 461 208 464 c 1
 216 514 l 1
 308 512 397 484 384 394 c 0
 373 318 296 270 206 270 c 0
432 76 m 1
 526 147 l 1
 705 148 l 1
 718 161 l 1
 826 160 l 1
 812 75 l 1
 432 76 l 1
544 105 m 1
 429 72 l 1
 729 420 l 1
 807 420 l 1
 734 0 l 1
 630 0 l 1
 646 96 l 1
 658 102 l 1
 686 265 l 1
 544 105 l 1
EndSplineSet
EndChar

StartChar: uni2150
Encoding: 8528 8528 153
Width: 913
VWidth: 0
Flags: HMW
LayerCount: 2
Fore
SplineSet
677 700 m 1
 801 699 l 1
 177 0 l 1
 52 0 l 1
 677 700 l 1
92 572 m 1
 108 662 l 1
 314 703 l 1
 240 274 l 1
 142 274 l 1
 198 596 l 1
 92 572 l 1
588 326 m 1
 604 420 l 1
 941 420 l 1
 672 0 l 1
 560 0 l 1
 773 324 l 1
 588 326 l 1
EndSplineSet
EndChar

StartChar: uni2151
Encoding: 8529 8529 154
Width: 857
VWidth: 0
Flags: HMW
LayerCount: 2
Fore
SplineSet
670 700 m 1
 794 699 l 1
 171 0 l 1
 46 0 l 1
 670 700 l 1
92 572 m 1
 108 662 l 1
 314 703 l 1
 240 274 l 1
 142 274 l 1
 198 596 l 1
 92 572 l 1
758 276 m 0
 763 312 743 342 705 344 c 0
 666 346 627 312 621 274 c 0
 616 238 636 206 674 204 c 0
 713 202 752 238 758 276 c 0
649 4 m 1
 516 5 l 1
 674 154 l 1
 698 162 l 1
 676 146 658 138 630 138 c 0
 562 138 514 202 522 276 c 0
 534 372 620 432 712 432 c 0
 804 432 871 369 857 274 c 0
 850 228 822 191 792 158 c 1
 649 4 l 1
EndSplineSet
EndChar

StartChar: uni2152
Encoding: 8530 8530 155
Width: 1175
VWidth: 0
Flags: HMW
LayerCount: 2
Fore
SplineSet
670 700 m 1
 794 699 l 1
 171 0 l 1
 46 0 l 1
 670 700 l 1
92 572 m 1
 108 662 l 1
 314 703 l 1
 240 274 l 1
 142 274 l 1
 198 596 l 1
 92 572 l 1
556 298 m 1
 572 388 l 1
 779 430 l 1
 704 1 l 1
 607 1 l 1
 662 324 l 1
 556 298 l 1
908 210 m 0
 902 154 904 82 956 80 c 0
 1010 78 1047 148 1056 210 c 0
 1062 266 1060 338 1008 340 c 0
 954 342 917 272 908 210 c 0
812 210 m 0
 828 328 904 428 1014 428 c 0
 1128 428 1167 324 1153 210 c 0
 1137 91 1062 -8 950 -8 c 0
 838 -8 798 97 812 210 c 0
EndSplineSet
EndChar

StartChar: onethird
Encoding: 8531 8531 156
Width: 847
VWidth: 0
Flags: HMW
LayerCount: 2
Fore
SplineSet
670 700 m 1
 794 699 l 1
 170 0 l 1
 46 0 l 1
 670 700 l 1
92 572 m 1
 108 662 l 1
 314 703 l 1
 240 274 l 1
 142 274 l 1
 198 596 l 1
 92 572 l 1
647 204 m 1
 654 248 l 1
 694 252 734 271 740 306 c 0
 743 328 730 346 704 346 c 0
 672 346 650 324 642 298 c 1
 548 298 l 1
 565 370 624 428 710 428 c 0
 790 428 851 380 840 311 c 0
 827 232 735 206 647 204 c 1
640 -10 m 0
 545 -10 497 56 501 134 c 1
 598 134 l 1
 598 98 613 74 649 72 c 0
 681 70 715 94 719 126 c 0
 727 166 689 181 642 184 c 1
 650 234 l 1
 742 232 831 204 818 114 c 0
 807 38 730 -10 640 -10 c 0
EndSplineSet
EndChar

StartChar: twothirds
Encoding: 8532 8532 157
Width: 977
VWidth: 0
Flags: HMW
LayerCount: 2
Fore
SplineSet
812 700 m 1
 936 699 l 1
 312 0 l 1
 188 0 l 1
 812 700 l 1
46 282 m 1
 262 476 l 2
 294 506 328 534 334 570 c 0
 338 595 324 621 292 623 c 0
 251 625 223 586 214 548 c 1
 114 548 l 1
 132 636 197 710 302 710 c 0
 392 710 448 646 437 574 c 0
 430 528 399 492 362 462 c 2
 253 376 l 1
 413 374 l 1
 397 282 l 1
 46 282 l 1
776 204 m 1
 784 248 l 1
 824 252 864 271 870 306 c 0
 873 328 860 346 834 346 c 0
 802 346 780 324 772 298 c 1
 677 298 l 1
 694 370 754 428 840 428 c 0
 920 428 979 380 968 311 c 0
 955 232 864 206 776 204 c 1
770 -10 m 0
 675 -10 626 56 630 134 c 1
 728 134 l 1
 728 98 742 74 778 72 c 0
 810 70 845 94 849 126 c 0
 857 166 819 181 772 184 c 1
 780 234 l 1
 872 232 960 204 947 114 c 0
 936 38 860 -10 770 -10 c 0
EndSplineSet
EndChar

StartChar: uni2155
Encoding: 8533 8533 158
Width: 836
VWidth: 0
Flags: HMW
LayerCount: 2
Fore
SplineSet
670 700 m 1
 794 699 l 1
 171 0 l 1
 46 0 l 1
 670 700 l 1
92 572 m 1
 108 662 l 1
 314 703 l 1
 240 274 l 1
 142 274 l 1
 198 596 l 1
 92 572 l 1
812 132 m 0
 800 40 710 -10 626 -10 c 0
 558 -10 507 15 467 46 c 1
 517 128 l 1
 545 102 578 84 612 84 c 0
 656 84 700 104 705 144 c 0
 709 182 676 200 640 202 c 0
 602 204 560 192 518 176 c 1
 590 226 l 1
 624 254 663 271 706 270 c 0
 776 268 822 208 812 132 c 0
676 330 m 1
 622 224 l 1
 512 172 l 1
 613 418 l 1
 852 418 l 1
 837 330 l 1
 676 330 l 1
EndSplineSet
EndChar

StartChar: uni2156
Encoding: 8534 8534 159
Width: 975
VWidth: 0
Flags: HMW
LayerCount: 2
Fore
SplineSet
812 700 m 1
 936 699 l 1
 312 0 l 1
 188 0 l 1
 812 700 l 1
46 282 m 1
 262 476 l 2
 294 506 328 534 334 570 c 0
 338 595 324 621 292 623 c 0
 251 625 223 586 214 548 c 1
 114 548 l 1
 132 636 197 710 302 710 c 0
 392 710 448 646 437 574 c 0
 430 528 399 492 362 462 c 2
 253 376 l 1
 413 374 l 1
 397 282 l 1
 46 282 l 1
941 132 m 0
 929 40 839 -10 755 -10 c 0
 687 -10 637 15 597 46 c 1
 646 128 l 1
 674 102 707 84 741 84 c 0
 785 84 829 104 834 144 c 0
 838 182 805 200 769 202 c 0
 731 204 688 192 646 176 c 1
 720 226 l 1
 754 254 792 271 835 270 c 0
 905 268 951 208 941 132 c 0
806 330 m 1
 752 224 l 1
 640 172 l 1
 742 418 l 1
 982 418 l 1
 966 330 l 1
 806 330 l 1
EndSplineSet
EndChar

StartChar: uni2157
Encoding: 8535 8535 160
Width: 903
VWidth: 0
Flags: HMW
LayerCount: 2
Fore
SplineSet
742 700 m 1
 867 699 l 1
 244 0 l 1
 119 0 l 1
 742 700 l 1
210 484 m 1
 217 528 l 1
 257 532 298 551 304 586 c 0
 307 608 293 626 267 626 c 0
 235 626 212 604 204 578 c 1
 110 578 l 1
 127 650 188 708 274 708 c 0
 354 708 413 660 402 591 c 0
 389 512 298 486 210 484 c 1
203 270 m 0
 108 270 60 336 64 414 c 1
 161 414 l 1
 161 378 176 354 212 352 c 0
 244 350 278 374 282 406 c 0
 290 446 252 461 205 464 c 1
 214 514 l 1
 306 512 393 484 380 394 c 0
 369 318 293 270 203 270 c 0
866 132 m 0
 854 40 764 -10 680 -10 c 0
 612 -10 562 15 522 46 c 1
 571 128 l 1
 599 102 632 84 666 84 c 0
 710 84 755 104 760 144 c 0
 764 182 730 200 694 202 c 0
 656 204 614 192 572 176 c 1
 644 226 l 1
 678 254 717 271 760 270 c 0
 830 268 876 208 866 132 c 0
730 330 m 1
 676 224 l 1
 566 172 l 1
 667 418 l 1
 906 418 l 1
 891 330 l 1
 730 330 l 1
EndSplineSet
EndChar

StartChar: uni2158
Encoding: 8536 8536 161
Width: 985
VWidth: 0
Flags: HMW
LayerCount: 2
Fore
SplineSet
801 698 m 1
 925 698 l 1
 302 -0 l 1
 177 -0 l 1
 801 698 l 1
51 356 m 1
 144 427 l 1
 324 428 l 1
 336 441 l 1
 445 440 l 1
 430 355 l 1
 51 356 l 1
162 385 m 1
 48 352 l 1
 347 700 l 1
 426 700 l 1
 353 280 l 1
 248 280 l 1
 264 376 l 1
 276 382 l 1
 304 545 l 1
 162 385 l 1
954 132 m 0
 942 40 852 -10 768 -10 c 0
 700 -10 650 14 610 45 c 1
 660 128 l 1
 688 102 720 82 754 82 c 0
 798 82 843 104 848 144 c 0
 852 182 818 199 782 201 c 0
 744 203 702 192 660 176 c 1
 733 226 l 1
 767 254 805 270 848 269 c 0
 918 267 964 208 954 132 c 0
818 329 m 1
 765 224 l 1
 654 171 l 1
 756 416 l 1
 995 417 l 1
 980 330 l 1
 818 329 l 1
EndSplineSet
EndChar

StartChar: uni2159
Encoding: 8537 8537 162
Width: 845
VWidth: 0
Flags: HMW
LayerCount: 2
Fore
SplineSet
688 700 m 1
 813 699 l 1
 189 0 l 1
 64 0 l 1
 688 700 l 1
92 572 m 1
 108 662 l 1
 314 703 l 1
 240 274 l 1
 142 274 l 1
 198 596 l 1
 92 572 l 1
582 144 m 0
 577 108 598 78 636 76 c 0
 675 74 712 108 718 146 c 0
 723 182 704 214 666 216 c 0
 627 218 588 182 582 144 c 0
692 416 m 1
 824 415 l 1
 666 266 l 1
 642 258 l 1
 664 274 682 282 710 282 c 0
 778 282 826 218 818 144 c 0
 806 48 720 -12 628 -12 c 0
 536 -12 470 51 484 146 c 0
 491 192 518 229 548 262 c 1
 692 416 l 1
EndSplineSet
EndChar

StartChar: uni215A
Encoding: 8538 8538 163
Width: 903
VWidth: 0
Flags: HMW
LayerCount: 2
Fore
SplineSet
764 700 m 1
 889 699 l 1
 266 0 l 1
 140 0 l 1
 764 700 l 1
400 412 m 0
 388 320 300 270 216 270 c 0
 148 270 97 295 57 326 c 1
 106 408 l 1
 134 382 167 364 201 364 c 0
 245 364 289 384 294 424 c 0
 298 462 265 480 229 482 c 0
 191 484 149 472 107 456 c 1
 180 506 l 1
 214 534 252 551 295 550 c 0
 365 548 410 488 400 412 c 0
265 610 m 1
 212 504 l 1
 100 452 l 1
 202 698 l 1
 442 698 l 1
 426 610 l 1
 265 610 l 1
640 144 m 0
 635 108 655 78 693 76 c 0
 732 74 770 108 776 146 c 0
 781 182 762 214 724 216 c 0
 685 218 646 182 640 144 c 0
750 416 m 1
 882 415 l 1
 724 266 l 1
 700 258 l 1
 722 274 740 282 768 282 c 0
 836 282 883 218 875 144 c 0
 863 48 778 -12 686 -12 c 0
 594 -12 527 51 541 146 c 0
 548 192 576 229 606 262 c 1
 750 416 l 1
EndSplineSet
EndChar

StartChar: oneeighth
Encoding: 8539 8539 164
Width: 864
VWidth: 0
Flags: HMW
LayerCount: 2
Fore
SplineSet
688 700 m 1
 813 699 l 1
 189 0 l 1
 64 0 l 1
 688 700 l 1
92 572 m 1
 108 662 l 1
 314 703 l 1
 240 274 l 1
 142 274 l 1
 198 596 l 1
 92 572 l 1
570 320 m 0
 580 389 652 430 724 430 c 0
 794 430 860 388 850 318 c 0
 840 246 762 206 694 206 c 0
 627 206 560 247 570 320 c 0
664 308 m 0
 661 284 673 262 698 261 c 0
 724 260 749 285 753 310 c 0
 756 334 744 355 719 356 c 0
 693 357 668 334 664 308 c 0
521 115 m 0
 531 197 620 238 692 238 c 0
 762 238 840 196 829 113 c 0
 819 37 736 -10 658 -10 c 0
 582 -10 510 39 521 115 c 0
624 128 m 0
 620 98 635 74 665 73 c 0
 695 72 728 98 732 130 c 0
 736 156 718 183 690 184 c 0
 660 185 629 156 624 128 c 0
EndSplineSet
EndChar

StartChar: threeeighths
Encoding: 8540 8540 165
Width: 924
VWidth: 0
Flags: HMW
LayerCount: 2
Fore
SplineSet
749 700 m 1
 874 699 l 1
 249 0 l 1
 125 0 l 1
 749 700 l 1
210 484 m 1
 217 528 l 1
 257 532 298 551 304 586 c 0
 307 608 293 626 267 626 c 0
 235 626 212 604 204 578 c 1
 110 578 l 1
 127 650 188 708 274 708 c 0
 354 708 413 660 402 591 c 0
 389 512 298 486 210 484 c 1
203 270 m 0
 108 270 60 336 64 414 c 1
 161 414 l 1
 161 378 176 354 212 352 c 0
 244 350 278 374 282 406 c 0
 290 446 252 461 205 464 c 1
 214 514 l 1
 306 512 393 484 380 394 c 0
 369 318 293 270 203 270 c 0
630 320 m 0
 640 389 712 430 784 430 c 0
 854 430 920 388 910 318 c 0
 900 246 822 206 754 206 c 0
 687 206 620 247 630 320 c 0
724 308 m 0
 721 284 733 262 758 261 c 0
 784 260 810 285 814 310 c 0
 817 334 804 355 779 356 c 0
 753 357 728 334 724 308 c 0
581 115 m 0
 591 197 680 238 752 238 c 0
 822 238 900 196 889 113 c 0
 879 37 796 -10 718 -10 c 0
 642 -10 570 39 581 115 c 0
684 128 m 0
 680 98 695 74 725 73 c 0
 755 72 788 98 792 130 c 0
 796 156 778 183 750 184 c 0
 720 185 689 156 684 128 c 0
EndSplineSet
EndChar

StartChar: fiveeighths
Encoding: 8541 8541 166
Width: 940
VWidth: 0
Flags: HMW
LayerCount: 2
Fore
SplineSet
764 700 m 1
 889 699 l 1
 266 0 l 1
 140 0 l 1
 764 700 l 1
394 412 m 0
 382 320 294 270 210 270 c 0
 142 270 91 295 51 326 c 1
 100 408 l 1
 128 382 161 364 195 364 c 0
 239 364 283 384 288 424 c 0
 292 462 258 480 222 482 c 0
 184 484 142 472 100 456 c 1
 174 506 l 1
 208 534 246 551 289 550 c 0
 359 548 404 488 394 412 c 0
259 610 m 1
 206 504 l 1
 94 452 l 1
 196 698 l 1
 436 698 l 1
 420 610 l 1
 259 610 l 1
646 320 m 0
 656 389 728 430 800 430 c 0
 870 430 935 388 925 318 c 0
 915 246 839 206 771 206 c 0
 704 206 636 247 646 320 c 0
739 308 m 0
 736 284 749 262 774 261 c 0
 800 260 825 285 829 310 c 0
 832 334 820 355 795 356 c 0
 769 357 743 334 739 308 c 0
597 115 m 0
 607 197 696 238 768 238 c 0
 838 238 915 196 904 113 c 0
 894 37 812 -10 734 -10 c 0
 658 -10 586 39 597 115 c 0
700 128 m 0
 696 98 711 74 741 73 c 0
 771 72 804 98 808 130 c 0
 812 156 794 183 766 184 c 0
 736 185 705 156 700 128 c 0
EndSplineSet
EndChar

StartChar: seveneighths
Encoding: 8542 8542 167
Width: 833
VWidth: 0
Flags: HMW
LayerCount: 2
Fore
SplineSet
652 700 m 1
 776 699 l 1
 152 0 l 1
 28 0 l 1
 652 700 l 1
97 606 m 1
 114 700 l 1
 451 700 l 1
 182 280 l 1
 70 280 l 1
 284 604 l 1
 97 606 l 1
540 320 m 0
 550 389 622 430 694 430 c 0
 764 430 828 388 818 318 c 0
 808 246 732 206 664 206 c 0
 597 206 530 247 540 320 c 0
632 308 m 0
 629 284 641 262 666 261 c 0
 692 260 718 285 722 310 c 0
 725 334 713 355 688 356 c 0
 662 357 636 334 632 308 c 0
490 115 m 0
 500 197 589 238 661 238 c 0
 731 238 809 196 798 113 c 0
 788 37 706 -10 628 -10 c 0
 552 -10 479 39 490 115 c 0
593 128 m 0
 589 98 604 74 634 73 c 0
 664 72 697 98 701 130 c 0
 705 156 687 183 659 184 c 0
 629 185 598 156 593 128 c 0
EndSplineSet
EndChar

StartChar: uni2074
Encoding: 8308 8308 168
Width: 413
VWidth: 0
Flags: HMW
LayerCount: 2
Fore
SplineSet
45 356 m 1
 138 427 l 1
 318 428 l 1
 330 441 l 1
 439 440 l 1
 424 355 l 1
 45 356 l 1
156 385 m 1
 42 352 l 1
 342 700 l 1
 419 700 l 1
 347 280 l 1
 242 280 l 1
 258 376 l 1
 270 382 l 1
 298 545 l 1
 156 385 l 1
EndSplineSet
EndChar

StartChar: uni2075
Encoding: 8309 8309 169
Width: 375
VWidth: 0
Flags: HMW
LayerCount: 2
Fore
SplineSet
394 412 m 0
 382 320 294 270 210 270 c 0
 142 270 91 295 51 326 c 1
 100 408 l 1
 128 382 161 364 195 364 c 0
 239 364 283 384 288 424 c 0
 292 462 258 480 222 482 c 0
 184 484 142 472 100 456 c 1
 174 506 l 1
 208 534 246 551 289 550 c 0
 359 548 404 488 394 412 c 0
259 610 m 1
 206 504 l 1
 94 452 l 1
 196 698 l 1
 436 698 l 1
 420 610 l 1
 259 610 l 1
EndSplineSet
EndChar

StartChar: uni2076
Encoding: 8310 8310 170
Width: 371
VWidth: 0
Flags: HMW
LayerCount: 2
Fore
SplineSet
164 424 m 0
 159 388 180 358 218 356 c 0
 257 354 296 388 302 426 c 0
 307 462 286 494 248 496 c 0
 209 498 170 462 164 424 c 0
274 696 m 1
 407 695 l 1
 249 546 l 1
 224 538 l 1
 246 554 264 562 292 562 c 0
 360 562 408 498 400 424 c 0
 388 328 302 268 210 268 c 0
 118 268 52 331 66 426 c 0
 73 472 100 509 130 542 c 1
 274 696 l 1
EndSplineSet
EndChar

StartChar: uni2077
Encoding: 8311 8311 171
Width: 367
VWidth: 0
Flags: HMW
LayerCount: 2
Fore
SplineSet
97 606 m 1
 114 700 l 1
 451 700 l 1
 182 280 l 1
 70 280 l 1
 284 604 l 1
 97 606 l 1
EndSplineSet
EndChar

StartChar: uni2078
Encoding: 8312 8312 172
Width: 351
VWidth: 0
Flags: HMW
LayerCount: 2
Fore
SplineSet
111 600 m 0
 121 669 192 710 264 710 c 0
 334 710 398 668 388 598 c 0
 378 526 302 486 234 486 c 0
 167 486 101 527 111 600 c 0
202 588 m 0
 199 564 212 542 237 541 c 0
 263 540 289 565 293 590 c 0
 296 614 284 635 259 636 c 0
 233 637 206 614 202 588 c 0
61 395 m 0
 71 477 160 518 232 518 c 0
 302 518 379 476 368 393 c 0
 358 317 276 270 198 270 c 0
 122 270 50 319 61 395 c 0
164 408 m 0
 160 378 175 354 205 353 c 0
 235 352 268 378 272 410 c 0
 276 436 258 463 230 464 c 0
 200 465 169 436 164 408 c 0
EndSplineSet
EndChar

StartChar: uni2079
Encoding: 8313 8313 173
Width: 368
VWidth: 0
Flags: HMW
LayerCount: 2
Fore
SplineSet
324 556 m 0
 329 592 309 622 271 624 c 0
 232 626 194 592 188 554 c 0
 183 518 203 486 241 484 c 0
 280 482 318 518 324 556 c 0
215 284 m 1
 82 285 l 1
 240 434 l 1
 264 442 l 1
 242 426 224 418 196 418 c 0
 128 418 81 482 89 556 c 0
 101 652 186 712 278 712 c 0
 370 712 438 649 424 554 c 0
 417 508 388 471 358 438 c 1
 215 284 l 1
EndSplineSet
EndChar

StartChar: uni2070
Encoding: 8304 8304 174
Width: 378
VWidth: 0
Flags: HMW
LayerCount: 2
Fore
SplineSet
172 490 m 0
 166 434 168 362 220 360 c 0
 274 358 311 428 320 490 c 0
 326 546 324 618 272 620 c 0
 218 622 181 552 172 490 c 0
76 490 m 0
 92 608 168 708 278 708 c 0
 392 708 431 604 417 490 c 0
 401 371 326 272 214 272 c 0
 102 272 62 377 76 490 c 0
EndSplineSet
EndChar

StartChar: uni2080
Encoding: 8320 8320 175
Width: 378
VWidth: 0
Flags: HMW
LayerCount: 2
Fore
SplineSet
124 210 m 0
 118 154 120 82 172 80 c 0
 226 78 263 148 272 210 c 0
 278 266 276 338 224 340 c 0
 170 342 133 272 124 210 c 0
28 210 m 0
 44 328 121 428 231 428 c 0
 345 428 383 324 369 210 c 0
 353 91 278 -8 166 -8 c 0
 54 -8 14 97 28 210 c 0
EndSplineSet
EndChar

StartChar: uni2084
Encoding: 8324 8324 176
Width: 418
VWidth: 0
Flags: HMW
LayerCount: 2
Fore
SplineSet
-4 76 m 1
 89 147 l 1
 268 148 l 1
 280 161 l 1
 390 160 l 1
 374 75 l 1
 -4 76 l 1
108 105 m 1
 -8 72 l 1
 292 420 l 1
 370 420 l 1
 298 0 l 1
 193 0 l 1
 210 96 l 1
 222 102 l 1
 250 265 l 1
 108 105 l 1
EndSplineSet
EndChar

StartChar: uni2085
Encoding: 8325 8325 177
Width: 384
VWidth: 0
Flags: HMW
LayerCount: 2
Fore
SplineSet
350 132 m 0
 338 40 248 -10 164 -10 c 0
 96 -10 46 15 6 46 c 1
 56 128 l 1
 84 102 116 84 150 84 c 0
 194 84 239 104 244 144 c 0
 248 182 214 200 178 202 c 0
 140 204 98 192 56 176 c 1
 128 226 l 1
 162 254 201 271 244 270 c 0
 314 268 360 208 350 132 c 0
214 330 m 1
 160 224 l 1
 50 172 l 1
 152 418 l 1
 391 418 l 1
 376 330 l 1
 214 330 l 1
EndSplineSet
EndChar

StartChar: uni2086
Encoding: 8326 8326 178
Width: 382
VWidth: 0
Flags: HMW
LayerCount: 2
Fore
SplineSet
120 144 m 0
 115 108 136 78 174 76 c 0
 213 74 251 108 257 146 c 0
 262 182 242 214 204 216 c 0
 165 218 126 182 120 144 c 0
230 416 m 1
 362 415 l 1
 204 266 l 1
 180 258 l 1
 202 274 220 282 248 282 c 0
 316 282 364 218 356 144 c 0
 344 48 258 -12 166 -12 c 0
 74 -12 8 51 22 146 c 0
 29 192 56 229 86 262 c 1
 230 416 l 1
EndSplineSet
EndChar

StartChar: uni2087
Encoding: 8327 8327 179
Width: 372
VWidth: 0
Flags: HMW
LayerCount: 2
Fore
SplineSet
53 326 m 1
 70 420 l 1
 407 420 l 1
 138 0 l 1
 26 0 l 1
 239 324 l 1
 53 326 l 1
EndSplineSet
EndChar

StartChar: uni2088
Encoding: 8328 8328 180
Width: 356
VWidth: 0
Flags: HMW
LayerCount: 2
Fore
SplineSet
67 320 m 0
 77 389 148 430 220 430 c 0
 290 430 355 388 345 318 c 0
 335 246 258 206 190 206 c 0
 123 206 57 247 67 320 c 0
160 308 m 0
 157 284 169 262 194 261 c 0
 220 260 245 285 249 310 c 0
 252 334 240 355 215 356 c 0
 189 357 164 334 160 308 c 0
18 115 m 0
 28 197 116 238 188 238 c 0
 258 238 335 196 324 113 c 0
 314 37 232 -10 154 -10 c 0
 78 -10 7 39 18 115 c 0
120 128 m 0
 116 98 131 74 161 73 c 0
 191 72 224 98 228 130 c 0
 232 156 214 183 186 184 c 0
 156 185 125 156 120 128 c 0
EndSplineSet
EndChar

StartChar: uni2089
Encoding: 8329 8329 181
Width: 386
VWidth: 0
Flags: HMW
LayerCount: 2
Fore
SplineSet
278 276 m 0
 283 312 263 342 225 344 c 0
 186 346 147 312 141 274 c 0
 136 238 156 206 194 204 c 0
 233 202 272 238 278 276 c 0
168 4 m 1
 36 5 l 1
 194 154 l 1
 219 162 l 1
 197 146 178 138 150 138 c 0
 82 138 35 202 43 276 c 0
 55 372 140 432 232 432 c 0
 324 432 392 369 378 274 c 0
 371 228 342 191 312 158 c 1
 168 4 l 1
EndSplineSet
EndChar

StartChar: uni2081
Encoding: 8321 8321 182
Width: 349
VWidth: 0
Flags: HMW
LayerCount: 2
Fore
SplineSet
110 298 m 1
 126 388 l 1
 332 430 l 1
 258 1 l 1
 160 1 l 1
 214 324 l 1
 110 298 l 1
EndSplineSet
EndChar

StartChar: uni2082
Encoding: 8322 8322 183
Width: 398
VWidth: 0
Flags: HMW
LayerCount: 2
Fore
SplineSet
-3 2 m 1
 212 196 l 2
 244 226 278 254 284 290 c 0
 288 315 275 341 243 343 c 0
 202 345 173 306 164 268 c 1
 65 268 l 1
 83 356 147 430 252 430 c 0
 342 430 399 366 388 294 c 0
 381 248 349 212 312 182 c 2
 203 96 l 1
 363 94 l 1
 347 2 l 1
 -3 2 l 1
EndSplineSet
EndChar

StartChar: uni2083
Encoding: 8323 8323 184
Width: 360
VWidth: 0
Flags: HMW
LayerCount: 2
Fore
SplineSet
161 204 m 1
 168 248 l 1
 208 252 249 271 255 306 c 0
 258 328 244 346 218 346 c 0
 186 346 164 324 156 298 c 1
 62 298 l 1
 79 370 139 428 225 428 c 0
 305 428 365 380 354 311 c 0
 341 232 249 206 161 204 c 1
154 -10 m 0
 59 -10 11 56 15 134 c 1
 113 134 l 1
 113 98 128 74 164 72 c 0
 196 70 230 94 234 126 c 0
 242 166 203 181 156 184 c 1
 164 234 l 1
 256 232 345 204 332 114 c 0
 321 38 244 -10 154 -10 c 0
EndSplineSet
EndChar

StartChar: Agrave
Encoding: 192 192 185
Width: 712
VWidth: 0
Flags: HMW
LayerCount: 2
Fore
SplineSet
174 136 m 1
 207 264 l 1
 546 264 l 1
 535 135 l 1
 174 136 l 1
408 442 m 1
 274 216 l 1
 275 178 l 1
 161 0 l 1
 -32 0 l 1
 456 746 l 1
 686 0 l 1
 502 0 l 1
 448 172 l 1
 462 216 l 1
 408 442 l 1
336 956 m 1
 454 1008 l 1
 575 844 l 1
 488 804 l 1
 336 956 l 1
EndSplineSet
EndChar

StartChar: Aacute
Encoding: 193 193 186
Width: 712
VWidth: 0
Flags: HMW
LayerCount: 2
Fore
SplineSet
174 136 m 1
 207 264 l 1
 546 264 l 1
 535 135 l 1
 174 136 l 1
408 442 m 1
 274 216 l 1
 275 178 l 1
 161 0 l 1
 -32 0 l 1
 456 746 l 1
 686 0 l 1
 502 0 l 1
 448 172 l 1
 462 216 l 1
 408 442 l 1
648 951 m 1
 450 805 l 1
 368 850 l 1
 539 1006 l 1
 648 951 l 1
EndSplineSet
EndChar

StartChar: Acircumflex
Encoding: 194 194 187
Width: 712
VWidth: 0
Flags: HMW
LayerCount: 2
Fore
SplineSet
174 136 m 1
 207 264 l 1
 546 264 l 1
 535 135 l 1
 174 136 l 1
408 442 m 1
 274 216 l 1
 275 178 l 1
 161 0 l 1
 -32 0 l 1
 456 746 l 1
 686 0 l 1
 502 0 l 1
 448 172 l 1
 462 216 l 1
 408 442 l 1
483 874 m 1
 379 790 l 1
 284 864 l 1
 497 1001 l 1
 668 858 l 1
 556 788 l 1
 483 874 l 1
EndSplineSet
EndChar

StartChar: Atilde
Encoding: 195 195 188
Width: 712
VWidth: 0
Flags: HMW
LayerCount: 2
Fore
SplineSet
174 136 m 1
 207 264 l 1
 546 264 l 1
 535 135 l 1
 174 136 l 1
408 442 m 1
 274 216 l 1
 275 178 l 1
 161 0 l 1
 -32 0 l 1
 456 746 l 1
 686 0 l 1
 502 0 l 1
 448 172 l 1
 462 216 l 1
 408 442 l 1
285 864 m 1
 306 910 352 958 414 956 c 0
 468 955 488 904 538 906 c 0
 566 907 590 932 612 958 c 1
 672 882 l 1
 646 844 591 796 531 798 c 0
 483 800 450 854 404 851 c 0
 370 849 356 819 348 801 c 1
 285 864 l 1
EndSplineSet
EndChar

StartChar: Adieresis
Encoding: 196 196 189
Width: 712
VWidth: 0
Flags: HMW
LayerCount: 2
Fore
SplineSet
174 136 m 1
 207 264 l 1
 546 264 l 1
 535 135 l 1
 174 136 l 1
408 442 m 1
 274 216 l 1
 275 178 l 1
 161 0 l 1
 -32 0 l 1
 456 746 l 1
 686 0 l 1
 502 0 l 1
 448 172 l 1
 462 216 l 1
 408 442 l 1
521 832 m 0
 527 877 572 912 618 912 c 0
 664 912 700 874 694 828 c 0
 688 783 642 748 596 748 c 0
 550 748 515 786 521 832 c 0
243 838 m 0
 249 883 295 918 341 918 c 0
 387 918 422 881 416 835 c 0
 410 790 365 754 319 754 c 0
 273 754 237 792 243 838 c 0
EndSplineSet
EndChar

StartChar: Aring
Encoding: 197 197 190
Width: 712
VWidth: 0
Flags: HMW
LayerCount: 2
Fore
SplineSet
174 136 m 1
 207 264 l 1
 546 264 l 1
 535 135 l 1
 174 136 l 1
408 442 m 1
 274 216 l 1
 275 178 l 1
 161 0 l 1
 -32 0 l 1
 456 746 l 1
 686 0 l 1
 502 0 l 1
 448 172 l 1
 462 216 l 1
 408 442 l 1
344 801 m 0
 353 867 414 916 482 916 c 0
 550 916 598 865 589 799 c 0
 580 733 518 686 450 686 c 0
 382 686 335 735 344 801 c 0
421 800 m 0
 419 776 433 755 455 754 c 0
 479 752 507 776 511 801 c 0
 513 825 498 847 476 848 c 0
 452 850 425 825 421 800 c 0
EndSplineSet
EndChar

StartChar: AE
Encoding: 198 198 191
Width: 1052
VWidth: 0
Flags: HMW
LayerCount: 2
Fore
SplineSet
259 151 m 1
 292 306 l 1
 586 306 l 1
 559 151 l 1
 259 151 l 1
521 700 m 1
 671 658 l 1
 198 0 l 1
 -16 0 l 1
 521 700 l 1
584 0 m 1
 608 139 l 1
 984 139 l 1
 960 0 l 1
 584 0 l 1
692 561 m 1
 521 700 l 1
 1079 700 l 1
 1055 561 l 1
 692 561 l 1
635 300 m 1
 658 436 l 1
 1015 436 l 1
 991 299 l 1
 635 300 l 1
624 700 m 1
 804 700 l 1
 684 0 l 1
 504 0 l 1
 624 700 l 1
EndSplineSet
EndChar

StartChar: Ccedilla
Encoding: 199 199 192
Width: 679
VWidth: 0
Flags: HMW
LayerCount: 2
Fore
SplineSet
246 350 m 0
 228 236 294 148 408 146 c 0
 500 145 572 189 630 237 c 1
 603 54 l 1
 541 12 473 -16 381 -16 c 0
 165 -16 34 146 64 350 c 0
 96 560 276 716 496 716 c 0
 584 716 645 690 701 645 c 1
 673 462 l 1
 631 516 574 554 488 554 c 0
 372 554 266 470 246 350 c 0
325 47 m 1
 438 44 l 1
 330 -78 l 1
 340 -76 350 -74 362 -74 c 0
 408 -76 447 -115 440 -172 c 0
 431 -240 360 -279 297 -280 c 0
 244 -281 202 -268 158 -240 c 1
 212 -173 l 1
 234 -188 262 -198 284 -198 c 0
 310 -198 344 -186 346 -162 c 0
 348 -138 318 -130 296 -130 c 0
 276 -129 242 -136 210 -146 c 1
 325 47 l 1
EndSplineSet
EndChar

StartChar: Egrave
Encoding: 200 200 193
Width: 585
VWidth: 0
Flags: HMW
LayerCount: 2
Fore
SplineSet
152 0 m 1
 176 139 l 1
 522 139 l 1
 498 0 l 1
 152 0 l 1
248 561 m 1
 272 700 l 1
 618 700 l 1
 594 561 l 1
 248 561 l 1
204 300 m 1
 227 436 l 1
 553 436 l 1
 529 299 l 1
 204 300 l 1
162 700 m 1
 324 700 l 1
 204 0 l 1
 44 0 l 1
 162 700 l 1
273 934 m 1
 391 986 l 1
 512 822 l 1
 426 782 l 1
 273 934 l 1
EndSplineSet
EndChar

StartChar: Eacute
Encoding: 201 201 194
Width: 585
VWidth: 0
Flags: HMW
LayerCount: 2
Fore
SplineSet
152 0 m 1
 176 139 l 1
 522 139 l 1
 498 0 l 1
 152 0 l 1
248 561 m 1
 272 700 l 1
 618 700 l 1
 594 561 l 1
 248 561 l 1
204 300 m 1
 227 436 l 1
 553 436 l 1
 529 299 l 1
 204 300 l 1
162 700 m 1
 324 700 l 1
 204 0 l 1
 44 0 l 1
 162 700 l 1
584 929 m 1
 387 783 l 1
 306 828 l 1
 476 984 l 1
 584 929 l 1
EndSplineSet
EndChar

StartChar: Ecircumflex
Encoding: 202 202 195
Width: 585
VWidth: 0
Flags: HMW
LayerCount: 2
Fore
SplineSet
152 0 m 1
 176 139 l 1
 522 139 l 1
 498 0 l 1
 152 0 l 1
248 561 m 1
 272 700 l 1
 618 700 l 1
 594 561 l 1
 248 561 l 1
204 300 m 1
 227 436 l 1
 553 436 l 1
 529 299 l 1
 204 300 l 1
162 700 m 1
 324 700 l 1
 204 0 l 1
 44 0 l 1
 162 700 l 1
429 883 m 1
 305 789 l 1
 259 832 l 1
 436 969 l 1
 572 827 l 1
 519 789 l 1
 429 883 l 1
EndSplineSet
EndChar

StartChar: Edieresis
Encoding: 203 203 196
Width: 585
VWidth: 0
Flags: HMW
LayerCount: 2
Fore
SplineSet
152 0 m 1
 176 139 l 1
 522 139 l 1
 498 0 l 1
 152 0 l 1
248 561 m 1
 272 700 l 1
 618 700 l 1
 594 561 l 1
 248 561 l 1
204 300 m 1
 227 436 l 1
 553 436 l 1
 529 299 l 1
 204 300 l 1
162 700 m 1
 324 700 l 1
 204 0 l 1
 44 0 l 1
 162 700 l 1
454 867 m 0
 460 912 505 947 551 947 c 0
 597 947 633 910 627 864 c 0
 621 819 575 784 529 784 c 0
 483 784 448 821 454 867 c 0
218 867 m 0
 224 912 268 947 314 947 c 0
 360 947 396 910 390 864 c 0
 384 819 339 784 293 784 c 0
 247 784 212 821 218 867 c 0
EndSplineSet
EndChar

StartChar: Igrave
Encoding: 204 204 197
Width: 310
VWidth: 0
Flags: HMW
LayerCount: 2
Fore
SplineSet
162 700 m 1
 333 700 l 1
 212 0 l 1
 44 0 l 1
 162 700 l 1
124 934 m 1
 243 986 l 1
 364 822 l 1
 277 782 l 1
 124 934 l 1
EndSplineSet
EndChar

StartChar: Iacute
Encoding: 205 205 198
Width: 310
VWidth: 0
Flags: HMW
LayerCount: 2
Fore
SplineSet
162 700 m 1
 333 700 l 1
 212 0 l 1
 44 0 l 1
 162 700 l 1
436 929 m 1
 238 783 l 1
 158 828 l 1
 328 984 l 1
 436 929 l 1
EndSplineSet
EndChar

StartChar: Icircumflex
Encoding: 206 206 199
Width: 310
VWidth: 0
Flags: HMW
LayerCount: 2
Fore
SplineSet
162 700 m 1
 333 700 l 1
 212 0 l 1
 44 0 l 1
 162 700 l 1
280 872 m 1
 166 782 l 1
 92 841 l 1
 287 978 l 1
 441 836 l 1
 361 782 l 1
 280 872 l 1
EndSplineSet
EndChar

StartChar: Idieresis
Encoding: 207 207 200
Width: 310
VWidth: 0
Flags: HMW
LayerCount: 2
Fore
SplineSet
162 700 m 1
 333 700 l 1
 212 0 l 1
 44 0 l 1
 162 700 l 1
307 860 m 0
 313 905 358 940 404 940 c 0
 450 940 486 903 480 857 c 0
 474 812 428 776 382 776 c 0
 335 776 301 814 307 860 c 0
70 860 m 0
 76 905 121 940 167 940 c 0
 213 940 250 903 244 857 c 0
 238 812 192 776 146 776 c 0
 99 776 64 814 70 860 c 0
EndSplineSet
EndChar

StartChar: Ntilde
Encoding: 209 209 201
Width: 769
VWidth: 0
Flags: HMW
LayerCount: 2
Fore
SplineSet
632 700 m 1
 792 700 l 1
 668 -34 l 1
 272 394 l 1
 204 0 l 1
 43 0 l 1
 168 734 l 1
 564 306 l 1
 632 700 l 1
280 835 m 1
 301 881 347 930 409 928 c 0
 463 927 482 874 532 876 c 0
 560 877 584 902 606 928 c 1
 667 852 l 1
 641 814 586 768 526 770 c 0
 478 772 445 825 399 822 c 0
 365 820 352 790 344 772 c 1
 280 835 l 1
EndSplineSet
EndChar

StartChar: Eth
Encoding: 208 208 202
Width: 711
VWidth: 0
Flags: HMW
LayerCount: 2
Fore
SplineSet
29 302 m 1
 46 402 l 1
 388 402 l 1
 371 302 l 1
 29 302 l 1
162 700 m 1
 336 700 l 1
 216 0 l 1
 44 0 l 1
 162 700 l 1
292 0 m 1
 152 0 l 1
 178 151 l 1
 302 151 l 1
 418 153 518 218 540 350 c 0
 560 478 493 546 380 549 c 1
 246 550 l 1
 272 700 l 1
 402 700 l 1
 618 697 742 554 712 350 c 0
 680 140 513 2 292 0 c 1
EndSplineSet
EndChar

StartChar: Ograve
Encoding: 210 210 203
Width: 796
VWidth: 0
Flags: HMW
LayerCount: 2
Fore
SplineSet
240 350 m 0
 223 242 272 142 390 140 c 0
 510 138 602 235 622 350 c 0
 640 458 592 559 472 560 c 0
 352 561 260 465 240 350 c 0
64 350 m 0
 96 558 275 716 488 716 c 0
 699 716 827 550 798 350 c 0
 766 142 590 -22 372 -22 c 0
 158 -22 35 150 64 350 c 0
387 934 m 1
 505 986 l 1
 626 822 l 1
 540 782 l 1
 387 934 l 1
EndSplineSet
EndChar

StartChar: Oacute
Encoding: 211 211 204
Width: 796
VWidth: 0
Flags: HMW
LayerCount: 2
Fore
SplineSet
240 350 m 0
 223 242 272 142 390 140 c 0
 510 138 602 235 622 350 c 0
 640 458 592 559 472 560 c 0
 352 561 260 465 240 350 c 0
64 350 m 0
 96 558 275 716 488 716 c 0
 699 716 827 550 798 350 c 0
 766 142 590 -22 372 -22 c 0
 158 -22 35 150 64 350 c 0
690 929 m 1
 493 783 l 1
 412 828 l 1
 582 984 l 1
 690 929 l 1
EndSplineSet
EndChar

StartChar: Ocircumflex
Encoding: 212 212 205
Width: 796
VWidth: 0
Flags: HMW
LayerCount: 2
Fore
SplineSet
240 350 m 0
 223 242 272 142 390 140 c 0
 510 138 602 235 622 350 c 0
 640 458 592 559 472 560 c 0
 352 561 260 465 240 350 c 0
64 350 m 0
 96 558 275 716 488 716 c 0
 699 716 827 550 798 350 c 0
 766 142 590 -22 372 -22 c 0
 158 -22 35 150 64 350 c 0
536 883 m 1
 412 789 l 1
 366 832 l 1
 543 969 l 1
 678 827 l 1
 626 789 l 1
 536 883 l 1
EndSplineSet
EndChar

StartChar: Otilde
Encoding: 213 213 206
Width: 796
VWidth: 0
Flags: HMW
LayerCount: 2
Fore
SplineSet
240 350 m 0
 223 242 272 142 390 140 c 0
 510 138 602 235 622 350 c 0
 640 458 592 559 472 560 c 0
 352 561 260 465 240 350 c 0
64 350 m 0
 96 558 275 716 488 716 c 0
 699 716 827 550 798 350 c 0
 766 142 590 -22 372 -22 c 0
 158 -22 35 150 64 350 c 0
357 844 m 1
 357 888 432 924 468 924 c 0
 520 924 535 876 581 878 c 0
 605 879 625 901 645 925 c 1
 686 880 l 1
 664 846 622 808 574 810 c 0
 528 812 507 857 465 856 c 0
 429 855 414 823 406 805 c 1
 357 844 l 1
EndSplineSet
EndChar

StartChar: Odieresis
Encoding: 214 214 207
Width: 796
VWidth: 0
Flags: HMW
LayerCount: 2
Fore
SplineSet
240 350 m 0
 223 242 272 142 390 140 c 0
 510 138 602 235 622 350 c 0
 640 458 592 559 472 560 c 0
 352 561 260 465 240 350 c 0
64 350 m 0
 96 558 275 716 488 716 c 0
 699 716 827 550 798 350 c 0
 766 142 590 -22 372 -22 c 0
 158 -22 35 150 64 350 c 0
550 860 m 0
 556 905 601 940 647 940 c 0
 693 940 729 903 723 857 c 0
 717 812 671 776 625 776 c 0
 579 776 544 814 550 860 c 0
314 860 m 0
 320 905 364 940 410 940 c 0
 456 940 492 903 486 857 c 0
 480 812 435 776 389 776 c 0
 343 776 308 814 314 860 c 0
EndSplineSet
EndChar

StartChar: Ugrave
Encoding: 217 217 208
Width: 680
VWidth: 0
Flags: HMW
LayerCount: 2
Fore
SplineSet
158 700 m 1
 325 700 l 1
 245 242 l 2
 237 180 258 126 330 124 c 0
 403 122 450 176 462 242 c 1
 541 700 l 1
 708 700 l 1
 628 230 l 2
 601 68 473 -28 313 -28 c 0
 157 -28 57 70 78 230 c 1
 158 700 l 1
315 928 m 1
 433 979 l 1
 554 816 l 1
 468 776 l 1
 315 928 l 1
EndSplineSet
EndChar

StartChar: Uacute
Encoding: 218 218 209
Width: 680
VWidth: 0
Flags: HMW
LayerCount: 2
Fore
SplineSet
158 700 m 1
 325 700 l 1
 245 242 l 2
 237 180 258 126 330 124 c 0
 403 122 450 176 462 242 c 1
 541 700 l 1
 708 700 l 1
 628 230 l 2
 601 68 473 -28 313 -28 c 0
 157 -28 57 70 78 230 c 1
 158 700 l 1
629 923 m 1
 432 777 l 1
 350 822 l 1
 520 978 l 1
 629 923 l 1
EndSplineSet
EndChar

StartChar: Ucircumflex
Encoding: 219 219 210
Width: 680
VWidth: 0
Flags: HMW
LayerCount: 2
Fore
SplineSet
158 700 m 1
 325 700 l 1
 245 242 l 2
 237 180 258 126 330 124 c 0
 403 122 450 176 462 242 c 1
 541 700 l 1
 708 700 l 1
 628 230 l 2
 601 68 473 -28 313 -28 c 0
 157 -28 57 70 78 230 c 1
 158 700 l 1
464 861 m 1
 360 776 l 1
 266 850 l 1
 478 988 l 1
 650 845 l 1
 538 776 l 1
 464 861 l 1
EndSplineSet
EndChar

StartChar: Udieresis
Encoding: 220 220 211
Width: 680
VWidth: 0
Flags: HMW
LayerCount: 2
Fore
SplineSet
158 700 m 1
 325 700 l 1
 245 242 l 2
 237 180 258 126 330 124 c 0
 403 122 450 176 462 242 c 1
 541 700 l 1
 708 700 l 1
 628 230 l 2
 601 68 473 -28 313 -28 c 0
 157 -28 57 70 78 230 c 1
 158 700 l 1
510 860 m 0
 516 905 561 940 607 940 c 0
 653 940 688 903 682 857 c 0
 676 812 631 776 585 776 c 0
 539 776 504 814 510 860 c 0
236 860 m 0
 242 905 288 940 334 940 c 0
 380 940 416 903 410 857 c 0
 404 812 358 776 312 776 c 0
 266 776 230 814 236 860 c 0
EndSplineSet
EndChar

StartChar: Yacute
Encoding: 221 221 212
Width: 640
VWidth: 0
Flags: HMW
LayerCount: 2
Fore
SplineSet
608 923 m 1
 412 776 l 1
 330 822 l 1
 501 978 l 1
 608 923 l 1
542 700 m 1
 738 700 l 1
 426 281 l 1
 378 0 l 1
 208 0 l 1
 259 288 l 1
 92 700 l 1
 280 700 l 1
 366 440 l 1
 542 700 l 1
EndSplineSet
EndChar

StartChar: agrave
Encoding: 224 224 213
Width: 597
VWidth: 0
Flags: HMW
LayerCount: 2
Fore
SplineSet
447 460 m 1
 596 460 l 1
 516 0 l 1
 368 0 l 1
 447 460 l 1
42 230 m 0
 60 367 169 470 291 470 c 0
 415 470 465 355 449 230 c 0
 431 98 341 -10 219 -10 c 0
 97 -10 25 98 42 230 c 0
198 230 m 0
 189 170 218 113 280 112 c 0
 338 111 396 165 406 230 c 0
 414 291 384 346 328 348 c 0
 266 350 208 294 198 230 c 0
218 683 m 1
 335 734 l 1
 456 570 l 1
 370 531 l 1
 218 683 l 1
EndSplineSet
Substitution2: "alt a" agrave.alt
EndChar

StartChar: aacute
Encoding: 225 225 214
Width: 597
VWidth: 0
Flags: HMW
LayerCount: 2
Fore
SplineSet
447 460 m 1
 596 460 l 1
 516 0 l 1
 368 0 l 1
 447 460 l 1
42 230 m 0
 60 367 169 470 291 470 c 0
 415 470 465 355 449 230 c 0
 431 98 341 -10 219 -10 c 0
 97 -10 25 98 42 230 c 0
198 230 m 0
 189 170 218 113 280 112 c 0
 338 111 396 165 406 230 c 0
 414 291 384 346 328 348 c 0
 266 350 208 294 198 230 c 0
526 678 m 1
 328 532 l 1
 248 576 l 1
 418 732 l 1
 526 678 l 1
EndSplineSet
Substitution2: "alt a" aacute.alt
EndChar

StartChar: acircumflex
Encoding: 226 226 215
Width: 597
VWidth: 0
Flags: HMW
LayerCount: 2
Fore
SplineSet
447 460 m 1
 596 460 l 1
 516 0 l 1
 368 0 l 1
 447 460 l 1
42 230 m 0
 60 367 169 470 291 470 c 0
 415 470 465 355 449 230 c 0
 431 98 341 -10 219 -10 c 0
 97 -10 25 98 42 230 c 0
198 230 m 0
 189 170 218 113 280 112 c 0
 338 111 396 165 406 230 c 0
 414 291 384 346 328 348 c 0
 266 350 208 294 198 230 c 0
386 615 m 1
 284 531 l 1
 188 604 l 1
 400 742 l 1
 572 600 l 1
 460 530 l 1
 386 615 l 1
EndSplineSet
Substitution2: "alt a" acircumflex.alt
EndChar

StartChar: atilde
Encoding: 227 227 216
Width: 597
VWidth: 0
Flags: HMW
LayerCount: 2
Fore
SplineSet
447 460 m 1
 596 460 l 1
 516 0 l 1
 368 0 l 1
 447 460 l 1
42 230 m 0
 60 367 169 470 291 470 c 0
 415 470 465 355 449 230 c 0
 431 98 341 -10 219 -10 c 0
 97 -10 25 98 42 230 c 0
198 230 m 0
 189 170 218 113 280 112 c 0
 338 111 396 165 406 230 c 0
 414 291 384 346 328 348 c 0
 266 350 208 294 198 230 c 0
194 598 m 1
 214 646 261 690 323 690 c 0
 377 690 396 638 446 640 c 0
 474 641 498 666 520 692 c 1
 581 616 l 1
 555 578 500 530 440 532 c 0
 392 534 360 587 314 584 c 0
 280 582 266 552 258 534 c 1
 194 598 l 1
EndSplineSet
Substitution2: "alt a" atilde.alt
EndChar

StartChar: adieresis
Encoding: 228 228 217
Width: 597
VWidth: 0
Flags: HMW
LayerCount: 2
Fore
SplineSet
447 460 m 1
 596 460 l 1
 516 0 l 1
 368 0 l 1
 447 460 l 1
42 230 m 0
 60 367 169 470 291 470 c 0
 415 470 465 355 449 230 c 0
 431 98 341 -10 219 -10 c 0
 97 -10 25 98 42 230 c 0
198 230 m 0
 189 170 218 113 280 112 c 0
 338 111 396 165 406 230 c 0
 414 291 384 346 328 348 c 0
 266 350 208 294 198 230 c 0
408 614 m 0
 414 659 460 694 506 694 c 0
 552 694 587 657 581 611 c 0
 575 566 530 532 484 532 c 0
 438 532 402 568 408 614 c 0
172 614 m 0
 178 659 223 694 269 694 c 0
 315 694 350 657 344 611 c 0
 338 566 293 532 247 532 c 0
 201 532 166 568 172 614 c 0
EndSplineSet
Substitution2: "alt a" adieresis.alt
EndChar

StartChar: aring
Encoding: 229 229 218
Width: 597
VWidth: 0
Flags: HMW
LayerCount: 2
Fore
SplineSet
447 460 m 1
 596 460 l 1
 516 0 l 1
 368 0 l 1
 447 460 l 1
42 230 m 0
 60 367 169 470 291 470 c 0
 415 470 465 355 449 230 c 0
 431 98 341 -10 219 -10 c 0
 97 -10 25 98 42 230 c 0
198 230 m 0
 189 170 218 113 280 112 c 0
 338 111 396 165 406 230 c 0
 414 291 384 346 328 348 c 0
 266 350 208 294 198 230 c 0
250 647 m 0
 259 713 319 761 387 761 c 0
 455 761 503 711 494 645 c 0
 485 579 424 531 356 531 c 0
 288 531 241 581 250 647 c 0
326 645 m 0
 324 621 337 600 360 600 c 0
 384 600 413 622 417 647 c 0
 419 671 405 693 382 693 c 0
 358 693 330 670 326 645 c 0
EndSplineSet
Substitution2: "alt a" aring.alt
EndChar

StartChar: germandbls
Encoding: 223 223 219
Width: 603
VWidth: 0
Flags: HMW
LayerCount: 2
Fore
SplineSet
386 -12 m 0
 333 -12 263 5 229 28 c 1
 260 144 l 1
 288 124 325 110 357 110 c 0
 408 110 443 145 443 192 c 0
 443 289 314 295 314 383 c 0
 314 469 450 495 450 592 c 0
 450 640 421 662 377 662 c 0
 315 662 278 623 266 550 c 2
 174 -2 l 1
 21 -2 l 1
 114 552 l 2
 138 700 218 797 394 797 c 0
 515 797 608 727 608 621 c 0
 608 490 474 453 474 394 c 0
 474 330 600 336 600 193 c 0
 600 79 504 -12 386 -12 c 0
EndSplineSet
EndChar

StartChar: ae
Encoding: 230 230 220
Width: 886
VWidth: 0
Flags: HMW
LayerCount: 2
Fore
SplineSet
188 -10 m 0
 66 -10 5 42 15 126 c 0
 24 214 112 279 233 279 c 0
 291 279 338 265 420 224 c 1
 350 224 l 1
 361 286 l 2
 368 334 343 358 293 358 c 0
 249 358 182 340 142 318 c 1
 104 420 l 1
 182 456 253 473 320 473 c 0
 418 473 468 436 464 360 c 1
 448 354 l 1
 498 426 578 470 678 470 c 0
 812 470 883 390 867 250 c 0
 865 228 860 208 856 198 c 1
 489 198 l 1
 511 216 l 1
 503 144 528 99 594 99 c 0
 644 99 691 121 715 159 c 1
 848 126 l 1
 786 35 697 -10 585 -10 c 0
 480 -10 419 26 396 103 c 1
 410 102 l 1
 376 30 298 -10 188 -10 c 0
230 89 m 0
 292 89 335 122 350 186 c 1
 344 134 l 1
 344 195 l 1
 364 168 l 1
 334 187 296 197 258 197 c 0
 206 197 172 176 169 136 c 0
 167 103 185 89 230 89 c 0
512 236 m 1
 499 282 l 1
 733 282 l 1
 706 250 l 1
 709 258 710 259 710 266 c 0
 716 332 695 369 637 369 c 0
 571 369 530 322 512 236 c 1
EndSplineSet
EndChar

StartChar: ccedilla
Encoding: 231 231 221
Width: 478
VWidth: 0
Flags: HMW
LayerCount: 2
Fore
SplineSet
193 230 m 0
 183 164 221 114 288 112 c 0
 344 110 397 140 433 178 c 1
 412 32 l 1
 373 6 325 -10 264 -10 c 0
 119 -10 20 92 40 230 c 0
 61 372 187 470 336 470 c 0
 396 470 440 454 476 430 c 1
 454 282 l 1
 430 325 386 349 337 349 c 0
 269 349 205 296 193 230 c 0
210 60 m 1
 322 56 l 1
 214 -66 l 1
 224 -64 236 -62 248 -62 c 0
 294 -64 331 -103 324 -160 c 0
 315 -228 245 -267 182 -268 c 0
 129 -269 88 -255 44 -227 c 1
 97 -161 l 1
 119 -176 147 -186 169 -186 c 0
 195 -186 229 -172 231 -148 c 0
 233 -124 203 -118 181 -118 c 0
 161 -117 128 -122 96 -132 c 1
 210 60 l 1
EndSplineSet
EndChar

StartChar: egrave
Encoding: 232 232 222
Width: 556
VWidth: 0
Flags: HMW
LayerCount: 2
Fore
SplineSet
121 198 m 1
 134 282 l 1
 386 282 l 1
 386 330 370 366 318 368 c 0
 254 370 211 317 198 254 c 1
 192 230 l 1
 182 158 204 103 268 100 c 0
 319 98 361 124 389 158 c 1
 520 124 l 1
 462 44 381 -10 261 -10 c 0
 107 -10 22 94 42 230 c 0
 44 247 49 263 54 279 c 0
 90 393 192 470 330 470 c 0
 480 470 556 375 538 237 c 0
 536 227 535 212 532 198 c 1
 121 198 l 1
212 686 m 1
 330 738 l 1
 451 574 l 1
 365 534 l 1
 212 686 l 1
EndSplineSet
EndChar

StartChar: eacute
Encoding: 233 233 223
Width: 556
VWidth: 0
Flags: HMW
LayerCount: 2
Fore
SplineSet
121 198 m 1
 134 282 l 1
 386 282 l 1
 386 330 370 366 318 368 c 0
 254 370 211 317 198 254 c 1
 192 230 l 1
 182 158 204 103 268 100 c 0
 319 98 361 124 389 158 c 1
 520 124 l 1
 462 44 381 -10 261 -10 c 0
 107 -10 22 94 42 230 c 0
 44 247 49 263 54 279 c 0
 90 393 192 470 330 470 c 0
 480 470 556 375 538 237 c 0
 536 227 535 212 532 198 c 1
 121 198 l 1
541 681 m 1
 344 535 l 1
 262 580 l 1
 432 736 l 1
 541 681 l 1
EndSplineSet
EndChar

StartChar: ecircumflex
Encoding: 234 234 224
Width: 556
VWidth: 0
Flags: HMW
LayerCount: 2
Fore
SplineSet
121 198 m 1
 134 282 l 1
 386 282 l 1
 386 330 370 366 318 368 c 0
 254 370 211 317 198 254 c 1
 192 230 l 1
 182 158 204 103 268 100 c 0
 319 98 361 124 389 158 c 1
 520 124 l 1
 462 44 381 -10 261 -10 c 0
 107 -10 22 94 42 230 c 0
 44 247 49 263 54 279 c 0
 90 393 192 470 330 470 c 0
 480 470 556 375 538 237 c 0
 536 227 535 212 532 198 c 1
 121 198 l 1
364 615 m 1
 261 531 l 1
 166 604 l 1
 378 742 l 1
 550 600 l 1
 438 530 l 1
 364 615 l 1
EndSplineSet
EndChar

StartChar: edieresis
Encoding: 235 235 225
Width: 556
VWidth: 0
Flags: HMW
LayerCount: 2
Fore
SplineSet
121 198 m 1
 134 282 l 1
 386 282 l 1
 386 330 370 366 318 368 c 0
 254 370 211 317 198 254 c 1
 192 230 l 1
 182 158 204 103 268 100 c 0
 319 98 361 124 389 158 c 1
 520 124 l 1
 462 44 381 -10 261 -10 c 0
 107 -10 22 94 42 230 c 0
 44 247 49 263 54 279 c 0
 90 393 192 470 330 470 c 0
 480 470 556 375 538 237 c 0
 536 227 535 212 532 198 c 1
 121 198 l 1
392 614 m 0
 398 659 443 694 489 694 c 0
 535 694 570 657 564 611 c 0
 558 566 514 532 468 532 c 0
 422 532 386 568 392 614 c 0
155 614 m 0
 161 659 206 694 252 694 c 0
 298 694 334 657 328 611 c 0
 322 566 276 532 230 532 c 0
 184 532 149 568 155 614 c 0
EndSplineSet
EndChar

StartChar: igrave
Encoding: 236 236 226
Width: 267
VWidth: 0
Flags: HMW
LayerCount: 2
Fore
SplineSet
112 460 m 1
 258 460 l 1
 178 0 l 1
 34 0 l 1
 112 460 l 1
50 690 m 1
 168 741 l 1
 288 578 l 1
 202 538 l 1
 50 690 l 1
EndSplineSet
EndChar

StartChar: dotlessi
Encoding: 305 305 227
Width: 267
VWidth: 0
Flags: HMW
LayerCount: 2
Fore
SplineSet
112 460 m 1
 258 460 l 1
 178 0 l 1
 34 0 l 1
 112 460 l 1
EndSplineSet
EndChar

StartChar: kgreenlandic
Encoding: 312 312 228
Width: 559
VWidth: 0
Flags: HMW
LayerCount: 2
Fore
SplineSet
106 460 m 1
 250 460 l 1
 171 0 l 1
 28 0 l 1
 106 460 l 1
407 460 m 1
 591 460 l 1
 362 267 l 1
 525 0 l 1
 356 0 l 1
 188 274 l 1
 407 460 l 1
EndSplineSet
EndChar

StartChar: iacute
Encoding: 237 237 229
Width: 267
VWidth: 0
Flags: HMW
LayerCount: 2
Fore
SplineSet
112 460 m 1
 258 460 l 1
 178 0 l 1
 34 0 l 1
 112 460 l 1
392 685 m 1
 195 539 l 1
 114 584 l 1
 284 740 l 1
 392 685 l 1
EndSplineSet
EndChar

StartChar: icircumflex
Encoding: 238 238 230
Width: 267
VWidth: 0
Flags: HMW
LayerCount: 2
Fore
SplineSet
112 460 m 1
 258 460 l 1
 178 0 l 1
 34 0 l 1
 112 460 l 1
216 619 m 1
 112 534 l 1
 18 608 l 1
 230 746 l 1
 402 603 l 1
 290 534 l 1
 216 619 l 1
EndSplineSet
EndChar

StartChar: idieresis
Encoding: 239 239 231
Width: 267
VWidth: 0
Flags: HMW
LayerCount: 2
Fore
SplineSet
112 460 m 1
 258 460 l 1
 178 0 l 1
 34 0 l 1
 112 460 l 1
245 625 m 0
 251 670 296 706 342 706 c 0
 388 706 424 668 418 622 c 0
 412 577 367 542 321 542 c 0
 275 542 239 579 245 625 c 0
8 625 m 0
 14 670 60 706 106 706 c 0
 152 706 188 668 182 622 c 0
 176 577 130 542 84 542 c 0
 38 542 2 579 8 625 c 0
EndSplineSet
EndChar

StartChar: ntilde
Encoding: 241 241 232
Width: 557
VWidth: 0
Flags: HMW
LayerCount: 2
Fore
SplineSet
258 460 m 1
 178 0 l 1
 28 0 l 1
 108 460 l 1
 258 460 l 1
368 280 m 1
 372 323 368 361 321 364 c 0
 273 367 237 324 226 280 c 1
 196 275 l 1
 214 377 276 470 390 470 c 0
 500 470 536 398 524 296 c 1
 474 0 l 1
 319 0 l 1
 368 280 l 1
163 598 m 1
 184 644 229 692 291 690 c 0
 345 689 364 638 414 640 c 0
 442 641 466 666 488 692 c 1
 549 616 l 1
 523 578 468 530 408 532 c 0
 360 534 328 587 282 584 c 0
 248 582 234 552 226 534 c 1
 163 598 l 1
EndSplineSet
EndChar

StartChar: ograve
Encoding: 242 242 233
Width: 571
VWidth: 0
Flags: HMW
LayerCount: 2
Fore
SplineSet
42 230 m 0
 62 370 187 470 334 470 c 0
 478 470 575 368 555 230 c 0
 535 90 408 -10 262 -10 c 0
 118 -10 22 92 42 230 c 0
195 230 m 0
 186 170 215 117 275 116 c 0
 337 115 392 166 402 230 c 0
 411 290 382 345 322 346 c 0
 260 347 205 294 195 230 c 0
222 690 m 1
 339 741 l 1
 460 578 l 1
 374 538 l 1
 222 690 l 1
EndSplineSet
EndChar

StartChar: oacute
Encoding: 243 243 234
Width: 571
VWidth: 0
Flags: HMW
LayerCount: 2
Fore
SplineSet
42 230 m 0
 62 370 187 470 334 470 c 0
 478 470 575 368 555 230 c 0
 535 90 408 -10 262 -10 c 0
 118 -10 22 92 42 230 c 0
195 230 m 0
 186 170 215 117 275 116 c 0
 337 115 392 166 402 230 c 0
 411 290 382 345 322 346 c 0
 260 347 205 294 195 230 c 0
532 685 m 1
 336 539 l 1
 254 584 l 1
 424 740 l 1
 532 685 l 1
EndSplineSet
EndChar

StartChar: ocircumflex
Encoding: 244 244 235
Width: 571
VWidth: 0
Flags: HMW
LayerCount: 2
Fore
SplineSet
42 230 m 0
 62 370 187 470 334 470 c 0
 478 470 575 368 555 230 c 0
 535 90 408 -10 262 -10 c 0
 118 -10 22 92 42 230 c 0
195 230 m 0
 186 170 215 117 275 116 c 0
 337 115 392 166 402 230 c 0
 411 290 382 345 322 346 c 0
 260 347 205 294 195 230 c 0
369 623 m 1
 266 538 l 1
 171 612 l 1
 383 749 l 1
 554 606 l 1
 443 538 l 1
 369 623 l 1
EndSplineSet
EndChar

StartChar: otilde
Encoding: 245 245 236
Width: 571
VWidth: 0
Flags: HMW
LayerCount: 2
Fore
SplineSet
42 230 m 0
 62 370 187 470 334 470 c 0
 478 470 575 368 555 230 c 0
 535 90 408 -10 262 -10 c 0
 118 -10 22 92 42 230 c 0
195 230 m 0
 186 170 215 117 275 116 c 0
 337 115 392 166 402 230 c 0
 411 290 382 345 322 346 c 0
 260 347 205 294 195 230 c 0
170 598 m 1
 170 646 248 690 298 690 c 0
 352 690 372 638 422 640 c 0
 450 641 473 666 495 692 c 1
 556 616 l 1
 530 578 475 530 415 532 c 0
 367 534 334 587 288 584 c 0
 254 582 240 552 232 534 c 1
 170 598 l 1
EndSplineSet
EndChar

StartChar: odieresis
Encoding: 246 246 237
Width: 571
VWidth: 0
Flags: HMW
LayerCount: 2
Fore
SplineSet
42 230 m 0
 62 370 187 470 334 470 c 0
 478 470 575 368 555 230 c 0
 535 90 408 -10 262 -10 c 0
 118 -10 22 92 42 230 c 0
195 230 m 0
 186 170 215 117 275 116 c 0
 337 115 392 166 402 230 c 0
 411 290 382 345 322 346 c 0
 260 347 205 294 195 230 c 0
398 625 m 0
 404 670 448 706 494 706 c 0
 540 706 576 668 570 622 c 0
 564 577 519 542 473 542 c 0
 427 542 392 579 398 625 c 0
161 625 m 0
 167 670 212 706 258 706 c 0
 304 706 340 668 334 622 c 0
 328 577 282 542 236 542 c 0
 190 542 155 579 161 625 c 0
EndSplineSet
EndChar

StartChar: ugrave
Encoding: 249 249 238
Width: 557
VWidth: 0
Flags: HMW
LayerCount: 2
Fore
SplineSet
324 0 m 1
 404 460 l 1
 554 460 l 1
 474 0 l 1
 324 0 l 1
214 180 m 1
 210 137 214 99 261 96 c 0
 309 93 345 136 356 180 c 1
 387 185 l 1
 369 83 306 -10 192 -10 c 0
 82 -10 46 62 58 164 c 1
 108 460 l 1
 264 460 l 1
 214 180 l 1
228 690 m 1
 347 741 l 1
 468 578 l 1
 381 538 l 1
 228 690 l 1
EndSplineSet
EndChar

StartChar: uacute
Encoding: 250 250 239
Width: 557
VWidth: 0
Flags: HMW
LayerCount: 2
Fore
SplineSet
324 0 m 1
 404 460 l 1
 554 460 l 1
 474 0 l 1
 324 0 l 1
214 180 m 1
 210 137 214 99 261 96 c 0
 309 93 345 136 356 180 c 1
 387 185 l 1
 369 83 306 -10 192 -10 c 0
 82 -10 46 62 58 164 c 1
 108 460 l 1
 264 460 l 1
 214 180 l 1
510 685 m 1
 314 538 l 1
 232 584 l 1
 403 740 l 1
 510 685 l 1
EndSplineSet
EndChar

StartChar: ucircumflex
Encoding: 251 251 240
Width: 557
VWidth: 0
Flags: HMW
LayerCount: 2
Fore
SplineSet
324 0 m 1
 404 460 l 1
 554 460 l 1
 474 0 l 1
 324 0 l 1
214 180 m 1
 210 137 214 99 261 96 c 0
 309 93 345 136 356 180 c 1
 387 185 l 1
 369 83 306 -10 192 -10 c 0
 82 -10 46 62 58 164 c 1
 108 460 l 1
 264 460 l 1
 214 180 l 1
362 623 m 1
 258 538 l 1
 164 612 l 1
 376 749 l 1
 547 606 l 1
 435 538 l 1
 362 623 l 1
EndSplineSet
EndChar

StartChar: udieresis
Encoding: 252 252 241
Width: 557
VWidth: 0
Flags: HMW
LayerCount: 2
Fore
SplineSet
324 0 m 1
 404 460 l 1
 554 460 l 1
 474 0 l 1
 324 0 l 1
214 180 m 1
 210 137 214 99 261 96 c 0
 309 93 345 136 356 180 c 1
 387 185 l 1
 369 83 306 -10 192 -10 c 0
 82 -10 46 62 58 164 c 1
 108 460 l 1
 264 460 l 1
 214 180 l 1
390 622 m 0
 396 667 441 702 487 702 c 0
 533 702 569 664 563 618 c 0
 557 573 512 538 466 538 c 0
 419 538 384 576 390 622 c 0
154 622 m 0
 160 667 204 702 250 702 c 0
 296 702 332 664 326 618 c 0
 320 573 275 538 229 538 c 0
 182 538 148 576 154 622 c 0
EndSplineSet
EndChar

StartChar: yacute
Encoding: 253 253 242
Width: 505
VWidth: 0
Flags: HMW
LayerCount: 2
Fore
SplineSet
570 460 m 1
 162 -220 l 1
 8 -220 l 1
 164 42 l 1
 44 460 l 1
 204 460 l 1
 284 91 l 1
 207 92 l 1
 413 460 l 1
 570 460 l 1
500 685 m 1
 303 539 l 1
 222 584 l 1
 392 740 l 1
 500 685 l 1
EndSplineSet
EndChar

StartChar: thorn
Encoding: 254 254 243
Width: 597
VWidth: 0
Flags: HMW
LayerCount: 2
Fore
SplineSet
140 -220 m 1
 -10 -220 l 1
 161 780 l 1
 310 780 l 1
 140 -220 l 1
581 230 m 0
 563 93 454 -10 332 -10 c 0
 208 -10 157 105 173 230 c 0
 191 362 282 470 404 470 c 0
 526 470 598 362 581 230 c 0
426 230 m 0
 435 290 404 347 342 348 c 0
 284 349 226 295 216 230 c 0
 208 169 239 114 295 112 c 0
 357 110 416 166 426 230 c 0
EndSplineSet
EndChar

StartChar: ydieresis
Encoding: 255 255 244
Width: 505
VWidth: 0
Flags: HMW
LayerCount: 2
Fore
SplineSet
570 460 m 1
 162 -220 l 1
 8 -220 l 1
 164 42 l 1
 44 460 l 1
 204 460 l 1
 284 91 l 1
 207 92 l 1
 413 460 l 1
 570 460 l 1
362 614 m 0
 368 659 414 694 460 694 c 0
 506 694 542 657 536 611 c 0
 530 566 484 532 438 532 c 0
 392 532 356 568 362 614 c 0
126 614 m 0
 132 659 177 694 223 694 c 0
 269 694 304 657 298 611 c 0
 292 566 248 532 202 532 c 0
 156 532 120 568 126 614 c 0
EndSplineSet
EndChar

StartChar: Amacron
Encoding: 256 256 245
Width: 712
VWidth: 0
Flags: HMW
LayerCount: 2
Fore
SplineSet
174 136 m 1
 207 264 l 1
 546 264 l 1
 535 135 l 1
 174 136 l 1
408 442 m 1
 274 216 l 1
 275 178 l 1
 161 0 l 1
 -32 0 l 1
 456 746 l 1
 686 0 l 1
 502 0 l 1
 448 172 l 1
 462 216 l 1
 408 442 l 1
286 804 m 1
 308 936 l 1
 671 936 l 1
 648 804 l 1
 286 804 l 1
EndSplineSet
EndChar

StartChar: amacron
Encoding: 257 257 246
Width: 597
VWidth: 0
Flags: HMW
LayerCount: 2
Fore
SplineSet
447 460 m 1
 596 460 l 1
 516 0 l 1
 368 0 l 1
 447 460 l 1
42 230 m 0
 60 367 169 470 291 470 c 0
 415 470 465 355 449 230 c 0
 431 98 341 -10 219 -10 c 0
 97 -10 25 98 42 230 c 0
198 230 m 0
 189 170 218 113 280 112 c 0
 338 111 396 165 406 230 c 0
 414 291 384 346 328 348 c 0
 266 350 208 294 198 230 c 0
184 534 m 1
 206 666 l 1
 570 666 l 1
 546 534 l 1
 184 534 l 1
EndSplineSet
Substitution2: "alt a" amacron.alt
EndChar

StartChar: breve
Encoding: 728 728 247
Width: 529
VWidth: 0
Flags: HMW
LayerCount: 2
Fore
SplineSet
218 850 m 1
 313 850 l 1
 313 818 329 794 365 792 c 0
 403 790 429 820 439 850 c 1
 538 849 l 1
 521 767 459 704 360 704 c 0
 262 704 214 766 218 850 c 1
EndSplineSet
EndChar

StartChar: Abreve
Encoding: 258 258 248
Width: 712
VWidth: 0
Flags: HMW
LayerCount: 2
Fore
SplineSet
174 136 m 1
 207 264 l 1
 546 264 l 1
 535 135 l 1
 174 136 l 1
408 442 m 1
 274 216 l 1
 275 178 l 1
 161 0 l 1
 -32 0 l 1
 456 746 l 1
 686 0 l 1
 502 0 l 1
 448 172 l 1
 462 216 l 1
 408 442 l 1
330 951 m 1
 426 950 l 1
 426 918 441 894 477 892 c 0
 515 890 542 920 552 950 c 1
 652 950 l 1
 634 868 571 804 472 804 c 0
 374 804 324 868 330 951 c 1
EndSplineSet
EndChar

StartChar: abreve
Encoding: 259 259 249
Width: 597
VWidth: 0
Flags: HMW
LayerCount: 2
Fore
SplineSet
447 460 m 1
 596 460 l 1
 516 0 l 1
 368 0 l 1
 447 460 l 1
42 230 m 0
 60 367 169 470 291 470 c 0
 415 470 465 355 449 230 c 0
 431 98 341 -10 219 -10 c 0
 97 -10 25 98 42 230 c 0
198 230 m 0
 189 170 218 113 280 112 c 0
 338 111 396 165 406 230 c 0
 414 291 384 346 328 348 c 0
 266 350 208 294 198 230 c 0
211 676 m 1
 307 676 l 1
 307 644 322 620 358 618 c 0
 396 616 422 646 432 676 c 1
 532 676 l 1
 514 594 451 531 352 531 c 0
 254 531 206 593 211 676 c 1
EndSplineSet
Substitution2: "alt a" abreve.alt
EndChar

StartChar: Aogonek
Encoding: 260 260 250
Width: 712
VWidth: 0
Flags: HMW
LayerCount: 2
Fore
SplineSet
174 136 m 1
 207 264 l 1
 546 264 l 1
 535 135 l 1
 174 136 l 1
408 442 m 1
 274 216 l 1
 275 178 l 1
 161 0 l 1
 -32 0 l 1
 456 746 l 1
 686 0 l 1
 502 0 l 1
 448 172 l 1
 462 216 l 1
 408 442 l 1
624 -111 m 1
 646 -182 l 1
 622 -202 591 -220 544 -220 c 0
 482 -220 436 -181 444 -119 c 0
 454 -49 533 -8 600 25 c 1
 640 0 l 1
 596 -26 552 -56 545 -94 c 0
 543 -114 549 -128 570 -130 c 0
 588 -132 610 -121 624 -111 c 1
EndSplineSet
EndChar

StartChar: aogonek
Encoding: 261 261 251
Width: 597
VWidth: 0
Flags: HMW
LayerCount: 2
Fore
SplineSet
447 460 m 1
 596 460 l 1
 516 0 l 1
 368 0 l 1
 447 460 l 1
42 230 m 0
 60 367 169 470 291 470 c 0
 415 470 465 355 449 230 c 0
 431 98 341 -10 219 -10 c 0
 97 -10 25 98 42 230 c 0
198 230 m 0
 189 170 218 113 280 112 c 0
 338 111 396 165 406 230 c 0
 414 291 384 346 328 348 c 0
 266 350 208 294 198 230 c 0
470 -111 m 1
 492 -182 l 1
 468 -202 438 -220 391 -220 c 0
 329 -220 282 -181 290 -119 c 0
 300 -49 379 -8 446 25 c 1
 486 0 l 1
 442 -26 399 -56 392 -94 c 0
 390 -114 396 -128 417 -130 c 0
 435 -132 456 -121 470 -111 c 1
EndSplineSet
Substitution2: "alt a" aogonek.alt
EndChar

StartChar: Cacute
Encoding: 262 262 252
Width: 679
VWidth: 0
Flags: HMW
LayerCount: 2
Fore
SplineSet
246 350 m 0
 228 236 294 148 408 146 c 0
 500 145 572 189 630 237 c 1
 603 54 l 1
 541 12 473 -16 381 -16 c 0
 165 -16 34 146 64 350 c 0
 96 560 276 716 496 716 c 0
 584 716 645 690 701 645 c 1
 673 462 l 1
 631 516 574 554 488 554 c 0
 372 554 266 470 246 350 c 0
664 923 m 1
 466 777 l 1
 386 822 l 1
 556 978 l 1
 664 923 l 1
EndSplineSet
EndChar

StartChar: cacute
Encoding: 263 263 253
Width: 478
VWidth: 0
Flags: HMW
LayerCount: 2
Fore
SplineSet
193 230 m 0
 183 164 221 114 288 112 c 0
 344 110 397 140 433 178 c 1
 412 32 l 1
 373 6 325 -10 264 -10 c 0
 119 -10 20 92 40 230 c 0
 61 372 187 470 336 470 c 0
 396 470 440 454 476 430 c 1
 454 282 l 1
 430 325 386 349 337 349 c 0
 269 349 205 296 193 230 c 0
504 678 m 1
 306 532 l 1
 225 576 l 1
 395 732 l 1
 504 678 l 1
EndSplineSet
EndChar

StartChar: Ccircumflex
Encoding: 264 264 254
Width: 679
VWidth: 0
Flags: HMW
LayerCount: 2
Fore
SplineSet
246 350 m 0
 228 236 294 148 408 146 c 0
 500 145 572 189 630 237 c 1
 603 54 l 1
 541 12 473 -16 381 -16 c 0
 165 -16 34 146 64 350 c 0
 96 560 276 716 496 716 c 0
 584 716 645 690 701 645 c 1
 673 462 l 1
 631 516 574 554 488 554 c 0
 372 554 266 470 246 350 c 0
529 861 m 1
 426 776 l 1
 332 850 l 1
 544 988 l 1
 716 845 l 1
 602 776 l 1
 529 861 l 1
EndSplineSet
EndChar

StartChar: ccircumflex
Encoding: 265 265 255
Width: 478
VWidth: 0
Flags: HMW
LayerCount: 2
Fore
SplineSet
193 230 m 0
 183 164 221 114 288 112 c 0
 344 110 397 140 433 178 c 1
 412 32 l 1
 373 6 325 -10 264 -10 c 0
 119 -10 20 92 40 230 c 0
 61 372 187 470 336 470 c 0
 396 470 440 454 476 430 c 1
 454 282 l 1
 430 325 386 349 337 349 c 0
 269 349 205 296 193 230 c 0
339 615 m 1
 236 531 l 1
 140 604 l 1
 352 742 l 1
 524 600 l 1
 412 530 l 1
 339 615 l 1
EndSplineSet
EndChar

StartChar: Cdotaccent
Encoding: 266 266 256
Width: 679
VWidth: 0
Flags: HMW
LayerCount: 2
Fore
SplineSet
246 350 m 0
 228 236 294 148 408 146 c 0
 500 145 572 189 630 237 c 1
 603 54 l 1
 541 12 473 -16 381 -16 c 0
 165 -16 34 146 64 350 c 0
 96 560 276 716 496 716 c 0
 584 716 645 690 701 645 c 1
 673 462 l 1
 631 516 574 554 488 554 c 0
 372 554 266 470 246 350 c 0
414 860 m 0
 420 905 466 940 512 940 c 0
 558 940 593 903 587 857 c 0
 581 812 536 776 490 776 c 0
 444 776 408 814 414 860 c 0
EndSplineSet
EndChar

StartChar: cdotaccent
Encoding: 267 267 257
Width: 478
VWidth: 0
Flags: HMW
LayerCount: 2
Fore
SplineSet
193 230 m 0
 183 164 221 114 288 112 c 0
 344 110 397 140 433 178 c 1
 412 32 l 1
 373 6 325 -10 264 -10 c 0
 119 -10 20 92 40 230 c 0
 61 372 187 470 336 470 c 0
 396 470 440 454 476 430 c 1
 454 282 l 1
 430 325 386 349 337 349 c 0
 269 349 205 296 193 230 c 0
256 620 m 0
 262 665 306 700 352 700 c 0
 398 700 434 664 428 618 c 0
 422 573 376 538 330 538 c 0
 284 538 250 574 256 620 c 0
EndSplineSet
EndChar

StartChar: Ccaron
Encoding: 268 268 258
Width: 679
VWidth: 0
Flags: HMW
LayerCount: 2
Fore
SplineSet
246 350 m 0
 228 236 294 148 408 146 c 0
 500 145 572 189 630 237 c 1
 603 54 l 1
 541 12 473 -16 381 -16 c 0
 165 -16 34 146 64 350 c 0
 96 560 276 716 496 716 c 0
 584 716 645 690 701 645 c 1
 673 462 l 1
 631 516 574 554 488 554 c 0
 372 554 266 470 246 350 c 0
529 903 m 1
 632 988 l 1
 727 914 l 1
 515 776 l 1
 343 918 l 1
 456 988 l 1
 529 903 l 1
EndSplineSet
EndChar

StartChar: ccaron
Encoding: 269 269 259
Width: 478
VWidth: 0
Flags: HMW
LayerCount: 2
Fore
SplineSet
193 230 m 0
 183 164 221 114 288 112 c 0
 344 110 397 140 433 178 c 1
 412 32 l 1
 373 6 325 -10 264 -10 c 0
 119 -10 20 92 40 230 c 0
 61 372 187 470 336 470 c 0
 396 470 440 454 476 430 c 1
 454 282 l 1
 430 325 386 349 337 349 c 0
 269 349 205 296 193 230 c 0
338 657 m 1
 442 742 l 1
 536 668 l 1
 324 531 l 1
 152 674 l 1
 265 742 l 1
 338 657 l 1
EndSplineSet
EndChar

StartChar: Dcaron
Encoding: 270 270 260
Width: 711
VWidth: 0
Flags: HMW
LayerCount: 2
Fore
SplineSet
162 700 m 1
 336 700 l 1
 216 0 l 1
 44 0 l 1
 162 700 l 1
292 0 m 1
 152 0 l 1
 178 151 l 1
 302 151 l 1
 418 153 518 218 540 350 c 0
 560 478 493 546 380 549 c 1
 246 550 l 1
 272 700 l 1
 402 700 l 1
 618 697 742 554 712 350 c 0
 680 140 513 2 292 0 c 1
488 903 m 1
 590 988 l 1
 686 914 l 1
 474 776 l 1
 302 918 l 1
 414 988 l 1
 488 903 l 1
EndSplineSet
EndChar

StartChar: dcaron
Encoding: 271 271 261
Width: 597
VWidth: 0
Flags: HMW
LayerCount: 2
Fore
SplineSet
500 780 m 1
 650 780 l 1
 516 0 l 1
 368 0 l 1
 500 780 l 1
42 230 m 0
 60 367 169 470 291 470 c 0
 415 470 466 355 450 230 c 0
 432 98 341 -10 219 -10 c 0
 97 -10 25 98 42 230 c 0
198 230 m 0
 189 170 218 113 280 112 c 0
 338 111 398 165 408 230 c 0
 416 291 384 346 328 348 c 0
 266 350 208 294 198 230 c 0
760 779 m 1
 908 746 l 1
 744 499 l 1
 632 522 l 1
 760 779 l 1
EndSplineSet
EndChar

StartChar: Dcroat
Encoding: 272 272 262
Width: 711
VWidth: 0
Flags: HMW
LayerCount: 2
Fore
SplineSet
28 298 m 1
 44 398 l 1
 381 398 l 1
 364 298 l 1
 28 298 l 1
162 700 m 1
 336 700 l 1
 216 0 l 1
 44 0 l 1
 162 700 l 1
292 0 m 1
 152 0 l 1
 178 151 l 1
 302 151 l 1
 418 153 518 218 540 350 c 0
 560 478 493 546 380 549 c 1
 246 550 l 1
 272 700 l 1
 402 700 l 1
 618 697 742 554 712 350 c 0
 680 140 513 2 292 0 c 1
EndSplineSet
EndChar

StartChar: dcroat
Encoding: 273 273 263
Width: 597
VWidth: 0
Flags: HMW
LayerCount: 2
Fore
SplineSet
354 565 m 1
 372 665 l 1
 720 665 l 1
 702 565 l 1
 354 565 l 1
500 780 m 1
 650 780 l 1
 516 0 l 1
 368 0 l 1
 500 780 l 1
42 230 m 0
 60 367 169 470 291 470 c 0
 415 470 466 355 450 230 c 0
 432 98 341 -10 219 -10 c 0
 97 -10 25 98 42 230 c 0
198 230 m 0
 189 170 218 113 280 112 c 0
 338 111 398 165 408 230 c 0
 416 291 384 346 328 348 c 0
 266 350 208 294 198 230 c 0
EndSplineSet
EndChar

StartChar: Emacron
Encoding: 274 274 264
Width: 585
VWidth: 0
Flags: HMW
LayerCount: 2
Fore
SplineSet
152 0 m 1
 176 139 l 1
 522 139 l 1
 498 0 l 1
 152 0 l 1
248 561 m 1
 272 700 l 1
 618 700 l 1
 594 561 l 1
 248 561 l 1
204 300 m 1
 227 436 l 1
 553 436 l 1
 529 299 l 1
 204 300 l 1
162 700 m 1
 324 700 l 1
 204 0 l 1
 44 0 l 1
 162 700 l 1
222 776 m 1
 244 908 l 1
 607 908 l 1
 584 776 l 1
 222 776 l 1
EndSplineSet
EndChar

StartChar: emacron
Encoding: 275 275 265
Width: 556
VWidth: 0
Flags: HMW
LayerCount: 2
Fore
SplineSet
121 198 m 1
 134 282 l 1
 386 282 l 1
 386 330 370 366 318 368 c 0
 254 370 211 317 198 254 c 1
 192 230 l 1
 182 158 204 103 268 100 c 0
 319 98 361 124 389 158 c 1
 520 124 l 1
 462 44 381 -10 261 -10 c 0
 107 -10 22 94 42 230 c 0
 44 247 49 263 54 279 c 0
 90 393 192 470 330 470 c 0
 480 470 556 375 538 237 c 0
 536 227 535 212 532 198 c 1
 121 198 l 1
164 531 m 1
 187 662 l 1
 550 662 l 1
 528 531 l 1
 164 531 l 1
EndSplineSet
EndChar

StartChar: Ebreve
Encoding: 276 276 266
Width: 585
VWidth: 0
Flags: HMW
LayerCount: 2
Fore
SplineSet
152 0 m 1
 176 139 l 1
 522 139 l 1
 498 0 l 1
 152 0 l 1
248 561 m 1
 272 700 l 1
 618 700 l 1
 594 561 l 1
 248 561 l 1
204 300 m 1
 227 436 l 1
 553 436 l 1
 529 299 l 1
 204 300 l 1
162 700 m 1
 324 700 l 1
 204 0 l 1
 44 0 l 1
 162 700 l 1
266 922 m 1
 362 922 l 1
 362 890 376 866 412 864 c 0
 450 862 477 892 487 922 c 1
 587 921 l 1
 569 839 506 776 407 776 c 0
 309 776 260 839 266 922 c 1
EndSplineSet
EndChar

StartChar: ebreve
Encoding: 277 277 267
Width: 556
VWidth: 0
Flags: HMW
LayerCount: 2
Fore
SplineSet
121 198 m 1
 134 282 l 1
 386 282 l 1
 386 330 370 366 318 368 c 0
 254 370 211 317 198 254 c 1
 192 230 l 1
 182 158 204 103 268 100 c 0
 319 98 361 124 389 158 c 1
 520 124 l 1
 462 44 381 -10 261 -10 c 0
 107 -10 22 94 42 230 c 0
 44 247 49 263 54 279 c 0
 90 393 192 470 330 470 c 0
 480 470 556 375 538 237 c 0
 536 227 535 212 532 198 c 1
 121 198 l 1
210 677 m 1
 306 676 l 1
 306 644 320 620 356 618 c 0
 394 616 420 646 430 676 c 1
 530 676 l 1
 512 594 449 532 350 532 c 0
 252 532 204 594 210 677 c 1
EndSplineSet
EndChar

StartChar: Edotaccent
Encoding: 278 278 268
Width: 585
VWidth: 0
Flags: HMW
LayerCount: 2
Fore
SplineSet
152 0 m 1
 176 139 l 1
 522 139 l 1
 498 0 l 1
 152 0 l 1
248 561 m 1
 272 700 l 1
 618 700 l 1
 594 561 l 1
 248 561 l 1
204 300 m 1
 227 436 l 1
 553 436 l 1
 529 299 l 1
 204 300 l 1
162 700 m 1
 324 700 l 1
 204 0 l 1
 44 0 l 1
 162 700 l 1
330 860 m 0
 336 905 381 940 427 940 c 0
 473 940 509 903 503 857 c 0
 497 812 452 776 406 776 c 0
 360 776 324 814 330 860 c 0
EndSplineSet
EndChar

StartChar: edotaccent
Encoding: 279 279 269
Width: 556
VWidth: 0
Flags: HMW
LayerCount: 2
Fore
SplineSet
121 198 m 1
 134 282 l 1
 386 282 l 1
 386 330 370 366 318 368 c 0
 254 370 211 317 198 254 c 1
 192 230 l 1
 182 158 204 103 268 100 c 0
 319 98 361 124 389 158 c 1
 520 124 l 1
 462 44 381 -10 261 -10 c 0
 107 -10 22 94 42 230 c 0
 44 247 49 263 54 279 c 0
 90 393 192 470 330 470 c 0
 480 470 556 375 538 237 c 0
 536 227 535 212 532 198 c 1
 121 198 l 1
274 614 m 0
 280 659 324 694 370 694 c 0
 416 694 452 657 446 611 c 0
 440 566 395 532 349 532 c 0
 303 532 268 568 274 614 c 0
EndSplineSet
EndChar

StartChar: Eogonek
Encoding: 280 280 270
Width: 585
VWidth: 0
Flags: HMW
LayerCount: 2
Fore
SplineSet
152 0 m 1
 176 139 l 1
 522 139 l 1
 498 0 l 1
 152 0 l 1
248 561 m 1
 272 700 l 1
 618 700 l 1
 594 561 l 1
 248 561 l 1
204 300 m 1
 227 436 l 1
 553 436 l 1
 529 299 l 1
 204 300 l 1
162 700 m 1
 324 700 l 1
 204 0 l 1
 44 0 l 1
 162 700 l 1
340 -111 m 1
 362 -182 l 1
 338 -202 308 -220 261 -220 c 0
 199 -220 152 -181 160 -119 c 0
 170 -49 249 -8 316 25 c 1
 356 0 l 1
 312 -26 269 -56 262 -94 c 0
 260 -114 266 -128 287 -130 c 0
 305 -132 326 -121 340 -111 c 1
EndSplineSet
EndChar

StartChar: eogonek
Encoding: 281 281 271
Width: 556
VWidth: 0
Flags: HMW
LayerCount: 2
Fore
SplineSet
121 198 m 1
 134 282 l 1
 386 282 l 1
 386 330 370 366 318 368 c 0
 254 370 211 317 198 254 c 1
 192 230 l 1
 182 158 204 103 268 100 c 0
 319 98 361 124 389 158 c 1
 520 124 l 1
 462 44 381 -10 261 -10 c 0
 107 -10 22 94 42 230 c 0
 44 247 49 263 54 279 c 0
 90 393 192 470 330 470 c 0
 480 470 556 375 538 237 c 0
 536 227 535 212 532 198 c 1
 121 198 l 1
272 -103 m 1
 294 -174 l 1
 271 -194 239 -212 192 -212 c 0
 130 -212 84 -174 92 -112 c 0
 102 -42 181 0 248 33 c 1
 288 6 l 1
 243 -18 200 -48 193 -86 c 0
 191 -106 197 -120 218 -122 c 0
 236 -124 258 -113 272 -103 c 1
EndSplineSet
EndChar

StartChar: Ecaron
Encoding: 282 282 272
Width: 585
VWidth: 0
Flags: HMW
LayerCount: 2
Fore
SplineSet
152 0 m 1
 176 139 l 1
 522 139 l 1
 498 0 l 1
 152 0 l 1
248 561 m 1
 272 700 l 1
 618 700 l 1
 594 561 l 1
 248 561 l 1
204 300 m 1
 227 436 l 1
 553 436 l 1
 529 299 l 1
 204 300 l 1
162 700 m 1
 324 700 l 1
 204 0 l 1
 44 0 l 1
 162 700 l 1
420 903 m 1
 524 988 l 1
 618 914 l 1
 406 776 l 1
 234 918 l 1
 346 988 l 1
 420 903 l 1
EndSplineSet
EndChar

StartChar: ecaron
Encoding: 283 283 273
Width: 556
VWidth: 0
Flags: HMW
LayerCount: 2
Fore
SplineSet
121 198 m 1
 134 282 l 1
 386 282 l 1
 386 330 370 366 318 368 c 0
 254 370 211 317 198 254 c 1
 192 230 l 1
 182 158 204 103 268 100 c 0
 319 98 361 124 389 158 c 1
 520 124 l 1
 462 44 381 -10 261 -10 c 0
 107 -10 22 94 42 230 c 0
 44 247 49 263 54 279 c 0
 90 393 192 470 330 470 c 0
 480 470 556 375 538 237 c 0
 536 227 535 212 532 198 c 1
 121 198 l 1
364 657 m 1
 466 742 l 1
 562 668 l 1
 350 531 l 1
 178 674 l 1
 290 742 l 1
 364 657 l 1
EndSplineSet
EndChar

StartChar: Gcircumflex
Encoding: 284 284 274
Width: 789
VWidth: 0
Flags: HMW
LayerCount: 2
Fore
SplineSet
422 253 m 1
 446 383 l 1
 790 382 l 1
 766 167 614 -22 379 -22 c 0
 163 -22 34 145 64 350 c 0
 96 563 280 716 500 716 c 0
 634 716 728 651 786 549 c 1
 628 472 l 1
 602 528 560 568 486 568 c 0
 364 570 259 475 238 350 c 0
 220 231 276 127 400 126 c 0
 500 125 566 184 606 254 c 1
 422 253 l 1
534 861 m 1
 431 776 l 1
 336 850 l 1
 548 988 l 1
 720 845 l 1
 608 776 l 1
 534 861 l 1
EndSplineSet
EndChar

StartChar: gcircumflex
Encoding: 285 285 275
Width: 592
VWidth: 0
Flags: HMW
LayerCount: 2
Fore
SplineSet
6 -32 m 1
 148 -34 l 1
 150 -86 176 -117 232 -117 c 0
 301 -118 355 -64 368 10 c 1
 446 460 l 1
 590 460 l 1
 513 10 l 2
 488 -148 374 -238 228 -238 c 0
 76 -238 4 -158 6 -32 c 1
43 236 m 0
 61 373 169 470 291 470 c 0
 414 470 467 362 451 236 c 0
 433 104 343 2 221 2 c 0
 99 2 26 104 43 236 c 0
198 236 m 0
 189 175 222 125 282 124 c 0
 338 123 399 172 409 237 c 0
 417 299 383 346 328 348 c 0
 266 350 208 300 198 236 c 0
392 615 m 1
 288 531 l 1
 194 604 l 1
 406 742 l 1
 578 600 l 1
 465 530 l 1
 392 615 l 1
EndSplineSet
EndChar

StartChar: Gbreve
Encoding: 286 286 276
Width: 789
VWidth: 0
Flags: HMW
LayerCount: 2
Fore
SplineSet
422 253 m 1
 446 383 l 1
 790 382 l 1
 766 167 614 -22 379 -22 c 0
 163 -22 34 145 64 350 c 0
 96 563 280 716 500 716 c 0
 634 716 728 651 786 549 c 1
 628 472 l 1
 602 528 560 568 486 568 c 0
 364 570 259 475 238 350 c 0
 220 231 276 127 400 126 c 0
 500 125 566 184 606 254 c 1
 422 253 l 1
380 922 m 1
 476 922 l 1
 476 890 490 866 526 864 c 0
 564 862 591 892 601 922 c 1
 700 921 l 1
 682 839 619 776 520 776 c 0
 422 776 374 839 380 922 c 1
EndSplineSet
EndChar

StartChar: gbreve
Encoding: 287 287 277
Width: 592
VWidth: 0
Flags: HMW
LayerCount: 2
Fore
SplineSet
6 -32 m 1
 148 -34 l 1
 150 -86 176 -117 232 -117 c 0
 301 -118 355 -64 368 10 c 1
 446 460 l 1
 590 460 l 1
 513 10 l 2
 488 -148 374 -238 228 -238 c 0
 76 -238 4 -158 6 -32 c 1
43 236 m 0
 61 373 169 470 291 470 c 0
 414 470 467 362 451 236 c 0
 433 104 343 2 221 2 c 0
 99 2 26 104 43 236 c 0
198 236 m 0
 189 175 222 125 282 124 c 0
 338 123 399 172 409 237 c 0
 417 299 383 346 328 348 c 0
 266 350 208 300 198 236 c 0
238 677 m 1
 333 676 l 1
 333 644 348 620 384 618 c 0
 422 616 448 646 458 676 c 1
 558 676 l 1
 540 594 477 532 378 532 c 0
 280 532 232 594 238 677 c 1
EndSplineSet
EndChar

StartChar: Gdotaccent
Encoding: 288 288 278
Width: 789
VWidth: 0
Flags: HMW
LayerCount: 2
Fore
SplineSet
422 253 m 1
 446 383 l 1
 790 382 l 1
 766 167 614 -22 379 -22 c 0
 163 -22 34 145 64 350 c 0
 96 563 280 716 500 716 c 0
 634 716 728 651 786 549 c 1
 628 472 l 1
 602 528 560 568 486 568 c 0
 364 570 259 475 238 350 c 0
 220 231 276 127 400 126 c 0
 500 125 566 184 606 254 c 1
 422 253 l 1
444 860 m 0
 450 905 494 940 540 940 c 0
 586 940 622 903 616 857 c 0
 610 812 566 776 520 776 c 0
 474 776 438 814 444 860 c 0
EndSplineSet
EndChar

StartChar: gdotaccent
Encoding: 289 289 279
Width: 592
VWidth: 0
Flags: HMW
LayerCount: 2
Fore
SplineSet
6 -32 m 1
 148 -34 l 1
 150 -86 176 -117 232 -117 c 0
 301 -118 355 -64 368 10 c 1
 446 460 l 1
 590 460 l 1
 513 10 l 2
 488 -148 374 -238 228 -238 c 0
 76 -238 4 -158 6 -32 c 1
43 236 m 0
 61 373 169 470 291 470 c 0
 414 470 467 362 451 236 c 0
 433 104 343 2 221 2 c 0
 99 2 26 104 43 236 c 0
198 236 m 0
 189 175 222 125 282 124 c 0
 338 123 399 172 409 237 c 0
 417 299 383 346 328 348 c 0
 266 350 208 300 198 236 c 0
292 629 m 0
 298 674 344 708 390 708 c 0
 436 708 471 672 465 626 c 0
 459 581 414 546 368 546 c 0
 322 546 286 583 292 629 c 0
EndSplineSet
EndChar

StartChar: uni0122
Encoding: 290 290 280
Width: 789
VWidth: 0
Flags: HMW
LayerCount: 2
Fore
SplineSet
422 253 m 1
 446 383 l 1
 790 382 l 1
 766 167 614 -22 379 -22 c 0
 163 -22 34 145 64 350 c 0
 96 563 280 716 500 716 c 0
 634 716 728 651 786 549 c 1
 628 472 l 1
 602 528 560 568 486 568 c 0
 364 570 259 475 238 350 c 0
 220 231 276 127 400 126 c 0
 500 125 566 184 606 254 c 1
 422 253 l 1
300 -83 m 1
 447 -117 l 1
 282 -364 l 1
 170 -340 l 1
 300 -83 l 1
EndSplineSet
EndChar

StartChar: Hcircumflex
Encoding: 292 292 281
Width: 762
VWidth: 0
Flags: HMW
LayerCount: 2
Fore
SplineSet
139 294 m 1
 165 445 l 1
 682 445 l 1
 656 293 l 1
 139 294 l 1
618 700 m 1
 786 700 l 1
 666 0 l 1
 500 0 l 1
 618 700 l 1
162 700 m 1
 330 700 l 1
 210 0 l 1
 44 0 l 1
 162 700 l 1
506 861 m 1
 402 776 l 1
 308 850 l 1
 520 988 l 1
 692 845 l 1
 580 776 l 1
 506 861 l 1
EndSplineSet
EndChar

StartChar: hcircumflex
Encoding: 293 293 282
Width: 551
VWidth: 0
Flags: HMW
LayerCount: 2
Fore
SplineSet
313 780 m 1
 178 0 l 1
 28 0 l 1
 162 780 l 1
 313 780 l 1
368 280 m 1
 372 323 368 361 321 364 c 0
 273 367 238 324 227 280 c 1
 196 281 l 1
 215 383 276 476 390 476 c 0
 501 476 532 402 520 302 c 1
 468 0 l 1
 319 0 l 1
 368 280 l 1
312 924 m 1
 210 840 l 1
 114 914 l 1
 326 1051 l 1
 498 908 l 1
 386 840 l 1
 312 924 l 1
EndSplineSet
EndChar

StartChar: Itilde
Encoding: 296 296 283
Width: 310
VWidth: 0
Flags: HMW
LayerCount: 2
Fore
SplineSet
162 700 m 1
 333 700 l 1
 212 0 l 1
 44 0 l 1
 162 700 l 1
81 844 m 1
 102 890 146 938 208 936 c 0
 262 935 283 883 333 885 c 0
 361 886 385 912 407 938 c 1
 468 862 l 1
 442 824 386 776 326 778 c 0
 278 780 246 833 200 830 c 0
 166 828 151 798 143 780 c 1
 81 844 l 1
EndSplineSet
EndChar

StartChar: itilde
Encoding: 297 297 284
Width: 267
VWidth: 0
Flags: HMW
LayerCount: 2
Fore
SplineSet
112 460 m 1
 258 460 l 1
 178 0 l 1
 34 0 l 1
 112 460 l 1
17 598 m 1
 38 644 84 692 146 690 c 0
 200 689 218 638 268 640 c 0
 296 641 321 666 343 692 c 1
 404 616 l 1
 378 578 322 530 262 532 c 0
 214 534 182 587 136 584 c 0
 102 582 88 552 80 534 c 1
 17 598 l 1
EndSplineSet
EndChar

StartChar: Imacron
Encoding: 298 298 285
Width: 310
VWidth: 0
Flags: HMW
LayerCount: 2
Fore
SplineSet
162 700 m 1
 333 700 l 1
 212 0 l 1
 44 0 l 1
 162 700 l 1
79 776 m 1
 102 908 l 1
 466 908 l 1
 442 776 l 1
 79 776 l 1
EndSplineSet
EndChar

StartChar: imacron
Encoding: 299 299 286
Width: 267
VWidth: 0
Flags: HMW
LayerCount: 2
Fore
SplineSet
112 460 m 1
 258 460 l 1
 178 0 l 1
 34 0 l 1
 112 460 l 1
16 531 m 1
 38 662 l 1
 402 662 l 1
 379 531 l 1
 16 531 l 1
EndSplineSet
EndChar

StartChar: Ibreve
Encoding: 300 300 287
Width: 310
VWidth: 0
Flags: HMW
LayerCount: 2
Fore
SplineSet
162 700 m 1
 333 700 l 1
 212 0 l 1
 44 0 l 1
 162 700 l 1
124 922 m 1
 220 922 l 1
 220 890 235 866 271 864 c 0
 309 862 336 892 346 922 c 1
 445 921 l 1
 427 839 364 776 265 776 c 0
 167 776 118 839 124 922 c 1
EndSplineSet
EndChar

StartChar: ibreve
Encoding: 301 301 288
Width: 267
VWidth: 0
Flags: HMW
LayerCount: 2
Fore
SplineSet
112 460 m 1
 258 460 l 1
 178 0 l 1
 34 0 l 1
 112 460 l 1
60 677 m 1
 156 676 l 1
 156 644 171 620 207 618 c 0
 245 616 272 646 282 676 c 1
 382 676 l 1
 364 594 301 532 202 532 c 0
 104 532 54 594 60 677 c 1
EndSplineSet
EndChar

StartChar: Iogonek
Encoding: 302 302 289
Width: 310
VWidth: 0
Flags: HMW
LayerCount: 2
Fore
SplineSet
162 700 m 1
 333 700 l 1
 212 0 l 1
 44 0 l 1
 162 700 l 1
171 -109 m 1
 194 -180 l 1
 170 -200 139 -218 92 -218 c 0
 30 -218 -16 -179 -8 -117 c 0
 2 -47 81 -7 148 26 c 1
 188 0 l 1
 143 -24 100 -54 93 -92 c 0
 91 -112 97 -126 118 -128 c 0
 136 -130 157 -119 171 -109 c 1
EndSplineSet
EndChar

StartChar: iogonek
Encoding: 303 303 290
Width: 267
VWidth: 0
Flags: HMW
LayerCount: 2
Fore
SplineSet
128 634 m 0
 134 679 180 714 226 714 c 0
 272 714 308 677 302 631 c 0
 296 586 250 552 204 552 c 0
 158 552 122 588 128 634 c 0
112 460 m 1
 258 460 l 1
 178 0 l 1
 34 0 l 1
 112 460 l 1
138 -111 m 1
 160 -182 l 1
 136 -202 106 -220 59 -220 c 0
 -3 -220 -50 -181 -42 -119 c 0
 -32 -49 47 -8 114 25 c 1
 154 0 l 1
 110 -26 67 -56 60 -94 c 0
 58 -114 64 -128 85 -130 c 0
 103 -132 124 -121 138 -111 c 1
EndSplineSet
EndChar

StartChar: Idotaccent
Encoding: 304 304 291
Width: 310
VWidth: 0
Flags: HMW
LayerCount: 2
Fore
SplineSet
162 700 m 1
 333 700 l 1
 212 0 l 1
 44 0 l 1
 162 700 l 1
188 860 m 0
 194 905 240 940 286 940 c 0
 332 940 367 903 361 857 c 0
 355 812 310 776 264 776 c 0
 218 776 182 814 188 860 c 0
EndSplineSet
EndChar

StartChar: uni0136
Encoding: 310 310 292
Width: 678
VWidth: 0
Flags: HMW
LayerCount: 2
Fore
SplineSet
162 700 m 1
 336 700 l 1
 216 0 l 1
 44 0 l 1
 162 700 l 1
561 700 m 1
 762 700 l 1
 426 368 l 1
 652 0 l 1
 456 0 l 1
 230 371 l 1
 561 700 l 1
280 -61 m 1
 428 -94 l 1
 263 -341 l 1
 151 -318 l 1
 280 -61 l 1
EndSplineSet
EndChar

StartChar: uni0137
Encoding: 311 311 293
Width: 559
VWidth: 0
Flags: HMW
LayerCount: 2
Fore
SplineSet
160 780 m 1
 305 780 l 1
 171 0 l 1
 28 0 l 1
 160 780 l 1
407 460 m 1
 591 460 l 1
 362 267 l 1
 525 0 l 1
 356 0 l 1
 188 274 l 1
 407 460 l 1
210 -61 m 1
 358 -94 l 1
 192 -341 l 1
 80 -318 l 1
 210 -61 l 1
EndSplineSet
EndChar

StartChar: Lacute
Encoding: 313 313 294
Width: 512
VWidth: 0
Flags: HMW
LayerCount: 2
Fore
SplineSet
163 700 m 1
 330 700 l 1
 235 146 l 1
 508 146 l 1
 482 0 l 1
 43 0 l 1
 163 700 l 1
578 923 m 1
 381 777 l 1
 300 822 l 1
 471 978 l 1
 578 923 l 1
EndSplineSet
EndChar

StartChar: lacute
Encoding: 314 314 295
Width: 262
VWidth: 0
Flags: HMW
LayerCount: 2
Fore
SplineSet
162 780 m 1
 313 780 l 1
 178 0 l 1
 30 0 l 1
 162 780 l 1
431 987 m 1
 234 840 l 1
 152 885 l 1
 322 1042 l 1
 431 987 l 1
EndSplineSet
EndChar

StartChar: uni013B
Encoding: 315 315 296
Width: 512
VWidth: 0
Flags: HMW
LayerCount: 2
Fore
SplineSet
163 700 m 1
 330 700 l 1
 235 146 l 1
 508 146 l 1
 482 0 l 1
 43 0 l 1
 163 700 l 1
219 -61 m 1
 366 -94 l 1
 202 -341 l 1
 90 -318 l 1
 219 -61 l 1
EndSplineSet
EndChar

StartChar: uni013C
Encoding: 316 316 297
Width: 262
VWidth: 0
Flags: HMW
LayerCount: 2
Fore
SplineSet
162 780 m 1
 313 780 l 1
 178 0 l 1
 30 0 l 1
 162 780 l 1
60 -61 m 1
 208 -94 l 1
 44 -341 l 1
 -70 -318 l 1
 60 -61 l 1
EndSplineSet
EndChar

StartChar: Lcaron
Encoding: 317 317 298
Width: 512
VWidth: 0
Flags: HMW
LayerCount: 2
Fore
SplineSet
163 700 m 1
 330 700 l 1
 235 146 l 1
 508 146 l 1
 482 0 l 1
 43 0 l 1
 163 700 l 1
492 715 m 1
 640 682 l 1
 476 435 l 1
 364 458 l 1
 492 715 l 1
EndSplineSet
EndChar

StartChar: lcaron
Encoding: 318 318 299
Width: 262
VWidth: 0
Flags: HMW
LayerCount: 2
Fore
SplineSet
162 780 m 1
 313 780 l 1
 178 0 l 1
 30 0 l 1
 162 780 l 1
442 779 m 1
 590 746 l 1
 426 499 l 1
 313 522 l 1
 442 779 l 1
EndSplineSet
EndChar

StartChar: Ldot
Encoding: 319 319 300
Width: 512
VWidth: 0
Flags: HMW
LayerCount: 2
Fore
SplineSet
163 700 m 1
 330 700 l 1
 235 146 l 1
 508 146 l 1
 482 0 l 1
 43 0 l 1
 163 700 l 1
359 432 m 0
 365 480 412 522 464 522 c 0
 516 522 550 479 544 430 c 0
 538 382 492 338 440 338 c 0
 388 338 353 383 359 432 c 0
EndSplineSet
EndChar

StartChar: ldot
Encoding: 320 320 301
Width: 462
VWidth: 0
Flags: HMW
LayerCount: 2
Fore
SplineSet
162 780 m 1
 313 780 l 1
 178 0 l 1
 30 0 l 1
 162 780 l 1
286 410 m 0
 292 458 340 500 392 500 c 0
 444 500 478 457 472 408 c 0
 466 360 419 316 367 316 c 0
 315 316 280 361 286 410 c 0
EndSplineSet
EndChar

StartChar: eth
Encoding: 240 240 302
Width: 626
VWidth: 0
Flags: HMW
LayerCount: 2
Fore
SplineSet
294 -16 m 0
 155 -16 53 74 53 214 c 0
 53 361 166 473 301 473 c 0
 383 473 446 430 506 344 c 1
 466 345 l 1
 414 491 334 586 198 685 c 1
 310 761 l 1
 519 577 599 437 599 278 c 0
 599 119 472 -16 294 -16 c 0
306 119 m 0
 381 119 434 183 434 249 c 0
 434 308 397 349 341 349 c 0
 273 349 212 288 212 218 c 0
 212 162 248 119 306 119 c 0
215 507 m 1
 198 562 l 1
 547 674 l 1
 564 619 l 1
 215 507 l 1
EndSplineSet
EndChar

StartChar: racute
Encoding: 341 341 303
Width: 399
VWidth: 0
Flags: HMW
LayerCount: 2
Fore
SplineSet
255 460 m 1
 176 0 l 1
 28 0 l 1
 108 460 l 1
 255 460 l 1
360 304 m 1
 346 318 330 329 307 329 c 0
 257 330 226 282 215 228 c 1
 187 281 l 1
 204 375 274 473 364 471 c 0
 397 471 424 454 442 431 c 1
 360 304 l 1
472 678 m 1
 275 532 l 1
 194 576 l 1
 365 733 l 1
 472 678 l 1
EndSplineSet
EndChar

StartChar: rcaron
Encoding: 345 345 304
Width: 399
VWidth: 0
Flags: HMW
LayerCount: 2
Fore
SplineSet
255 460 m 1
 176 0 l 1
 28 0 l 1
 108 460 l 1
 255 460 l 1
360 304 m 1
 346 318 330 329 307 329 c 0
 257 330 226 282 215 228 c 1
 186 281 l 1
 203 375 274 473 364 471 c 0
 397 471 424 454 442 431 c 1
 360 304 l 1
308 658 m 1
 410 742 l 1
 505 668 l 1
 294 531 l 1
 122 674 l 1
 234 742 l 1
 308 658 l 1
EndSplineSet
EndChar

StartChar: Rcaron
Encoding: 344 344 305
Width: 627
VWidth: 0
Flags: HMW
LayerCount: 2
Fore
SplineSet
270 317 m 1
 438 317 l 1
 596 0 l 1
 406 0 l 1
 270 317 l 1
162 700 m 1
 330 700 l 1
 210 0 l 1
 44 0 l 1
 162 700 l 1
242 556 m 1
 266 700 l 1
 407 700 l 1
 563 698 660 609 639 471 c 0
 617 331 500 244 338 242 c 1
 187 242 l 1
 210 374 l 1
 340 374 l 1
 403 376 455 408 465 466 c 0
 475 522 440 554 380 556 c 1
 242 556 l 1
427 903 m 1
 530 988 l 1
 625 914 l 1
 413 776 l 1
 241 918 l 1
 354 988 l 1
 427 903 l 1
EndSplineSet
EndChar

StartChar: uni0213
Encoding: 531 531 306
Width: 399
VWidth: 0
Flags: HMW
LayerCount: 2
Fore
SplineSet
255 460 m 1
 176 0 l 1
 28 0 l 1
 108 460 l 1
 255 460 l 1
360 304 m 1
 346 318 330 329 307 329 c 0
 257 330 226 282 215 228 c 1
 186 281 l 1
 203 375 274 473 364 471 c 0
 397 471 424 454 442 431 c 1
 360 304 l 1
130 530 m 1
 224 532 l 1
 234 562 260 591 298 590 c 0
 336 589 351 564 352 530 c 1
 447 531 l 1
 457 611 418 676 320 677 c 0
 218 678 153 610 130 530 c 1
EndSplineSet
EndChar

StartChar: uni0212
Encoding: 530 530 307
Width: 627
VWidth: 0
Flags: HMW
LayerCount: 2
Fore
SplineSet
270 317 m 1
 438 317 l 1
 596 0 l 1
 406 0 l 1
 270 317 l 1
162 700 m 1
 330 700 l 1
 210 0 l 1
 44 0 l 1
 162 700 l 1
242 556 m 1
 266 700 l 1
 407 700 l 1
 563 698 660 609 639 471 c 0
 617 331 500 244 338 242 c 1
 187 242 l 1
 210 374 l 1
 340 374 l 1
 403 376 455 408 465 466 c 0
 475 522 440 554 380 556 c 1
 242 556 l 1
262 776 m 1
 357 776 l 1
 367 806 392 837 430 836 c 0
 468 835 485 810 486 776 c 1
 580 776 l 1
 590 856 550 921 452 922 c 0
 350 923 285 856 262 776 c 1
EndSplineSet
EndChar

StartChar: OE
Encoding: 338 338 308
Width: 955
VWidth: 0
Flags: HMW
LayerCount: 2
Fore
SplineSet
568 300 m 1
 592 436 l 1
 951 436 l 1
 927 299 l 1
 568 300 l 1
556 670 m 1
 717 670 l 1
 606 30 l 1
 446 30 l 1
 556 670 l 1
918 138 m 1
 896 0 l 1
 356 0 l 1
 157 4 36 156 64 350 c 0
 94 551 262 697 466 700 c 1
 1016 700 l 1
 990 561 l 1
 625 561 l 1
 606 551 l 1
 480 551 l 1
 348 549 258 475 236 350 c 0
 216 230 273 152 402 149 c 1
 526 149 l 1
 547 139 l 1
 918 138 l 1
EndSplineSet
EndChar

StartChar: oe
Encoding: 339 339 309
Width: 873
VWidth: 0
Flags: HMW
LayerCount: 2
Fore
SplineSet
700 250 m 2
 707 308 698 365 638 368 c 0
 578 371 531 322 519 260 c 1
 511 230 l 1
 501 162 518 99 586 97 c 0
 638 95 675 124 706 158 c 1
 836 124 l 1
 784 51 697 -10 599 -10 c 0
 470 -10 412 108 428 230 c 0
 430 247 435 263 440 279 c 0
 474 386 568 470 686 470 c 0
 806 470 868 358 854 234 c 0
 852 224 848 208 846 198 c 1
 698 231 l 1
 700 250 l 2
474 198 m 1
 487 281 l 1
 841 281 l 1
 846 198 l 1
 474 198 l 1
44 230 m 0
 63 366 174 470 304 470 c 0
 434 470 482 358 466 230 c 0
 448 97 361 -10 232 -10 c 0
 102 -10 26 99 44 230 c 0
192 230 m 0
 183 168 210 117 272 116 c 0
 333 115 382 165 392 230 c 0
 400 290 379 342 319 344 c 0
 257 346 202 296 192 230 c 0
EndSplineSet
EndChar

StartChar: a.alt
Encoding: 65536 -1 310
Width: 525
VWidth: 0
Flags: HMW
LayerCount: 2
Fore
SplineSet
168 140 m 0
 164 108 189 90 220 89 c 0
 277 87 321 130 336 186 c 1
 344 127 l 1
 325 42 250 -10 160 -10 c 0
 74 -10 5 44 17 134 c 0
 31 226 117 278 223 278 c 0
 291 278 345 257 377 227 c 1
 366 160 l 1
 336 184 299 196 257 196 c 0
 210 196 172 177 168 140 c 0
139 318 m 1
 103 421 l 1
 163 447 235 473 315 473 c 0
 421 473 516 424 502 324 c 1
 447 0 l 1
 303 0 l 1
 356 292 l 1
 362 334 336 355 288 357 c 0
 232 359 171 334 139 318 c 1
EndSplineSet
EndChar

StartChar: Jcircumflex
Encoding: 308 308 312
Width: 320
VWidth: 0
Flags: HMW
LayerCount: 2
Fore
SplineSet
-112 -64 m 1
 -93 -82 -68 -96 -40 -96 c 0
 -3 -95 32 -64 40 -16 c 1
 163 700 l 1
 344 700 l 1
 215 -54 l 2
 193 -179 86 -238 -38 -238 c 0
 -109 -238 -172 -210 -218 -180 c 1
 -112 -64 l 1
284 861 m 1
 181 776 l 1
 86 850 l 1
 298 988 l 1
 469 845 l 1
 358 776 l 1
 284 861 l 1
EndSplineSet
EndChar

StartChar: jcircumflex
Encoding: 309 309 313
Width: 263
VWidth: 0
Flags: HMW
LayerCount: 2
Fore
SplineSet
-76 -78 m 1
 -66 -92 -54 -103 -36 -103 c 0
 -4 -103 18 -71 24 -34 c 1
 110 460 l 1
 254 460 l 1
 164 -73 l 2
 147 -171 78 -239 -31 -238 c 0
 -89 -238 -124 -212 -151 -186 c 1
 -76 -78 l 1
212 615 m 1
 108 531 l 1
 14 604 l 1
 226 742 l 1
 397 600 l 1
 286 530 l 1
 212 615 l 1
EndSplineSet
EndChar

StartChar: Nacute
Encoding: 323 323 314
Width: 769
VWidth: 0
Flags: HMW
LayerCount: 2
Fore
SplineSet
632 700 m 1
 792 700 l 1
 668 -34 l 1
 272 394 l 1
 204 0 l 1
 43 0 l 1
 168 734 l 1
 564 306 l 1
 632 700 l 1
661 908 m 1
 464 762 l 1
 382 806 l 1
 553 963 l 1
 661 908 l 1
EndSplineSet
EndChar

StartChar: nacute
Encoding: 324 324 315
Width: 557
VWidth: 0
Flags: HMW
LayerCount: 2
Fore
SplineSet
258 460 m 1
 178 0 l 1
 28 0 l 1
 108 460 l 1
 258 460 l 1
368 280 m 1
 372 323 368 361 321 364 c 0
 273 367 237 324 226 280 c 1
 199 275 l 1
 217 377 276 470 390 470 c 0
 500 470 536 398 524 296 c 1
 474 0 l 1
 319 0 l 1
 368 280 l 1
528 678 m 1
 332 532 l 1
 251 576 l 1
 421 732 l 1
 528 678 l 1
EndSplineSet
EndChar

StartChar: uni0145
Encoding: 325 325 316
Width: 769
VWidth: 0
Flags: HMW
LayerCount: 2
Fore
SplineSet
314 -55 m 1
 460 -88 l 1
 297 -335 l 1
 184 -312 l 1
 314 -55 l 1
632 700 m 1
 792 700 l 1
 668 -34 l 1
 272 394 l 1
 204 0 l 1
 43 0 l 1
 168 734 l 1
 564 306 l 1
 632 700 l 1
EndSplineSet
EndChar

StartChar: uni0146
Encoding: 326 326 317
Width: 557
VWidth: 0
Flags: HMW
LayerCount: 2
Fore
SplineSet
258 460 m 1
 178 0 l 1
 28 0 l 1
 108 460 l 1
 258 460 l 1
368 280 m 1
 372 323 368 361 321 364 c 0
 273 367 237 324 226 280 c 1
 196 275 l 1
 214 377 276 470 390 470 c 0
 500 470 536 398 524 296 c 1
 474 0 l 1
 319 0 l 1
 368 280 l 1
208 -61 m 1
 355 -94 l 1
 191 -341 l 1
 78 -318 l 1
 208 -61 l 1
EndSplineSet
EndChar

StartChar: Ncaron
Encoding: 327 327 318
Width: 769
VWidth: 0
Flags: HMW
LayerCount: 2
Fore
SplineSet
488 903 m 1
 590 988 l 1
 684 914 l 1
 473 776 l 1
 302 918 l 1
 414 988 l 1
 488 903 l 1
632 700 m 1
 792 700 l 1
 668 -34 l 1
 272 394 l 1
 204 0 l 1
 43 0 l 1
 168 734 l 1
 564 306 l 1
 632 700 l 1
EndSplineSet
EndChar

StartChar: ncaron
Encoding: 328 328 319
Width: 557
VWidth: 0
Flags: HMW
LayerCount: 2
Fore
SplineSet
258 460 m 1
 178 0 l 1
 28 0 l 1
 108 460 l 1
 258 460 l 1
368 280 m 1
 372 323 368 361 321 364 c 0
 273 367 237 324 226 280 c 1
 196 275 l 1
 214 377 276 470 390 470 c 0
 500 470 536 398 524 296 c 1
 474 0 l 1
 319 0 l 1
 368 280 l 1
360 657 m 1
 463 742 l 1
 558 668 l 1
 346 531 l 1
 174 674 l 1
 286 742 l 1
 360 657 l 1
EndSplineSet
EndChar

StartChar: Omacron
Encoding: 332 332 320
Width: 796
VWidth: 0
Flags: HMW
LayerCount: 2
Fore
SplineSet
240 350 m 0
 223 242 272 142 390 140 c 0
 510 138 602 235 622 350 c 0
 640 458 592 559 472 560 c 0
 352 561 260 465 240 350 c 0
64 350 m 0
 96 558 275 716 488 716 c 0
 699 716 827 550 798 350 c 0
 766 142 590 -22 372 -22 c 0
 158 -22 35 150 64 350 c 0
322 776 m 1
 345 908 l 1
 708 908 l 1
 685 776 l 1
 322 776 l 1
EndSplineSet
EndChar

StartChar: omacron
Encoding: 333 333 321
Width: 571
VWidth: 0
Flags: HMW
LayerCount: 2
Fore
SplineSet
42 230 m 0
 62 370 187 470 334 470 c 0
 478 470 575 368 555 230 c 0
 535 90 408 -10 262 -10 c 0
 118 -10 22 92 42 230 c 0
195 230 m 0
 186 170 215 117 275 116 c 0
 337 115 392 166 402 230 c 0
 411 290 382 345 322 346 c 0
 260 347 205 294 195 230 c 0
168 531 m 1
 191 662 l 1
 554 662 l 1
 531 531 l 1
 168 531 l 1
EndSplineSet
EndChar

StartChar: Obreve
Encoding: 334 334 322
Width: 796
VWidth: 0
Flags: HMW
LayerCount: 2
Fore
SplineSet
240 350 m 0
 223 242 272 142 390 140 c 0
 510 138 602 235 622 350 c 0
 640 458 592 559 472 560 c 0
 352 561 260 465 240 350 c 0
64 350 m 0
 96 558 275 716 488 716 c 0
 699 716 827 550 798 350 c 0
 766 142 590 -22 372 -22 c 0
 158 -22 35 150 64 350 c 0
368 922 m 1
 464 922 l 1
 464 890 478 866 514 864 c 0
 552 862 579 892 589 922 c 1
 688 921 l 1
 670 839 607 776 508 776 c 0
 410 776 362 839 368 922 c 1
EndSplineSet
EndChar

StartChar: obreve
Encoding: 335 335 323
Width: 571
VWidth: 0
Flags: HMW
LayerCount: 2
Fore
SplineSet
42 230 m 0
 62 370 187 470 334 470 c 0
 478 470 575 368 555 230 c 0
 535 90 408 -10 262 -10 c 0
 118 -10 22 92 42 230 c 0
195 230 m 0
 186 170 215 117 275 116 c 0
 337 115 392 166 402 230 c 0
 411 290 382 345 322 346 c 0
 260 347 205 294 195 230 c 0
214 677 m 1
 310 676 l 1
 310 644 324 620 360 618 c 0
 398 616 424 646 434 676 c 1
 534 676 l 1
 516 594 453 532 354 532 c 0
 256 532 208 594 214 677 c 1
EndSplineSet
EndChar

StartChar: Racute
Encoding: 340 340 324
Width: 627
VWidth: 0
Flags: HMW
LayerCount: 2
Fore
SplineSet
270 317 m 1
 438 317 l 1
 596 0 l 1
 406 0 l 1
 270 317 l 1
162 700 m 1
 330 700 l 1
 210 0 l 1
 44 0 l 1
 162 700 l 1
242 556 m 1
 266 700 l 1
 407 700 l 1
 563 698 660 609 639 471 c 0
 617 331 500 244 338 242 c 1
 187 242 l 1
 210 374 l 1
 340 374 l 1
 403 376 455 408 465 466 c 0
 475 522 440 554 380 556 c 1
 242 556 l 1
588 923 m 1
 390 777 l 1
 309 822 l 1
 480 978 l 1
 588 923 l 1
EndSplineSet
EndChar

StartChar: uni0156
Encoding: 342 342 325
Width: 627
VWidth: 0
Flags: HMW
LayerCount: 2
Fore
SplineSet
270 317 m 1
 438 317 l 1
 596 0 l 1
 406 0 l 1
 270 317 l 1
162 700 m 1
 330 700 l 1
 210 0 l 1
 44 0 l 1
 162 700 l 1
242 556 m 1
 266 700 l 1
 407 700 l 1
 563 698 660 609 639 471 c 0
 617 331 500 244 338 242 c 1
 187 242 l 1
 210 374 l 1
 340 374 l 1
 403 376 455 408 465 466 c 0
 475 522 440 554 380 556 c 1
 242 556 l 1
277 -61 m 1
 424 -94 l 1
 260 -341 l 1
 148 -318 l 1
 277 -61 l 1
EndSplineSet
EndChar

StartChar: uni0157
Encoding: 343 343 326
Width: 399
VWidth: 0
Flags: HMW
LayerCount: 2
Fore
SplineSet
255 460 m 1
 176 0 l 1
 28 0 l 1
 108 460 l 1
 255 460 l 1
360 304 m 1
 346 318 330 329 307 329 c 0
 257 330 226 282 215 228 c 1
 186 281 l 1
 203 375 274 473 364 471 c 0
 397 471 424 454 442 431 c 1
 360 304 l 1
59 -61 m 1
 206 -94 l 1
 42 -341 l 1
 -70 -318 l 1
 59 -61 l 1
EndSplineSet
EndChar

StartChar: Scedilla
Encoding: 350 350 327
Width: 606
VWidth: 0
Flags: HMW
LayerCount: 2
Fore
SplineSet
161 251 m 1
 193 179 230 126 304 126 c 0
 354 126 394 150 402 194 c 0
 414 254 345 276 284 302 c 0
 206 336 117 398 132 518 c 0
 150 638 265 716 402 716 c 0
 529 716 602 649 630 561 c 1
 496 490 l 1
 473 538 443 572 390 572 c 0
 347 572 310 548 302 512 c 0
 290 460 376 437 436 413 c 0
 529 375 591 304 577 196 c 0
 557 56 434 -22 284 -22 c 0
 160 -22 65 54 33 168 c 1
 161 251 l 1
262 60 m 1
 376 56 l 1
 266 -66 l 1
 276 -64 288 -62 300 -62 c 0
 346 -64 383 -103 376 -160 c 0
 367 -228 297 -267 234 -268 c 0
 181 -269 140 -255 96 -227 c 1
 150 -161 l 1
 172 -176 200 -186 222 -186 c 0
 248 -186 281 -172 283 -148 c 0
 285 -124 255 -118 233 -118 c 0
 213 -117 180 -122 148 -132 c 1
 262 60 l 1
EndSplineSet
EndChar

StartChar: scedilla
Encoding: 351 351 328
Width: 442
VWidth: 0
Flags: HMW
LayerCount: 2
Fore
SplineSet
78 175 m 1
 130 124 176 92 216 94 c 0
 240 94 264 108 268 130 c 0
 274 167 226 181 187 196 c 0
 123 222 71 260 81 340 c 0
 94 426 176 470 267 470 c 0
 341 470 402 441 452 401 c 1
 385 304 l 1
 355 336 314 366 274 366 c 0
 248 366 222 355 218 335 c 0
 210 299 272 286 312 270 c 0
 374 244 425 205 416 130 c 0
 404 30 326 -18 226 -18 c 0
 134 -18 63 20 4 76 c 1
 78 175 l 1
199 63 m 1
 312 60 l 1
 204 -62 l 1
 214 -60 225 -58 236 -58 c 0
 282 -60 320 -99 314 -156 c 0
 305 -224 233 -263 170 -264 c 0
 118 -265 76 -252 32 -224 c 1
 85 -157 l 1
 107 -172 135 -182 157 -182 c 0
 183 -182 218 -170 220 -146 c 0
 222 -122 190 -114 168 -114 c 0
 148 -113 116 -120 84 -130 c 1
 199 63 l 1
EndSplineSet
EndChar

StartChar: Zcaron
Encoding: 381 381 329
Width: 601
VWidth: 0
Flags: HMW
LayerCount: 2
Fore
SplineSet
120 548 m 1
 146 700 l 1
 684 700 l 1
 269 146 l 1
 554 146 l 1
 528 0 l 1
 -22 0 l 1
 388 548 l 1
 120 548 l 1
444 903 m 1
 548 988 l 1
 642 914 l 1
 430 776 l 1
 259 918 l 1
 371 988 l 1
 444 903 l 1
EndSplineSet
EndChar

StartChar: zcaron
Encoding: 382 382 330
Width: 500
VWidth: 0
Flags: HMW
LayerCount: 2
Fore
SplineSet
355 657 m 1
 458 741 l 1
 553 667 l 1
 341 530 l 1
 170 672 l 1
 282 742 l 1
 355 657 l 1
274 322 m 1
 82 322 l 1
 106 460 l 1
 548 460 l 1
 268 138 l 1
 459 138 l 1
 435 0 l 1
 -16 0 l 1
 274 322 l 1
EndSplineSet
EndChar

StartChar: Ydieresis
Encoding: 376 376 331
Width: 640
VWidth: 0
Flags: HMW
LayerCount: 2
Fore
SplineSet
219 870 m 0
 225 915 270 950 316 950 c 0
 362 950 398 914 392 868 c 0
 386 823 340 788 294 788 c 0
 247 788 213 824 219 870 c 0
492 870 m 0
 498 915 543 950 589 950 c 0
 635 950 670 914 664 868 c 0
 658 823 613 788 567 788 c 0
 520 788 486 824 492 870 c 0
542 700 m 1
 738 700 l 1
 426 281 l 1
 378 0 l 1
 208 0 l 1
 259 288 l 1
 92 700 l 1
 280 700 l 1
 366 440 l 1
 542 700 l 1
EndSplineSet
EndChar

StartChar: Scaron
Encoding: 352 352 332
Width: 606
VWidth: 0
Flags: HMW
LayerCount: 2
Fore
SplineSet
161 251 m 1
 193 179 230 126 304 126 c 0
 354 126 394 150 402 194 c 0
 414 254 345 276 284 302 c 0
 206 336 117 402 132 520 c 0
 150 640 268 716 402 716 c 0
 529 716 605 647 630 561 c 1
 496 490 l 1
 474 537 446 572 393 572 c 0
 349 572 310 548 302 512 c 0
 290 460 376 437 436 413 c 0
 529 375 591 304 577 196 c 0
 557 56 436 -22 284 -22 c 0
 160 -22 65 54 33 168 c 1
 161 251 l 1
435 903 m 1
 538 988 l 1
 633 914 l 1
 420 776 l 1
 250 918 l 1
 361 988 l 1
 435 903 l 1
EndSplineSet
EndChar

StartChar: scaron
Encoding: 353 353 333
Width: 442
VWidth: 0
Flags: HMW
LayerCount: 2
Fore
SplineSet
80 174 m 1
 128 125 171 98 214 98 c 0
 238 98 263 107 267 129 c 0
 273 163 200 178 162 196 c 0
 105 224 61 266 70 337 c 0
 83 425 175 470 267 470 c 0
 341 470 404 440 452 400 c 1
 386 304 l 1
 354 336 306 360 266 360 c 0
 240 360 214 350 211 330 c 0
 206 300 273 284 312 268 c 0
 374 242 425 203 416 130 c 0
 404 30 325 -18 222 -18 c 0
 130 -18 57 20 4 76 c 1
 80 174 l 1
298 645 m 1
 400 729 l 1
 496 656 l 1
 284 518 l 1
 112 660 l 1
 224 730 l 1
 298 645 l 1
EndSplineSet
EndChar

StartChar: Lslash
Encoding: 321 321 334
Width: 518
VWidth: 0
Flags: HMW
LayerCount: 2
Fore
SplineSet
33 309 m 1
 6 386 l 1
 399 628 l 1
 426 552 l 1
 33 309 l 1
163 700 m 1
 330 700 l 1
 235 146 l 1
 508 146 l 1
 482 0 l 1
 43 0 l 1
 163 700 l 1
EndSplineSet
EndChar

StartChar: lslash
Encoding: 322 322 335
Width: 262
VWidth: 0
Flags: HMW
LayerCount: 2
Fore
SplineSet
21 309 m 1
 -6 386 l 1
 352 602 l 1
 378 526 l 1
 21 309 l 1
162 780 m 1
 313 780 l 1
 178 0 l 1
 30 0 l 1
 162 780 l 1
EndSplineSet
EndChar

StartChar: uni0218
Encoding: 536 536 336
Width: 606
VWidth: 0
Flags: HMW
LayerCount: 2
Fore
SplineSet
161 251 m 1
 193 179 230 126 304 126 c 0
 354 126 394 150 402 194 c 0
 414 254 345 276 284 302 c 0
 206 336 117 402 132 520 c 0
 150 640 268 716 402 716 c 0
 529 716 605 647 630 561 c 1
 496 490 l 1
 474 537 446 572 393 572 c 0
 349 572 310 548 302 512 c 0
 290 460 376 437 436 413 c 0
 529 375 591 304 577 196 c 0
 557 56 436 -22 284 -22 c 0
 160 -22 65 54 33 168 c 1
 161 251 l 1
212 -71 m 1
 360 -104 l 1
 195 -351 l 1
 83 -328 l 1
 212 -71 l 1
EndSplineSet
EndChar

StartChar: uni0219
Encoding: 537 537 337
Width: 442
VWidth: 0
Flags: HMW
LayerCount: 2
Fore
SplineSet
80 174 m 1
 128 125 171 98 214 98 c 0
 238 98 263 107 267 129 c 0
 273 163 200 178 162 196 c 0
 105 224 61 266 70 337 c 0
 83 425 175 470 267 470 c 0
 341 470 404 440 452 400 c 1
 386 304 l 1
 354 336 306 360 266 360 c 0
 240 360 214 350 211 330 c 0
 206 300 273 284 312 268 c 0
 374 242 425 203 416 130 c 0
 404 30 325 -18 222 -18 c 0
 130 -18 57 20 4 76 c 1
 80 174 l 1
151 -68 m 1
 298 -101 l 1
 134 -348 l 1
 22 -324 l 1
 151 -68 l 1
EndSplineSet
EndChar

StartChar: pi
Encoding: 960 960 338
Width: 584
VWidth: 0
Flags: HMW
LayerCount: 2
Fore
SplineSet
132 430 m 1
 274 430 l 1
 199 0 l 1
 59 0 l 1
 132 430 l 1
80 460 m 1
 599 460 l 1
 577 335 l 1
 58 335 l 1
 80 460 l 1
376 430 m 1
 516 430 l 1
 472 178 l 1
 466 125 478 116 512 108 c 1
 494 -8 l 1
 385 -6 309 5 323 121 c 1
 376 430 l 1
EndSplineSet
EndChar

StartChar: trademark
Encoding: 8482 8482 339
Width: 723
VWidth: 0
Flags: HMW
LayerCount: 2
Fore
SplineSet
107 624 m 1
 120 700 l 1
 392 700 l 1
 378 624 l 1
 286 624 l 1
 238 350 l 1
 153 350 l 1
 200 624 l 1
 107 624 l 1
658 596 m 1
 742 724 l 1
 732 350 l 1
 644 350 l 1
 658 596 l 1
448 718 m 1
 488 588 l 1
 420 350 l 1
 330 350 l 1
 448 718 l 1
745 724 m 1
 720 599 l 1
 539 380 l 1
 430 608 l 1
 448 717 l 1
 555 506 l 1
 745 724 l 1
EndSplineSet
EndChar

StartChar: uni2219
Encoding: 8729 8729 340
Width: 312
VWidth: 0
Flags: HMW
LayerCount: 2
Fore
SplineSet
112 444 m 0
 118 492 166 536 218 536 c 0
 270 536 304 491 298 442 c 0
 292 394 244 352 192 352 c 0
 140 352 106 395 112 444 c 0
EndSplineSet
EndChar

StartChar: agrave.alt
Encoding: 65537 -1 341
Width: 527
VWidth: 0
Flags: HMW
LayerCount: 2
Fore
SplineSet
168 137 m 0
 164 106 187 91 220 90 c 0
 279 88 324 125 339 186 c 1
 346 129 l 1
 327 44 255 -10 161 -10 c 0
 69 -10 4 42 16 128 c 0
 30 224 126 278 232 278 c 0
 294 278 350 257 380 229 c 1
 369 160 l 1
 337 184 306 197 260 196 c 0
 216 195 174 175 168 137 c 0
143 318 m 1
 107 421 l 1
 167 447 239 473 317 473 c 0
 424 473 518 424 505 324 c 1
 450 0 l 1
 306 0 l 1
 358 294 l 1
 360 332 339 355 294 357 c 0
 235 359 177 334 143 318 c 1
190 686 m 1
 308 736 l 1
 429 573 l 1
 343 533 l 1
 190 686 l 1
EndSplineSet
EndChar

StartChar: aacute.alt
Encoding: 65538 -1 342
Width: 527
VWidth: 0
Flags: HMW
LayerCount: 2
Fore
SplineSet
168 137 m 0
 164 106 187 91 220 90 c 0
 279 88 324 125 339 186 c 1
 346 129 l 1
 327 44 255 -10 161 -10 c 0
 69 -10 4 42 16 128 c 0
 30 224 126 278 232 278 c 0
 294 278 350 257 380 229 c 1
 369 160 l 1
 337 184 306 197 260 196 c 0
 216 195 174 175 168 137 c 0
143 318 m 1
 107 421 l 1
 167 447 239 473 317 473 c 0
 424 473 518 424 505 324 c 1
 450 0 l 1
 306 0 l 1
 358 294 l 1
 360 332 339 355 294 357 c 0
 235 359 177 334 143 318 c 1
526 680 m 1
 328 534 l 1
 248 578 l 1
 418 735 l 1
 526 680 l 1
EndSplineSet
EndChar

StartChar: acircumflex.alt
Encoding: 65539 -1 343
Width: 527
VWidth: 0
Flags: HMW
LayerCount: 2
Fore
SplineSet
168 137 m 0
 164 106 187 91 220 90 c 0
 279 88 324 125 339 186 c 1
 346 129 l 1
 327 44 255 -10 161 -10 c 0
 69 -10 4 42 16 128 c 0
 30 224 126 278 232 278 c 0
 294 278 350 257 380 229 c 1
 369 160 l 1
 337 184 306 197 260 196 c 0
 216 195 174 175 168 137 c 0
143 318 m 1
 107 421 l 1
 167 447 239 473 317 473 c 0
 424 473 518 424 505 324 c 1
 450 0 l 1
 306 0 l 1
 358 294 l 1
 360 332 339 355 294 357 c 0
 235 359 177 334 143 318 c 1
350 618 m 1
 247 534 l 1
 152 607 l 1
 364 744 l 1
 536 602 l 1
 424 532 l 1
 350 618 l 1
EndSplineSet
EndChar

StartChar: atilde.alt
Encoding: 65540 -1 344
Width: 527
VWidth: 0
Flags: HMW
LayerCount: 2
Fore
SplineSet
168 137 m 0
 164 106 187 91 220 90 c 0
 279 88 324 125 339 186 c 1
 346 129 l 1
 327 44 255 -10 161 -10 c 0
 69 -10 4 42 16 128 c 0
 30 224 126 278 232 278 c 0
 294 278 350 257 380 229 c 1
 369 160 l 1
 337 184 306 197 260 196 c 0
 216 195 174 175 168 137 c 0
143 318 m 1
 107 421 l 1
 167 447 239 473 317 473 c 0
 424 473 518 424 505 324 c 1
 450 0 l 1
 306 0 l 1
 358 294 l 1
 360 332 339 355 294 357 c 0
 235 359 177 334 143 318 c 1
152 600 m 1
 173 646 218 694 280 692 c 0
 334 691 354 640 404 642 c 0
 432 643 456 668 478 694 c 1
 538 618 l 1
 512 580 457 534 397 536 c 0
 349 538 316 590 270 587 c 0
 236 585 223 555 215 537 c 1
 152 600 l 1
EndSplineSet
EndChar

StartChar: adieresis.alt
Encoding: 65541 -1 345
Width: 527
VWidth: 0
Flags: HMW
LayerCount: 2
Fore
SplineSet
168 137 m 0
 164 106 187 91 220 90 c 0
 279 88 324 125 339 186 c 1
 346 129 l 1
 327 44 255 -10 161 -10 c 0
 69 -10 4 42 16 128 c 0
 30 224 126 278 232 278 c 0
 294 278 350 257 380 229 c 1
 369 160 l 1
 337 184 306 197 260 196 c 0
 216 195 174 175 168 137 c 0
143 318 m 1
 107 421 l 1
 167 447 239 473 317 473 c 0
 424 473 518 424 505 324 c 1
 450 0 l 1
 306 0 l 1
 358 294 l 1
 360 332 339 355 294 357 c 0
 235 359 177 334 143 318 c 1
378 616 m 0
 384 661 429 696 475 696 c 0
 521 696 556 660 550 614 c 0
 544 569 499 534 453 534 c 0
 407 534 372 570 378 616 c 0
141 616 m 0
 147 661 192 696 238 696 c 0
 284 696 320 660 314 614 c 0
 308 569 262 534 216 534 c 0
 170 534 135 570 141 616 c 0
EndSplineSet
EndChar

StartChar: aring.alt
Encoding: 65542 -1 346
Width: 527
VWidth: 0
Flags: HMW
LayerCount: 2
Fore
SplineSet
168 137 m 0
 164 106 187 91 220 90 c 0
 279 88 324 125 339 186 c 1
 346 129 l 1
 327 44 255 -10 161 -10 c 0
 69 -10 4 42 16 128 c 0
 30 224 126 278 232 278 c 0
 294 278 350 257 380 229 c 1
 369 160 l 1
 337 184 306 197 260 196 c 0
 216 195 174 175 168 137 c 0
143 318 m 1
 107 421 l 1
 167 447 239 473 317 473 c 0
 424 473 518 424 505 324 c 1
 450 0 l 1
 306 0 l 1
 358 294 l 1
 360 332 339 355 294 357 c 0
 235 359 177 334 143 318 c 1
229 650 m 0
 238 716 299 764 367 764 c 0
 435 764 483 714 474 648 c 0
 465 582 404 534 336 534 c 0
 268 534 220 584 229 650 c 0
306 648 m 0
 304 624 318 603 340 602 c 0
 364 600 392 625 396 650 c 0
 398 674 384 695 362 696 c 0
 338 698 310 673 306 648 c 0
EndSplineSet
EndChar

StartChar: amacron.alt
Encoding: 65543 -1 347
Width: 527
VWidth: 0
Flags: HMW
LayerCount: 2
Fore
SplineSet
168 137 m 0
 164 106 187 91 220 90 c 0
 279 88 324 125 339 186 c 1
 346 129 l 1
 327 44 255 -10 161 -10 c 0
 69 -10 4 42 16 128 c 0
 30 224 126 278 232 278 c 0
 294 278 350 257 380 229 c 1
 369 160 l 1
 337 184 306 197 260 196 c 0
 216 195 174 175 168 137 c 0
143 318 m 1
 107 421 l 1
 167 447 239 473 317 473 c 0
 424 473 518 424 505 324 c 1
 450 0 l 1
 306 0 l 1
 358 294 l 1
 360 332 339 355 294 357 c 0
 235 359 177 334 143 318 c 1
151 541 m 1
 174 672 l 1
 538 672 l 1
 515 541 l 1
 151 541 l 1
EndSplineSet
EndChar

StartChar: abreve.alt
Encoding: 65544 -1 348
Width: 527
VWidth: 0
Flags: HMW
LayerCount: 2
Fore
SplineSet
168 137 m 0
 164 106 187 91 220 90 c 0
 279 88 324 125 339 186 c 1
 346 129 l 1
 327 44 255 -10 161 -10 c 0
 69 -10 4 42 16 128 c 0
 30 224 126 278 232 278 c 0
 294 278 350 257 380 229 c 1
 369 160 l 1
 337 184 306 197 260 196 c 0
 216 195 174 175 168 137 c 0
143 318 m 1
 107 421 l 1
 167 447 239 473 317 473 c 0
 424 473 518 424 505 324 c 1
 450 0 l 1
 306 0 l 1
 358 294 l 1
 360 332 339 355 294 357 c 0
 235 359 177 334 143 318 c 1
196 679 m 1
 292 679 l 1
 292 647 306 622 342 620 c 0
 380 618 406 648 416 678 c 1
 516 678 l 1
 498 596 435 534 336 534 c 0
 238 534 190 596 196 679 c 1
EndSplineSet
EndChar

StartChar: aogonek.alt
Encoding: 65545 -1 349
Width: 527
VWidth: 0
Flags: HMW
LayerCount: 2
Fore
SplineSet
168 137 m 0
 164 107 190 91 220 90 c 0
 279 88 324 125 339 186 c 1
 346 129 l 1
 327 44 255 -10 161 -10 c 0
 71 -10 5 44 17 132 c 0
 31 226 124 278 232 278 c 0
 294 278 350 257 380 229 c 1
 369 160 l 1
 337 184 306 197 260 196 c 0
 216 195 174 175 168 137 c 0
143 318 m 1
 107 421 l 1
 167 447 239 473 317 473 c 0
 424 473 518 424 505 324 c 1
 450 0 l 1
 306 0 l 1
 358 294 l 1
 360 332 339 355 294 357 c 0
 235 359 177 334 143 318 c 1
403 -111 m 1
 426 -182 l 1
 402 -202 371 -220 324 -220 c 0
 262 -220 215 -181 223 -119 c 0
 233 -49 313 -8 380 25 c 1
 420 0 l 1
 376 -26 332 -56 325 -94 c 0
 323 -114 329 -128 350 -130 c 0
 368 -132 389 -121 403 -111 c 1
EndSplineSet
EndChar

StartChar: dagger
Encoding: 8224 8224 350
Width: 613
VWidth: 0
Flags: HMW
LayerCount: 2
Fore
SplineSet
152 540 m 1
 594 540 l 1
 574 415 l 1
 132 415 l 1
 152 540 l 1
327 700 m 1
 468 700 l 1
 337 -150 l 1
 196 -150 l 1
 327 700 l 1
EndSplineSet
EndChar

StartChar: daggerdbl
Encoding: 8225 8225 351
Width: 613
VWidth: 0
Flags: HMW
LayerCount: 2
Fore
SplineSet
94 158 m 1
 535 158 l 1
 515 32 l 1
 74 32 l 1
 94 158 l 1
152 540 m 1
 594 540 l 1
 574 415 l 1
 132 415 l 1
 152 540 l 1
327 700 m 1
 468 700 l 1
 337 -150 l 1
 196 -150 l 1
 327 700 l 1
EndSplineSet
EndChar

StartChar: ellipsis
Encoding: 8230 8230 352
Width: 897
VWidth: 0
Flags: HMW
LayerCount: 2
Fore
SplineSet
48 69 m 0
 54 117 102 160 154 160 c 0
 206 160 240 116 234 67 c 0
 228 19 180 -24 128 -24 c 0
 76 -24 42 20 48 69 c 0
340 69 m 0
 346 117 392 160 444 160 c 0
 496 160 531 116 525 67 c 0
 519 19 472 -24 420 -24 c 0
 368 -24 334 20 340 69 c 0
630 69 m 0
 636 117 684 160 736 160 c 0
 788 160 822 116 816 67 c 0
 810 19 762 -24 710 -24 c 0
 658 -24 624 20 630 69 c 0
EndSplineSet
EndChar

StartChar: uniFF10
Encoding: 65296 65296 353
Width: 610
VWidth: 0
Flags: HMW
LayerCount: 2
Fore
SplineSet
214 350 m 0
 204 256 206 135 296 133 c 0
 386 131 446 244 461 350 c 0
 471 444 469 565 379 567 c 0
 289 569 229 456 214 350 c 0
54 350 m 0
 82 549 208 713 394 713 c 0
 584 713 646 538 622 350 c 0
 594 150 469 -13 280 -13 c 0
 94 -13 30 162 54 350 c 0
EndSplineSet
EndChar

StartChar: uniFF11
Encoding: 65297 65297 354
Width: 610
VWidth: 0
Flags: HMW
LayerCount: 2
Fore
SplineSet
161 496 m 1
 188 646 l 1
 529 714 l 1
 406 0 l 1
 245 0 l 1
 337 538 l 1
 161 496 l 1
EndSplineSet
EndChar

StartChar: uniFF12
Encoding: 65298 65298 355
Width: 610
VWidth: 0
Flags: HMW
LayerCount: 2
Fore
SplineSet
-18 0 m 1
 340 323 l 2
 394 374 447 419 458 480 c 0
 465 524 442 566 386 568 c 0
 318 570 271 508 257 442 c 1
 94 442 l 1
 121 590 234 714 408 714 c 0
 558 714 649 607 630 488 c 0
 618 411 566 351 503 301 c 2
 320 156 l 1
 590 154 l 1
 564 0 l 1
 -18 0 l 1
EndSplineSet
EndChar

StartChar: uniFF13
Encoding: 65299 65299 356
Width: 610
VWidth: 0
Flags: HMW
LayerCount: 2
Fore
SplineSet
296 340 m 1
 308 414 l 1
 375 418 441 451 450 508 c 0
 455 546 436 577 390 578 c 0
 338 580 299 539 286 495 c 1
 131 496 l 1
 155 620 261 713 404 713 c 0
 538 713 634 632 616 518 c 0
 594 386 444 342 296 340 c 1
282 -16 m 0
 126 -16 41 92 53 222 c 1
 216 222 l 1
 212 162 242 122 302 120 c 0
 358 119 408 152 418 208 c 0
 432 274 370 303 290 306 c 1
 302 392 l 1
 454 390 603 339 580 190 c 0
 560 62 434 -16 282 -16 c 0
EndSplineSet
EndChar

StartChar: uniFF14
Encoding: 65300 65300 357
Width: 610
VWidth: 0
Flags: HMW
LayerCount: 2
Fore
SplineSet
1 124 m 1
 156 246 l 1
 426 246 l 1
 446 268 l 1
 612 268 l 1
 588 124 l 1
 1 124 l 1
171 174 m 1
 -2 121 l 1
 465 700 l 1
 592 700 l 1
 472 0 l 1
 298 0 l 1
 326 160 l 1
 346 171 l 1
 392 446 l 1
 171 174 l 1
EndSplineSet
EndChar

StartChar: uniFF15
Encoding: 65301 65301 358
Width: 610
VWidth: 0
Flags: HMW
LayerCount: 2
Fore
SplineSet
586 224 m 0
 564 70 414 -13 274 -13 c 0
 160 -13 79 26 13 79 c 1
 97 216 l 1
 143 172 200 142 256 142 c 0
 331 142 397 174 408 242 c 0
 418 306 360 339 298 340 c 0
 235 342 165 327 96 298 c 1
 220 380 l 1
 276 428 339 453 412 452 c 0
 530 450 602 350 586 224 c 0
357 552 m 1
 270 378 l 1
 89 292 l 1
 256 700 l 1
 653 700 l 1
 628 554 l 1
 357 552 l 1
EndSplineSet
EndChar

StartChar: uniFF16
Encoding: 65302 65302 359
Width: 610
VWidth: 0
Flags: HMW
LayerCount: 2
Fore
SplineSet
206 246 m 0
 196 184 230 129 296 128 c 0
 363 127 423 180 434 246 c 0
 444 308 410 363 344 364 c 0
 276 365 217 312 206 246 c 0
392 696 m 1
 608 696 l 1
 344 445 l 1
 304 432 l 1
 341 461 374 472 420 472 c 0
 534 472 614 370 598 246 c 0
 576 84 436 -16 280 -16 c 0
 126 -16 20 88 42 246 c 0
 54 322 100 386 152 441 c 2
 392 696 l 1
EndSplineSet
EndChar

StartChar: uniFF17
Encoding: 65303 65303 360
Width: 610
VWidth: 0
Flags: HMW
LayerCount: 2
Fore
SplineSet
102 542 m 1
 129 700 l 1
 688 700 l 1
 239 0 l 1
 56 0 l 1
 413 542 l 1
 102 542 l 1
EndSplineSet
EndChar

StartChar: uniFF18
Encoding: 65304 65304 361
Width: 610
VWidth: 0
Flags: HMW
LayerCount: 2
Fore
SplineSet
150 532 m 0
 168 649 286 716 408 716 c 0
 526 716 629 647 612 530 c 0
 595 408 470 342 354 342 c 0
 242 342 133 410 150 532 c 0
304 514 m 0
 298 474 320 438 362 436 c 0
 406 434 447 474 454 516 c 0
 460 556 440 592 396 594 c 0
 352 596 311 557 304 514 c 0
68 190 m 0
 87 328 232 396 354 396 c 0
 470 396 597 328 578 190 c 0
 559 62 425 -16 293 -16 c 0
 166 -16 50 63 68 190 c 0
237 215 m 0
 229 163 258 124 308 122 c 0
 360 120 410 162 418 216 c 0
 425 262 397 304 347 306 c 0
 296 308 246 263 237 215 c 0
EndSplineSet
EndChar

StartChar: uniFF19
Encoding: 65305 65305 362
Width: 610
VWidth: 0
Flags: HMW
LayerCount: 2
Fore
SplineSet
470 454 m 0
 480 516 446 571 380 572 c 0
 313 573 253 520 242 454 c 0
 232 392 265 337 331 336 c 0
 399 335 459 388 470 454 c 0
284 4 m 1
 68 4 l 1
 332 255 l 1
 372 268 l 1
 335 239 301 228 255 228 c 0
 141 228 62 330 78 454 c 0
 100 616 239 716 395 716 c 0
 549 716 656 612 634 454 c 0
 622 378 576 314 524 259 c 2
 284 4 l 1
EndSplineSet
EndChar

StartChar: caron
Encoding: 711 711 363
Width: 465
VWidth: 0
Flags: HMW
LayerCount: 2
Fore
SplineSet
318 677 m 1
 420 762 l 1
 516 688 l 1
 304 551 l 1
 132 694 l 1
 244 762 l 1
 318 677 l 1
EndSplineSet
EndChar

StartChar: napostrophe
Encoding: 329 329 364
Width: 724
VWidth: 0
Flags: HMW
LayerCount: 2
Fore
SplineSet
426 460 m 1
 346 0 l 1
 196 0 l 1
 276 460 l 1
 426 460 l 1
535 280 m 1
 539 323 535 361 488 364 c 0
 440 367 405 324 394 280 c 1
 363 275 l 1
 381 377 443 470 557 470 c 0
 667 470 704 398 692 296 c 1
 641 0 l 1
 486 0 l 1
 535 280 l 1
198 700 m 1
 357 700 l 1
 212 446 l 1
 102 446 l 1
 198 700 l 1
EndSplineSet
EndChar

StartChar: IJ
Encoding: 306 306 365
Width: 605
VWidth: 0
Flags: HMW
LayerCount: 2
Fore
SplineSet
173 -64 m 1
 192 -82 218 -96 246 -96 c 0
 283 -95 317 -64 325 -16 c 1
 448 700 l 1
 628 700 l 1
 500 -54 l 2
 478 -179 371 -238 247 -238 c 0
 176 -238 113 -210 67 -180 c 1
 173 -64 l 1
162 700 m 1
 333 700 l 1
 212 0 l 1
 44 0 l 1
 162 700 l 1
EndSplineSet
EndChar

StartChar: ij
Encoding: 307 307 366
Width: 528
VWidth: 0
Flags: HMW
LayerCount: 2
Fore
SplineSet
390 634 m 0
 396 679 440 714 486 714 c 0
 532 714 568 677 562 631 c 0
 556 586 511 552 465 552 c 0
 419 552 384 588 390 634 c 0
188 -78 m 1
 198 -86 215 -103 229 -103 c 0
 261 -105 283 -70 289 -34 c 1
 374 460 l 1
 518 460 l 1
 428 -73 l 2
 411 -171 343 -239 234 -238 c 0
 176 -238 140 -212 113 -186 c 1
 188 -78 l 1
128 634 m 0
 134 679 180 714 226 714 c 0
 272 714 308 677 302 631 c 0
 296 586 250 552 204 552 c 0
 158 552 122 588 128 634 c 0
112 460 m 1
 258 460 l 1
 178 0 l 1
 34 0 l 1
 112 460 l 1
EndSplineSet
EndChar

StartChar: uni0237
Encoding: 567 567 367
Width: 263
VWidth: 0
Flags: HMW
LayerCount: 2
Fore
SplineSet
-76 -78 m 1
 -66 -92 -54 -103 -36 -103 c 0
 -4 -103 18 -71 24 -34 c 1
 110 460 l 1
 254 460 l 1
 164 -73 l 2
 147 -171 78 -239 -31 -238 c 0
 -89 -238 -124 -212 -151 -186 c 1
 -76 -78 l 1
EndSplineSet
EndChar

StartChar: Sacute
Encoding: 346 346 368
Width: 606
VWidth: 0
Flags: HMW
LayerCount: 2
Fore
SplineSet
161 251 m 1
 193 179 230 126 304 126 c 0
 354 126 394 150 402 194 c 0
 414 254 345 276 284 302 c 0
 206 336 117 402 132 520 c 0
 150 640 268 716 402 716 c 0
 529 716 605 647 630 561 c 1
 496 490 l 1
 474 537 446 572 393 572 c 0
 349 572 310 548 302 512 c 0
 290 460 376 437 436 413 c 0
 529 375 591 304 577 196 c 0
 557 56 436 -22 284 -22 c 0
 160 -22 65 54 33 168 c 1
 161 251 l 1
618 923 m 1
 421 777 l 1
 340 822 l 1
 510 978 l 1
 618 923 l 1
EndSplineSet
EndChar

StartChar: sacute
Encoding: 347 347 369
Width: 442
VWidth: 0
Flags: HMW
LayerCount: 2
Fore
SplineSet
80 174 m 1
 128 125 171 98 214 98 c 0
 238 98 263 107 267 129 c 0
 273 163 200 178 162 196 c 0
 105 224 61 266 70 337 c 0
 83 425 175 470 267 470 c 0
 341 470 404 440 452 400 c 1
 386 304 l 1
 354 336 306 360 266 360 c 0
 240 360 214 350 211 330 c 0
 206 300 273 284 312 268 c 0
 374 242 425 203 416 130 c 0
 404 30 325 -18 222 -18 c 0
 130 -18 57 20 4 76 c 1
 80 174 l 1
483 678 m 1
 286 532 l 1
 204 576 l 1
 374 732 l 1
 483 678 l 1
EndSplineSet
EndChar

StartChar: Scircumflex
Encoding: 348 348 370
Width: 606
VWidth: 0
Flags: HMW
LayerCount: 2
Fore
SplineSet
161 251 m 1
 193 179 230 126 304 126 c 0
 354 126 394 150 402 194 c 0
 414 254 345 276 284 302 c 0
 206 336 117 402 132 520 c 0
 150 640 268 716 402 716 c 0
 529 716 605 647 630 561 c 1
 496 490 l 1
 474 537 446 572 393 572 c 0
 349 572 310 548 302 512 c 0
 290 460 376 437 436 413 c 0
 529 375 591 304 577 196 c 0
 557 56 436 -22 284 -22 c 0
 160 -22 65 54 33 168 c 1
 161 251 l 1
435 861 m 1
 332 776 l 1
 238 850 l 1
 449 988 l 1
 622 845 l 1
 509 776 l 1
 435 861 l 1
EndSplineSet
EndChar

StartChar: scircumflex
Encoding: 349 349 371
Width: 442
VWidth: 0
Flags: HMW
LayerCount: 2
Fore
SplineSet
80 174 m 1
 128 125 171 98 214 98 c 0
 238 98 263 107 267 129 c 0
 273 163 200 178 162 196 c 0
 105 224 61 266 70 337 c 0
 83 425 175 470 267 470 c 0
 341 470 404 440 452 400 c 1
 386 304 l 1
 354 336 306 360 266 360 c 0
 240 360 214 350 211 330 c 0
 206 300 273 284 312 268 c 0
 374 242 425 203 416 130 c 0
 404 30 325 -18 222 -18 c 0
 130 -18 57 20 4 76 c 1
 80 174 l 1
312 615 m 1
 209 531 l 1
 114 604 l 1
 326 742 l 1
 498 600 l 1
 386 530 l 1
 312 615 l 1
EndSplineSet
EndChar

StartChar: uni1E9E
Encoding: 7838 7838 372
Width: 814
VWidth: 0
Flags: HMW
LayerCount: 2
Fore
SplineSet
547 -12 m 0
 679 -12 770 56 770 162 c 0
 770 295 664 293 664 353 c 0
 664 405 779 443 779 549 c 0
 779 643 684 716 508 716 c 0
 261 716 144 570 112 366 c 2
 50 -2 l 1
 225 -2 l 1
 286 350 l 2
 308 480 377 564 492 564 c 0
 556 564 594 538 594 502 c 0
 594 444 482 429 482 353 c 0
 482 263 590 274 590 191 c 0
 590 147 548 129 495 129 c 0
 449 129 401 145 344 171 c 1
 305 34 l 1
 371 6 462 -12 547 -12 c 0
EndSplineSet
EndChar

StartChar: Zacute
Encoding: 377 377 373
Width: 601
VWidth: 0
Flags: HW
LayerCount: 2
Fore
SplineSet
120 548 m 1
 146 700 l 1
 684 700 l 1
 269 146 l 1
 554 146 l 1
 528 0 l 1
 -22 0 l 1
 388 548 l 1
 120 548 l 1
621 923 m 1
 424 777 l 1
 342 822 l 1
 512 978 l 1
 621 923 l 1
EndSplineSet
EndChar

StartChar: zacute
Encoding: 378 378 374
Width: 506
VWidth: 0
Flags: HW
LayerCount: 2
Fore
SplineSet
272 322 m 1
 82 322 l 1
 106 460 l 1
 548 460 l 1
 270 138 l 1
 459 138 l 1
 435 0 l 1
 -16 0 l 1
 272 322 l 1
533 685 m 1
 336 539 l 1
 254 584 l 1
 424 740 l 1
 533 685 l 1
EndSplineSet
EndChar

StartChar: Zdotaccent
Encoding: 379 379 375
Width: 601
VWidth: 0
Flags: HW
LayerCount: 2
Fore
SplineSet
120 548 m 1
 146 700 l 1
 684 700 l 1
 269 146 l 1
 554 146 l 1
 528 0 l 1
 -22 0 l 1
 388 548 l 1
 120 548 l 1
354 860 m 0
 360 905 406 940 452 940 c 0
 498 940 533 903 527 857 c 0
 521 812 476 776 430 776 c 0
 384 776 348 814 354 860 c 0
EndSplineSet
EndChar

StartChar: zdotaccent
Encoding: 380 380 376
Width: 506
VWidth: 0
Flags: HW
LayerCount: 2
Fore
SplineSet
272 322 m 1
 82 322 l 1
 106 460 l 1
 548 460 l 1
 270 138 l 1
 459 138 l 1
 435 0 l 1
 -16 0 l 1
 272 322 l 1
266 625 m 0
 272 670 318 706 364 706 c 0
 410 706 446 668 440 622 c 0
 434 577 388 542 342 542 c 0
 296 542 260 579 266 625 c 0
EndSplineSet
EndChar

StartChar: Tcaron
Encoding: 356 356 377
Width: 544
VWidth: 0
Flags: HW
LayerCount: 2
Fore
SplineSet
68 548 m 1
 95 700 l 1
 636 700 l 1
 609 548 l 1
 423 548 l 1
 329 0 l 1
 162 0 l 1
 256 548 l 1
 68 548 l 1
396 903 m 1
 499 988 l 1
 594 914 l 1
 382 776 l 1
 210 918 l 1
 322 988 l 1
 396 903 l 1
EndSplineSet
EndChar

StartChar: tcaron
Encoding: 357 357 378
Width: 469
VWidth: 0
Flags: HW
LayerCount: 2
Fore
SplineSet
56 460 m 1
 357 460 l 1
 334 335 l 1
 33 335 l 1
 56 460 l 1
161 620 m 1
 306 620 l 1
 198 0 l 1
 55 0 l 1
 161 620 l 1
474 785 m 1
 620 752 l 1
 456 505 l 1
 344 528 l 1
 474 785 l 1
EndSplineSet
EndChar

StartChar: Uring
Encoding: 366 366 379
Width: 680
VWidth: 0
Flags: HW
LayerCount: 2
Fore
SplineSet
158 700 m 1
 325 700 l 1
 245 242 l 2
 237 180 258 126 330 124 c 0
 403 122 450 176 462 242 c 1
 541 700 l 1
 708 700 l 1
 628 230 l 2
 601 68 473 -28 313 -28 c 0
 157 -28 57 70 78 230 c 1
 158 700 l 1
342 893 m 0
 351 959 412 1007 480 1007 c 0
 548 1007 597 957 588 891 c 0
 579 825 517 776 449 776 c 0
 381 776 333 827 342 893 c 0
420 891 m 0
 418 867 432 846 454 845 c 0
 478 843 506 868 510 893 c 0
 512 917 498 939 476 940 c 0
 452 942 424 916 420 891 c 0
EndSplineSet
EndChar

StartChar: uring
Encoding: 367 367 380
Width: 557
VWidth: 0
Flags: HW
LayerCount: 2
Fore
SplineSet
324 0 m 1
 404 460 l 1
 554 460 l 1
 474 0 l 1
 324 0 l 1
214 180 m 1
 210 137 214 99 261 96 c 0
 309 93 345 136 356 180 c 1
 384 185 l 1
 366 83 306 -10 192 -10 c 0
 82 -10 46 62 58 164 c 1
 108 460 l 1
 264 460 l 1
 214 180 l 1
240 647 m 0
 249 713 310 762 378 762 c 0
 446 762 494 711 485 645 c 0
 476 579 414 532 346 532 c 0
 278 532 231 581 240 647 c 0
317 646 m 0
 315 622 329 601 351 600 c 0
 375 598 403 622 407 647 c 0
 409 671 394 693 372 694 c 0
 348 696 321 671 317 646 c 0
EndSplineSet
EndChar

StartChar: Utilde
Encoding: 360 360 381
Width: 680
VWidth: 0
Flags: HW
LayerCount: 2
Fore
SplineSet
158 700 m 1
 326 700 l 1
 245 242 l 2
 237 180 257 126 329 124 c 0
 402 122 450 176 462 242 c 1
 540 700 l 1
 708 700 l 1
 628 230 l 2
 601 68 474 -28 314 -28 c 0
 158 -28 57 69 78 230 c 1
 158 700 l 1
265 844 m 1
 278 891 336 937 393 936 c 0
 447 935 467 883 517 885 c 0
 545 886 569 912 590 938 c 1
 652 861 l 1
 626 823 572 776 512 778 c 0
 463 780 432 833 386 830 c 0
 352 828 338 798 330 780 c 1
 265 844 l 1
EndSplineSet
EndChar

StartChar: utilde
Encoding: 361 361 382
Width: 557
VWidth: 0
Flags: HW
LayerCount: 2
Fore
SplineSet
324 0 m 1
 404 460 l 1
 554 460 l 1
 475 0 l 1
 324 0 l 1
214 180 m 1
 210 137 213 100 260 97 c 0
 308 94 344 136 355 180 c 1
 384 185 l 1
 366 83 306 -9 193 -10 c 0
 83 -11 46 62 58 164 c 1
 108 460 l 1
 264 460 l 1
 214 180 l 1
162 598 m 1
 182 644 228 692 290 690 c 0
 344 689 364 638 414 640 c 0
 442 641 467 666 488 692 c 1
 550 616 l 1
 524 578 470 530 410 532 c 0
 361 534 328 587 282 584 c 0
 248 582 235 552 227 534 c 1
 162 598 l 1
EndSplineSet
EndChar

StartChar: Umacron
Encoding: 362 362 383
Width: 680
VWidth: 0
Flags: HW
LayerCount: 2
Fore
SplineSet
158 700 m 1
 326 700 l 1
 245 242 l 2
 237 180 257 126 329 124 c 0
 402 122 450 176 462 242 c 1
 540 700 l 1
 708 700 l 1
 628 230 l 2
 601 68 474 -28 314 -28 c 0
 158 -28 57 69 78 230 c 1
 158 700 l 1
266 776 m 1
 286 908 l 1
 650 908 l 1
 629 776 l 1
 266 776 l 1
EndSplineSet
EndChar

StartChar: umacron
Encoding: 363 363 384
Width: 557
VWidth: 0
Flags: HW
LayerCount: 2
Fore
SplineSet
324 0 m 1
 404 460 l 1
 554 460 l 1
 475 0 l 1
 324 0 l 1
214 180 m 1
 210 137 213 100 260 97 c 0
 308 94 344 136 355 180 c 1
 384 185 l 1
 366 83 306 -9 193 -10 c 0
 83 -11 46 62 58 164 c 1
 108 460 l 1
 264 460 l 1
 214 180 l 1
162 531 m 1
 183 662 l 1
 548 662 l 1
 526 531 l 1
 162 531 l 1
EndSplineSet
EndChar

StartChar: Ubreve
Encoding: 364 364 385
Width: 680
VWidth: 0
Flags: HW
LayerCount: 2
Fore
SplineSet
158 700 m 1
 326 700 l 1
 245 242 l 2
 237 180 257 126 329 124 c 0
 402 122 450 176 462 242 c 1
 540 700 l 1
 708 700 l 1
 628 230 l 2
 601 68 474 -28 314 -28 c 0
 158 -28 57 69 78 230 c 1
 158 700 l 1
310 922 m 1
 406 922 l 1
 406 890 420 866 456 864 c 0
 494 862 522 892 532 922 c 1
 631 921 l 1
 614 839 551 776 452 776 c 0
 354 776 306 838 310 922 c 1
EndSplineSet
EndChar

StartChar: ubreve
Encoding: 365 365 386
Width: 557
VWidth: 0
Flags: HW
LayerCount: 2
Fore
SplineSet
324 0 m 1
 404 460 l 1
 554 460 l 1
 475 0 l 1
 324 0 l 1
214 180 m 1
 210 137 213 100 260 97 c 0
 308 94 344 136 355 180 c 1
 384 185 l 1
 366 83 306 -9 193 -10 c 0
 83 -11 46 62 58 164 c 1
 108 460 l 1
 264 460 l 1
 214 180 l 1
207 676 m 1
 302 676 l 1
 302 644 318 620 354 618 c 0
 392 616 418 646 428 676 c 1
 528 676 l 1
 511 594 449 531 350 531 c 0
 252 531 203 592 207 676 c 1
EndSplineSet
EndChar

StartChar: Wcircumflex
Encoding: 372 372 387
Width: 1033
VWidth: 0
Flags: HW
LayerCount: 2
Fore
SplineSet
730 288 m 1
 924 700 l 1
 1124 700 l 1
 709 -44 l 1
 560 378 l 1
 270 -44 l 1
 96 700 l 1
 290 700 l 1
 350 290 l 1
 613 738 l 1
 730 288 l 1
642 882 m 1
 539 798 l 1
 444 872 l 1
 655 1008 l 1
 828 866 l 1
 716 797 l 1
 642 882 l 1
EndSplineSet
EndChar

StartChar: wcircumflex
Encoding: 373 373 388
Width: 738
VWidth: 0
Flags: HW
LayerCount: 2
Fore
SplineSet
45 460 m 1
 198 460 l 1
 250 228 l 1
 424 498 l 1
 508 227 l 1
 640 460 l 1
 802 460 l 1
 484 -32 l 1
 385 242 l 1
 192 -32 l 1
 45 460 l 1
454 642 m 1
 350 558 l 1
 255 631 l 1
 466 768 l 1
 638 626 l 1
 527 556 l 1
 454 642 l 1
EndSplineSet
EndChar

StartChar: Ycircumflex
Encoding: 374 374 389
Width: 640
VWidth: 0
Flags: HW
LayerCount: 2
Fore
SplineSet
542 700 m 1
 739 700 l 1
 426 280 l 1
 378 0 l 1
 208 0 l 1
 259 289 l 1
 92 700 l 1
 280 700 l 1
 366 440 l 1
 542 700 l 1
440 861 m 1
 338 777 l 1
 242 852 l 1
 454 988 l 1
 626 846 l 1
 514 776 l 1
 440 861 l 1
EndSplineSet
EndChar

StartChar: ycircumflex
Encoding: 375 375 390
Width: 505
VWidth: 0
Flags: HW
LayerCount: 2
Fore
SplineSet
570 460 m 1
 162 -220 l 1
 7 -220 l 1
 164 42 l 1
 44 460 l 1
 204 460 l 1
 285 91 l 1
 206 93 l 1
 412 460 l 1
 570 460 l 1
332 616 m 1
 228 532 l 1
 133 606 l 1
 344 742 l 1
 516 600 l 1
 405 531 l 1
 332 616 l 1
EndSplineSet
EndChar

StartChar: uni0123
Encoding: 291 291 391
Width: 553
VWidth: 0
Flags: HW
LayerCount: 2
Fore
SplineSet
-42 -32 m 1
 100 -34 l 1
 102 -86 127 -117 183 -118 c 0
 252 -119 307 -64 320 10 c 1
 398 460 l 1
 544 460 l 1
 468 10 l 2
 444 -148 330 -239 184 -239 c 0
 32 -239 -42 -158 -42 -32 c 1
-5 236 m 0
 13 373 120 470 242 470 c 0
 365 470 420 363 405 236 c 0
 389 104 298 2 176 2 c 0
 54 2 -21 103 -5 236 c 0
152 236 m 0
 143 176 174 126 234 124 c 0
 290 122 350 172 360 237 c 0
 368 298 338 346 283 348 c 0
 221 350 162 300 152 236 c 0
324 542 m 1
 186 602 l 1
 378 824 l 1
 486 780 l 1
 324 542 l 1
EndSplineSet
EndChar

StartChar: Hbar
Encoding: 294 294 392
Width: 762
VWidth: 0
Flags: HW
LayerCount: 2
Fore
SplineSet
92 294 m 1
 118 445 l 1
 636 445 l 1
 610 294 l 1
 92 294 l 1
570 700 m 1
 740 700 l 1
 620 0 l 1
 452 0 l 1
 570 700 l 1
114 700 m 1
 284 700 l 1
 164 0 l 1
 -4 0 l 1
 114 700 l 1
20 537 m 1
 39 643 l 1
 798 643 l 1
 779 537 l 1
 20 537 l 1
EndSplineSet
EndChar

StartChar: hbar
Encoding: 295 295 393
Width: 551
VWidth: 0
Flags: HW
LayerCount: 2
Fore
SplineSet
267 780 m 1
 132 0 l 1
 -20 0 l 1
 114 780 l 1
 267 780 l 1
322 280 m 1
 326 322 322 360 276 363 c 0
 228 367 193 325 182 281 c 1
 152 282 l 1
 170 384 229 475 342 476 c 0
 453 477 485 403 473 302 c 1
 422 0 l 1
 272 0 l 1
 322 280 l 1
31 597 m 1
 54 728 l 1
 380 728 l 1
 357 597 l 1
 31 597 l 1
EndSplineSet
EndChar

StartChar: uni0400
Encoding: 1024 1024 394
Width: 560
VWidth: 0
Flags: HW
LayerCount: 2
Fore
SplineSet
152 0 m 1
 176 139 l 1
 522 139 l 1
 499 0 l 1
 152 0 l 1
248 561 m 1
 272 700 l 1
 618 700 l 1
 594 561 l 1
 248 561 l 1
203 300 m 1
 226 436 l 1
 554 436 l 1
 530 300 l 1
 203 300 l 1
162 700 m 1
 325 700 l 1
 204 0 l 1
 42 0 l 1
 162 700 l 1
258 929 m 1
 374 980 l 1
 496 815 l 1
 412 776 l 1
 258 929 l 1
EndSplineSet
EndChar

StartChar: uni0401
Encoding: 1025 1025 395
Width: 560
VWidth: 0
Flags: HW
LayerCount: 2
Fore
SplineSet
152 0 m 1
 176 139 l 1
 522 139 l 1
 499 0 l 1
 152 0 l 1
248 561 m 1
 272 700 l 1
 618 700 l 1
 594 561 l 1
 248 561 l 1
203 300 m 1
 226 436 l 1
 554 436 l 1
 530 300 l 1
 203 300 l 1
162 700 m 1
 325 700 l 1
 204 0 l 1
 42 0 l 1
 162 700 l 1
452 860 m 0
 457 905 502 940 548 940 c 0
 595 940 632 902 626 856 c 0
 621 811 576 776 530 776 c 0
 483 776 446 814 452 860 c 0
216 860 m 0
 221 905 266 940 312 940 c 0
 359 940 396 902 390 856 c 0
 385 811 340 776 294 776 c 0
 247 776 210 814 216 860 c 0
EndSplineSet
EndChar

StartChar: uni0403
Encoding: 1027 1027 396
Width: 491
VWidth: 0
Flags: HW
LayerCount: 2
Fore
SplineSet
168 700 m 1
 577 700 l 1
 550 548 l 1
 310 548 l 1
 216 0 l 1
 49 0 l 1
 168 700 l 1
580 922 m 1
 386 776 l 1
 302 822 l 1
 470 978 l 1
 580 922 l 1
EndSplineSet
EndChar

StartChar: uni040C
Encoding: 1036 1036 397
Width: 615
VWidth: 0
Flags: HW
LayerCount: 2
Fore
SplineSet
162 700 m 1
 337 700 l 1
 216 0 l 1
 42 0 l 1
 162 700 l 1
559 700 m 1
 765 700 l 1
 426 366 l 1
 650 0 l 1
 457 0 l 1
 230 373 l 1
 559 700 l 1
645 916 m 1
 450 770 l 1
 366 817 l 1
 534 972 l 1
 645 916 l 1
EndSplineSet
EndChar

StartChar: uni040D
Encoding: 1037 1037 398
Width: 769
VWidth: 0
Flags: HW
LayerCount: 2
Fore
SplineSet
757 520 m 1
 32 -44 l 1
 79 180 l 1
 804 744 l 1
 757 520 l 1
325 700 m 1
 226 126 l 1
 32 -44 l 1
 162 700 l 1
 325 700 l 1
804 744 m 1
 674 0 l 1
 510 0 l 1
 608 567 l 1
 804 744 l 1
358 911 m 1
 474 961 l 1
 596 796 l 1
 512 758 l 1
 358 911 l 1
EndSplineSet
EndChar

StartChar: uni040E
Encoding: 1038 1038 399
Width: 587
VWidth: 0
Flags: HW
LayerCount: 2
Fore
SplineSet
694 700 m 1
 255 0 l 1
 83 0 l 1
 218 220 l 1
 84 700 l 1
 260 700 l 1
 342 283 l 1
 268 286 l 1
 520 700 l 1
 694 700 l 1
261 922 m 1
 356 922 l 1
 356 891 370 866 406 864 c 0
 444 862 472 892 482 922 c 1
 582 921 l 1
 566 839 503 776 405 776 c 0
 307 776 257 838 261 922 c 1
EndSplineSet
EndChar

StartChar: uni0410
Encoding: 1040 1040 400
Width: 712
VWidth: 0
Flags: HW
LayerCount: 2
Fore
SplineSet
173 136 m 1
 206 264 l 1
 548 264 l 1
 536 135 l 1
 173 136 l 1
410 442 m 1
 275 216 l 1
 276 178 l 1
 162 0 l 1
 -34 0 l 1
 456 748 l 1
 686 0 l 1
 502 0 l 1
 448 173 l 1
 462 216 l 1
 410 442 l 1
EndSplineSet
EndChar

StartChar: uni0411
Encoding: 1041 1041 401
Width: 652
VWidth: 0
Flags: HW
LayerCount: 2
Fore
SplineSet
148 300 m 1
 169 436 l 1
 424 436 l 1
 552 435 643 344 626 218 c 0
 608 90 496 1 364 0 c 1
 94 0 l 1
 118 139 l 1
 340 139 l 2
 400 140 445 166 456 220 c 0
 466 272 432 297 376 298 c 1
 148 300 l 1
168 700 m 1
 658 700 l 1
 634 561 l 1
 316 561 l 1
 220 0 l 1
 49 0 l 1
 168 700 l 1
EndSplineSet
EndChar

StartChar: uni0412
Encoding: 1042 1042 402
Width: 644
VWidth: 0
Flags: HW
LayerCount: 2
Fore
SplineSet
225 348 m 1
 238 422 l 1
 344 422 l 1
 398 423 442 450 451 498 c 0
 459 543 430 567 380 568 c 1
 310 569 l 1
 232 130 l 1
 310 131 l 1
 372 133 432 158 443 222 c 0
 453 280 409 302 351 304 c 1
 217 304 l 1
 234 396 l 1
 372 396 l 1
 498 394 629 336 611 196 c 0
 593 56 467 2 319 0 c 1
 43 0 l 1
 163 700 l 1
 408 700 l 1
 532 698 645 644 628 522 c 0
 612 405 491 350 362 348 c 2
 225 348 l 1
EndSplineSet
EndChar

StartChar: uni0413
Encoding: 1043 1043 403
Width: 491
VWidth: 0
Flags: HW
LayerCount: 2
Fore
SplineSet
168 700 m 1
 577 700 l 1
 550 548 l 1
 310 548 l 1
 216 0 l 1
 49 0 l 1
 168 700 l 1
EndSplineSet
EndChar

StartChar: uni0414
Encoding: 1044 1044 404
Width: 855
VWidth: 0
Flags: HW
LayerCount: 2
Fore
SplineSet
474 425 m 1
 268 30 l 1
 68 30 l 1
 523 739 l 1
 734 30 l 1
 546 30 l 1
 474 425 l 1
622 0 m 1
 178 0 l 1
 158 -110 l 1
 -10 -110 l 1
 35 146 l 1
 814 146 l 1
 769 -110 l 1
 601 -110 l 1
 622 0 l 1
EndSplineSet
EndChar

StartChar: uni0415
Encoding: 1045 1045 405
Width: 586
VWidth: 0
Flags: HW
LayerCount: 2
Fore
SplineSet
153 0 m 1
 176 139 l 1
 524 139 l 1
 500 0 l 1
 153 0 l 1
248 561 m 1
 272 700 l 1
 620 700 l 1
 596 561 l 1
 248 561 l 1
204 300 m 1
 228 436 l 1
 555 436 l 1
 532 300 l 1
 204 300 l 1
162 700 m 1
 326 700 l 1
 206 0 l 1
 44 0 l 1
 162 700 l 1
EndSplineSet
EndChar

StartChar: uni0416
Encoding: 1046 1046 406
Width: 1053
VWidth: 0
Flags: HW
LayerCount: 2
Fore
SplineSet
295 700 m 1
 522 364 l 1
 171 0 l 1
 -34 0 l 1
 332 378 l 1
 109 700 l 1
 295 700 l 1
533 700 m 1
 709 700 l 1
 588 0 l 1
 414 0 l 1
 533 700 l 1
928 700 m 1
 1139 700 l 1
 794 366 l 1
 1024 0 l 1
 832 0 l 1
 607 376 l 1
 928 700 l 1
EndSplineSet
EndChar

StartChar: uni0417
Encoding: 1047 1047 407
Width: 648
VWidth: 0
Flags: HW
LayerCount: 2
Fore
SplineSet
326 338 m 1
 335 414 l 1
 415 417 485 444 497 503 c 0
 505 548 472 577 416 578 c 0
 350 580 306 543 290 495 c 1
 133 496 l 1
 157 626 266 713 426 713 c 0
 571 713 682 638 664 518 c 0
 643 382 478 340 326 338 c 1
321 -16 m 0
 141 -16 42 82 54 222 c 1
 216 222 l 1
 214 156 253 121 324 120 c 0
 393 119 453 148 465 208 c 0
 482 278 407 304 321 306 c 1
 332 392 l 1
 488 390 650 342 628 190 c 0
 609 58 483 -16 321 -16 c 0
EndSplineSet
EndChar

StartChar: uni0418
Encoding: 1048 1048 408
Width: 769
VWidth: 0
Flags: HW
LayerCount: 2
Fore
SplineSet
757 520 m 1
 32 -44 l 1
 79 180 l 1
 804 744 l 1
 757 520 l 1
325 700 m 1
 226 126 l 1
 32 -44 l 1
 162 700 l 1
 325 700 l 1
804 744 m 1
 674 0 l 1
 510 0 l 1
 608 567 l 1
 804 744 l 1
EndSplineSet
EndChar

StartChar: uni0419
Encoding: 1049 1049 409
Width: 769
VWidth: 0
Flags: HW
LayerCount: 2
Fore
SplineSet
757 520 m 1
 32 -44 l 1
 79 180 l 1
 804 744 l 1
 757 520 l 1
325 700 m 1
 226 126 l 1
 32 -44 l 1
 162 700 l 1
 325 700 l 1
804 744 m 1
 674 0 l 1
 510 0 l 1
 608 567 l 1
 804 744 l 1
363 922 m 1
 458 922 l 1
 458 890 474 864 510 862 c 0
 548 860 574 891 584 921 c 1
 684 920 l 1
 667 838 605 776 506 776 c 0
 408 776 359 838 363 922 c 1
EndSplineSet
EndChar

StartChar: uni041A
Encoding: 1050 1050 410
Width: 680
VWidth: 0
Flags: HW
LayerCount: 2
Fore
SplineSet
162 700 m 1
 337 700 l 1
 216 0 l 1
 42 0 l 1
 162 700 l 1
559 700 m 1
 765 700 l 1
 426 366 l 1
 650 0 l 1
 457 0 l 1
 230 373 l 1
 559 700 l 1
EndSplineSet
EndChar

StartChar: uni041B
Encoding: 1051 1051 411
Width: 747
VWidth: 0
Flags: HW
LayerCount: 2
Fore
SplineSet
765 700 m 1
 644 0 l 1
 473 0 l 1
 567 548 l 1
 346 548 l 1
 304 296 l 2
 274 108 176 6 -16 0 c 1
 3 142 l 1
 74 152 117 206 131 286 c 1
 202 700 l 1
 765 700 l 1
EndSplineSet
EndChar

StartChar: uni041C
Encoding: 1052 1052 412
Width: 864
VWidth: 0
Flags: HW
LayerCount: 2
Fore
SplineSet
284 355 m 1
 182 0 l 1
 2 0 l 1
 238 736 l 1
 454 312 l 1
 824 743 l 1
 806 0 l 1
 630 0 l 1
 649 346 l 1
 420 62 l 1
 284 355 l 1
EndSplineSet
EndChar

StartChar: uni041D
Encoding: 1053 1053 413
Width: 763
VWidth: 0
Flags: HW
LayerCount: 2
Fore
SplineSet
138 294 m 1
 164 445 l 1
 684 445 l 1
 657 294 l 1
 138 294 l 1
618 700 m 1
 787 700 l 1
 666 0 l 1
 499 0 l 1
 618 700 l 1
162 700 m 1
 331 700 l 1
 210 0 l 1
 42 0 l 1
 162 700 l 1
EndSplineSet
EndChar

StartChar: uni041E
Encoding: 1054 1054 414
Width: 796
VWidth: 0
Flags: HW
LayerCount: 2
Fore
SplineSet
241 350 m 0
 223 243 270 142 388 140 c 0
 508 138 600 235 621 350 c 0
 639 457 594 558 474 560 c 0
 354 562 261 465 241 350 c 0
63 350 m 0
 93 558 274 716 486 716 c 0
 696 716 827 551 799 350 c 0
 769 142 593 -22 375 -22 c 0
 161 -22 35 149 63 350 c 0
EndSplineSet
EndChar

StartChar: uni041F
Encoding: 1055 1055 415
Width: 748
VWidth: 0
Flags: HW
LayerCount: 2
Fore
SplineSet
569 548 m 1
 314 548 l 1
 220 0 l 1
 48 0 l 1
 168 700 l 1
 766 700 l 1
 646 0 l 1
 474 0 l 1
 569 548 l 1
EndSplineSet
EndChar

StartChar: uni0420
Encoding: 1056 1056 416
Width: 607
VWidth: 0
Flags: HW
LayerCount: 2
Fore
SplineSet
162 700 m 1
 332 700 l 1
 212 0 l 1
 44 0 l 1
 162 700 l 1
244 561 m 1
 266 700 l 1
 394 700 l 1
 552 698 648 613 628 470 c 0
 607 326 492 244 330 242 c 1
 187 242 l 1
 212 382 l 1
 340 382 l 2
 404 383 455 414 467 472 c 0
 477 527 442 559 382 560 c 1
 244 561 l 1
EndSplineSet
EndChar

StartChar: uni0421
Encoding: 1057 1057 417
Width: 679
VWidth: 0
Flags: HW
LayerCount: 2
Fore
SplineSet
246 350 m 0
 227 238 292 148 406 146 c 0
 498 145 572 189 630 237 c 1
 604 54 l 1
 542 12 476 -16 384 -16 c 0
 168 -16 34 146 63 350 c 0
 94 561 274 716 494 716 c 0
 582 716 643 690 700 645 c 1
 674 462 l 1
 632 516 576 554 490 554 c 0
 373 554 268 470 246 350 c 0
EndSplineSet
EndChar

StartChar: uni0422
Encoding: 1058 1058 418
Width: 546
VWidth: 0
Flags: HW
LayerCount: 2
Fore
SplineSet
68 548 m 1
 95 700 l 1
 638 700 l 1
 610 548 l 1
 424 548 l 1
 330 0 l 1
 162 0 l 1
 256 548 l 1
 68 548 l 1
EndSplineSet
EndChar

StartChar: uni0423
Encoding: 1059 1059 419
Width: 599
VWidth: 0
Flags: HW
LayerCount: 2
Fore
SplineSet
707 700 m 1
 267 0 l 1
 89 0 l 1
 224 220 l 1
 84 700 l 1
 266 700 l 1
 348 283 l 1
 275 286 l 1
 526 700 l 1
 707 700 l 1
EndSplineSet
EndChar

StartChar: uni0424
Encoding: 1060 1060 420
Width: 905
VWidth: 0
Flags: HW
LayerCount: 2
Fore
SplineSet
458 700 m 1
 632 700 l 1
 511 0 l 1
 340 0 l 1
 458 700 l 1
730 350 m 0
 749 441 674 471 580 472 c 1
 446 472 l 2
 344 471 259 442 240 350 c 0
 221 259 297 229 391 228 c 1
 524 228 l 2
 626 229 711 258 730 350 c 0
902 350 m 0
 878 182 720 81 544 80 c 1
 350 80 l 1
 181 81 46 184 70 350 c 0
 94 518 250 619 426 620 c 1
 621 620 l 1
 790 619 926 516 902 350 c 0
EndSplineSet
EndChar

StartChar: uni0425
Encoding: 1061 1061 421
Width: 695
VWidth: 0
Flags: HW
LayerCount: 2
Fore
SplineSet
540 700 m 1
 754 700 l 1
 476 352 l 1
 641 0 l 1
 442 0 l 1
 358 228 l 1
 192 0 l 1
 -22 0 l 1
 280 365 l 1
 130 700 l 1
 330 700 l 1
 400 502 l 1
 540 700 l 1
EndSplineSet
EndChar

StartChar: uni0426
Encoding: 1062 1062 422
Width: 834
VWidth: 0
Flags: HW
LayerCount: 2
Fore
SplineSet
238 152 m 1
 524 152 l 1
 618 700 l 1
 790 700 l 1
 696 152 l 1
 803 152 l 1
 754 -135 l 1
 592 -135 l 1
 616 0 l 1
 42 0 l 1
 162 700 l 1
 333 700 l 1
 238 152 l 1
EndSplineSet
EndChar

StartChar: uni0427
Encoding: 1063 1063 423
Width: 696
VWidth: 0
Flags: HW
LayerCount: 2
Fore
SplineSet
315 222 m 1
 385 370 l 1
 550 371 l 1
 523 221 l 1
 315 222 l 1
538 700 m 1
 714 700 l 1
 594 0 l 1
 420 0 l 1
 538 700 l 1
332 700 m 1
 294 490 l 1
 283 416 317 370 385 370 c 1
 315 222 l 1
 173 222 105 337 123 468 c 1
 162 700 l 1
 332 700 l 1
EndSplineSet
EndChar

StartChar: uni0428
Encoding: 1064 1064 424
Width: 1049
VWidth: 0
Flags: HW
LayerCount: 2
Fore
SplineSet
804 152 m 1
 898 700 l 1
 1067 700 l 1
 947 0 l 1
 48 0 l 1
 168 700 l 1
 337 700 l 1
 243 152 l 1
 442 152 l 1
 536 700 l 1
 699 700 l 1
 604 152 l 1
 804 152 l 1
EndSplineSet
EndChar

StartChar: uni0429
Encoding: 1065 1065 425
Width: 1117
VWidth: 0
Flags: HW
LayerCount: 2
Fore
SplineSet
804 152 m 1
 898 700 l 1
 1067 700 l 1
 973 152 l 1
 1080 152 l 1
 1031 -135 l 1
 868 -135 l 1
 892 0 l 1
 48 0 l 1
 168 700 l 1
 337 700 l 1
 243 152 l 1
 442 152 l 1
 536 700 l 1
 699 700 l 1
 604 152 l 1
 804 152 l 1
EndSplineSet
EndChar

StartChar: uni042A
Encoding: 1066 1066 426
Width: 714
VWidth: 0
Flags: HW
LayerCount: 2
Fore
SplineSet
310 318 m 1
 334 458 l 1
 461 458 l 2
 619 457 716 371 696 228 c 0
 675 84 560 1 398 0 c 2
 254 0 l 1
 280 139 l 1
 407 139 l 2
 471 140 522 172 534 230 c 0
 544 285 510 318 450 318 c 2
 310 318 l 1
250 549 m 1
 74 549 l 1
 100 700 l 1
 444 700 l 1
 324 0 l 1
 156 0 l 1
 250 549 l 1
EndSplineSet
EndChar

StartChar: uni042B
Encoding: 1067 1067 427
Width: 881
VWidth: 0
Flags: HW
LayerCount: 2
Fore
SplineSet
732 700 m 1
 906 700 l 1
 785 0 l 1
 614 0 l 1
 732 700 l 1
162 700 m 1
 331 700 l 1
 210 0 l 1
 42 0 l 1
 162 700 l 1
201 318 m 1
 224 458 l 1
 351 458 l 2
 509 457 606 371 586 228 c 0
 565 84 450 1 288 0 c 2
 144 0 l 1
 170 139 l 1
 298 139 l 2
 362 140 412 172 424 230 c 0
 434 285 400 318 340 318 c 2
 201 318 l 1
EndSplineSet
EndChar

StartChar: uni042C
Encoding: 1068 1068 428
Width: 604
VWidth: 0
Flags: HW
LayerCount: 2
Fore
SplineSet
162 700 m 1
 331 700 l 1
 210 0 l 1
 42 0 l 1
 162 700 l 1
201 318 m 1
 224 458 l 1
 351 458 l 2
 509 457 606 371 586 228 c 0
 565 84 450 1 288 0 c 2
 144 0 l 1
 170 139 l 1
 298 139 l 2
 362 140 412 172 424 230 c 0
 434 285 400 318 340 318 c 2
 201 318 l 1
EndSplineSet
EndChar

StartChar: uni042D
Encoding: 1069 1069 429
Width: 679
VWidth: 0
Flags: HW
LayerCount: 2
Fore
SplineSet
152 282 m 1
 176 418 l 1
 542 418 l 1
 518 282 l 1
 152 282 l 1
517 350 m 0
 537 466 454 558 340 560 c 0
 249 561 175 520 119 482 c 1
 141 646 l 1
 203 688 270 716 362 716 c 0
 578 716 711 554 682 350 c 0
 651 139 472 -16 252 -16 c 0
 164 -16 101 10 44 55 c 1
 68 219 l 1
 109 175 170 140 254 140 c 0
 373 140 495 228 517 350 c 0
EndSplineSet
EndChar

StartChar: uni042E
Encoding: 1070 1070 430
Width: 1108
VWidth: 0
Flags: HW
LayerCount: 2
Fore
SplineSet
138 294 m 1
 164 445 l 1
 498 445 l 1
 472 294 l 1
 138 294 l 1
162 700 m 1
 331 700 l 1
 210 0 l 1
 42 0 l 1
 162 700 l 1
553 350 m 0
 535 243 582 142 700 140 c 0
 820 138 911 235 932 350 c 0
 950 457 906 558 786 560 c 0
 666 562 573 465 553 350 c 0
375 350 m 0
 405 558 586 716 798 716 c 0
 1008 716 1139 551 1111 350 c 0
 1081 142 905 -22 687 -22 c 0
 473 -22 347 149 375 350 c 0
EndSplineSet
EndChar

StartChar: uni042F
Encoding: 1071 1071 431
Width: 627
VWidth: 0
Flags: HW
LayerCount: 2
Fore
SplineSet
420 316 m 1
 174 0 l 1
 -30 0 l 1
 238 316 l 1
 420 316 l 1
652 700 m 1
 532 0 l 1
 362 0 l 1
 482 700 l 1
 652 700 l 1
523 556 m 1
 396 556 l 2
 332 556 280 522 268 464 c 0
 258 409 292 376 352 374 c 1
 493 374 l 1
 470 242 l 1
 330 242 l 1
 174 244 76 334 96 472 c 0
 116 612 233 699 394 700 c 1
 548 700 l 1
 523 556 l 1
EndSplineSet
EndChar

StartChar: uni0430
Encoding: 1072 1072 432
Width: 527
VWidth: 0
Flags: HW
LayerCount: 2
Fore
SplineSet
168 137 m 0
 164 107 189 90 219 90 c 0
 278 88 323 125 338 186 c 1
 346 128 l 1
 328 43 257 -10 163 -10 c 0
 73 -10 5 43 17 132 c 0
 31 226 122 279 230 279 c 0
 292 279 349 257 380 229 c 1
 370 159 l 1
 338 184 308 198 262 197 c 0
 218 197 174 175 168 137 c 0
144 318 m 1
 106 422 l 1
 165 448 237 473 315 473 c 0
 422 473 522 423 505 324 c 2
 451 0 l 1
 304 0 l 1
 358 294 l 2
 364 331 339 355 295 357 c 0
 235 360 178 334 144 318 c 1
EndSplineSet
EndChar

StartChar: uni0431
Encoding: 1073 1073 433
Width: 589
VWidth: 0
Flags: HW
LayerCount: 2
Fore
SplineSet
336 346 m 1
 368 469 l 1
 507 469 594 366 577 230 c 0
 559 92 440 -10 290 -10 c 0
 126 -10 56 112 56 244 c 1
 212 209 l 1
 212 159 240 116 296 116 c 0
 358 116 412 166 422 230 c 0
 433 298 396 346 336 346 c 1
149 231 m 1
 169 369 242 469 368 469 c 1
 336 346 l 1
 276 346 212 299 212 209 c 1
 149 231 l 1
56 244 m 1
 56 437 145 594 303 662 c 0
 383 696 438 726 466 780 c 1
 613 779 l 1
 585 682 498 615 392 572 c 0
 280 527 200 433 194 323 c 1
 207 210 l 1
 56 244 l 1
EndSplineSet
EndChar

StartChar: uni0432
Encoding: 1074 1074 434
Width: 508
VWidth: 0
Flags: HW
LayerCount: 2
Fore
SplineSet
169 240 m 1
 324 240 l 2
 408 239 487 214 476 124 c 0
 466 50 406 0 316 0 c 2
 128 0 l 1
 146 94 l 1
 270 94 l 2
 304 94 332 115 338 142 c 0
 342 167 326 186 294 186 c 2
 162 186 l 1
 169 240 l 1
168 220 m 1
 176 279 l 1
 293 280 l 2
 321 280 345 297 350 323 c 0
 354 345 340 365 316 365 c 2
 190 366 l 1
 208 460 l 1
 352 460 l 2
 432 459 505 420 493 334 c 0
 482 256 404 222 324 220 c 2
 168 220 l 1
122 460 m 1
 268 460 l 1
 188 0 l 1
 44 0 l 1
 122 460 l 1
EndSplineSet
EndChar

StartChar: uni0433
Encoding: 1075 1075 435
Width: 347
VWidth: 0
Flags: HW
LayerCount: 2
Fore
SplineSet
108 460 m 1
 400 460 l 1
 378 335 l 1
 236 335 l 1
 178 0 l 1
 30 0 l 1
 108 460 l 1
EndSplineSet
EndChar

StartChar: uni0434
Encoding: 1076 1076 436
Width: 683
VWidth: 0
Flags: HW
LayerCount: 2
Fore
SplineSet
362 274 m 1
 216 31 l 1
 70 64 l 1
 394 498 l 1
 570 60 l 1
 426 28 l 1
 362 274 l 1
475 0 m 1
 158 0 l 1
 142 -90 l 1
 -6 -90 l 1
 30 119 l 1
 636 119 l 1
 600 -90 l 1
 458 -90 l 1
 475 0 l 1
EndSplineSet
EndChar

StartChar: uni0435
Encoding: 1077 1077 437
Width: 557
VWidth: 0
Flags: HW
LayerCount: 2
Fore
SplineSet
124 198 m 1
 136 282 l 1
 386 282 l 1
 386 328 373 366 321 368 c 0
 257 370 214 317 201 254 c 1
 194 230 l 1
 185 158 206 102 270 100 c 0
 321 98 362 124 390 158 c 1
 523 124 l 1
 466 44 386 -10 267 -10 c 0
 113 -10 26 93 44 230 c 0
 46 247 49 263 54 279 c 0
 90 393 192 470 330 470 c 0
 480 470 558 374 542 236 c 0
 540 226 538 212 535 198 c 1
 124 198 l 1
EndSplineSet
EndChar

StartChar: uni0436
Encoding: 1078 1078 438
Width: 854
VWidth: 0
Flags: HW
LayerCount: 2
Fore
SplineSet
711 460 m 1
 894 460 l 1
 662 261 l 1
 825 0 l 1
 662 0 l 1
 491 276 l 1
 711 460 l 1
551 460 m 1
 472 0 l 1
 328 0 l 1
 408 460 l 1
 551 460 l 1
236 460 m 1
 402 264 l 1
 148 0 l 1
 -34 0 l 1
 230 272 l 1
 74 460 l 1
 236 460 l 1
EndSplineSet
EndChar

StartChar: uni0437
Encoding: 1079 1079 439
Width: 520
VWidth: 0
Flags: HW
LayerCount: 2
Fore
SplineSet
276 230 m 1
 284 280 l 1
 317 282 348 296 352 322 c 0
 354 342 337 360 311 360 c 0
 277 360 257 336 250 308 c 1
 110 308 l 1
 128 403 207 470 318 470 c 0
 411 470 502 419 490 335 c 0
 478 253 384 228 276 230 c 1
250 -10 m 0
 130 -10 59 53 55 158 c 1
 194 158 l 1
 201 124 217 98 257 98 c 0
 299 98 332 120 337 152 c 0
 343 188 311 201 272 203 c 1
 280 260 l 1
 387 261 488 227 476 134 c 0
 464 40 356 -10 250 -10 c 0
EndSplineSet
EndChar

StartChar: uni0438
Encoding: 1080 1080 440
Width: 573
VWidth: 0
Flags: HW
LayerCount: 2
Fore
SplineSet
540 326 m 1
 20 -43 l 1
 58 134 l 1
 578 504 l 1
 540 326 l 1
255 460 m 1
 192 102 l 1
 20 -43 l 1
 109 460 l 1
 255 460 l 1
578 504 m 1
 490 0 l 1
 344 0 l 1
 406 358 l 1
 578 504 l 1
EndSplineSet
EndChar

StartChar: uni0439
Encoding: 1081 1081 441
Width: 573
VWidth: 0
Flags: HW
LayerCount: 2
Fore
SplineSet
540 326 m 1
 20 -43 l 1
 58 134 l 1
 578 504 l 1
 540 326 l 1
255 460 m 1
 192 102 l 1
 20 -43 l 1
 109 460 l 1
 255 460 l 1
578 504 m 1
 490 0 l 1
 344 0 l 1
 406 358 l 1
 578 504 l 1
212 694 m 1
 307 694 l 1
 307 662 323 638 359 636 c 0
 397 634 422 664 432 694 c 1
 532 693 l 1
 515 611 453 548 354 548 c 0
 256 548 208 610 212 694 c 1
EndSplineSet
EndChar

StartChar: uni043A
Encoding: 1082 1082 442
Width: 554
VWidth: 0
Flags: HW
LayerCount: 2
Fore
SplineSet
105 460 m 1
 252 460 l 1
 172 0 l 1
 27 0 l 1
 105 460 l 1
404 460 m 1
 593 460 l 1
 362 265 l 1
 524 0 l 1
 358 0 l 1
 188 276 l 1
 404 460 l 1
EndSplineSet
EndChar

StartChar: uni043B
Encoding: 1083 1083 443
Width: 604
VWidth: 0
Flags: HW
LayerCount: 2
Fore
SplineSet
582 460 m 1
 502 0 l 1
 356 0 l 1
 412 322 l 1
 252 322 l 1
 226 160 l 1
 204 44 126 4 -16 0 c 1
 2 135 l 1
 43 139 74 150 84 198 c 1
 130 460 l 1
 582 460 l 1
EndSplineSet
EndChar

StartChar: uni043C
Encoding: 1084 1084 444
Width: 637
VWidth: 0
Flags: HW
LayerCount: 2
Fore
SplineSet
457 0 m 1
 450 322 l 1
 557 502 l 1
 606 0 l 1
 457 0 l 1
284 138 m 1
 557 502 l 1
 530 286 l 1
 286 -32 l 1
 284 138 l 1
286 -32 m 1
 152 298 l 1
 196 497 l 1
 342 124 l 1
 286 -32 l 1
-27 0 m 1
 196 497 l 1
 240 307 l 1
 129 0 l 1
 -27 0 l 1
EndSplineSet
EndChar

StartChar: uni043D
Encoding: 1085 1085 445
Width: 596
VWidth: 0
Flags: HW
LayerCount: 2
Fore
SplineSet
106 186 m 1
 125 299 l 1
 490 299 l 1
 471 186 l 1
 106 186 l 1
447 460 m 1
 594 460 l 1
 514 0 l 1
 369 0 l 1
 447 460 l 1
106 460 m 1
 254 460 l 1
 174 0 l 1
 28 0 l 1
 106 460 l 1
EndSplineSet
EndChar

StartChar: uni043E
Encoding: 1086 1086 446
Width: 571
VWidth: 0
Flags: HW
LayerCount: 2
Fore
SplineSet
41 230 m 0
 61 371 186 470 332 470 c 0
 476 470 575 368 556 230 c 0
 536 89 411 -10 265 -10 c 0
 121 -10 22 92 41 230 c 0
195 230 m 0
 186 172 213 118 273 116 c 0
 335 114 390 166 402 230 c 0
 411 288 384 344 324 346 c 0
 262 348 207 294 195 230 c 0
EndSplineSet
EndChar

StartChar: uni043F
Encoding: 1087 1087 447
Width: 557
VWidth: 0
Flags: HW
LayerCount: 2
Fore
SplineSet
554 460 m 1
 476 0 l 1
 329 0 l 1
 386 329 l 1
 230 329 l 1
 174 0 l 1
 28 0 l 1
 107 460 l 1
 554 460 l 1
EndSplineSet
EndChar

StartChar: uni0440
Encoding: 1088 1088 448
Width: 598
VWidth: 0
Flags: HW
LayerCount: 2
Fore
SplineSet
141 -220 m 1
 -12 -220 l 1
 106 460 l 1
 256 460 l 1
 141 -220 l 1
582 230 m 0
 564 88 456 -16 332 -16 c 0
 203 -16 165 104 180 230 c 0
 197 362 276 475 402 476 c 0
 526 477 598 366 582 230 c 0
425 231 m 0
 434 291 403 341 343 342 c 0
 287 343 227 294 217 229 c 0
 208 168 239 120 294 118 c 0
 356 116 415 167 425 231 c 0
EndSplineSet
EndChar

StartChar: uni0441
Encoding: 1089 1089 449
Width: 476
VWidth: 0
Flags: HW
LayerCount: 2
Fore
SplineSet
194 230 m 0
 183 165 220 114 286 112 c 0
 342 110 396 140 432 178 c 1
 413 32 l 1
 374 6 327 -10 266 -10 c 0
 121 -10 21 91 40 230 c 0
 60 372 186 470 334 470 c 0
 394 470 439 454 476 430 c 1
 456 282 l 1
 432 325 388 349 339 349 c 0
 270 349 206 296 194 230 c 0
EndSplineSet
EndChar

StartChar: uni0442
Encoding: 1090 1090 450
Width: 323
VWidth: 0
Flags: HW
LayerCount: 2
Fore
SplineSet
54 460 m 1
 372 460 l 1
 350 335 l 1
 32 335 l 1
 54 460 l 1
136 440 m 1
 283 440 l 1
 206 0 l 1
 62 0 l 1
 136 440 l 1
EndSplineSet
EndChar

StartChar: uni0443
Encoding: 1091 1091 451
Width: 505
VWidth: 0
Flags: HW
LayerCount: 2
Fore
SplineSet
570 460 m 1
 162 -220 l 1
 7 -220 l 1
 164 42 l 1
 44 460 l 1
 204 460 l 1
 285 91 l 1
 206 93 l 1
 412 460 l 1
 570 460 l 1
EndSplineSet
EndChar

StartChar: uni0444
Encoding: 1092 1092 452
Width: 647
VWidth: 0
Flags: HW
LayerCount: 2
Fore
SplineSet
320 560 m 1
 464 560 l 1
 350 -100 l 1
 208 -100 l 1
 320 560 l 1
42 230 m 0
 64 380 200 471 370 471 c 0
 534 471 652 378 630 230 c 0
 608 80 472 -10 302 -10 c 0
 138 -10 20 82 42 230 c 0
178 230 m 0
 162 156 218 116 310 116 c 0
 408 116 478 154 494 230 c 0
 510 304 454 346 362 346 c 0
 264 346 194 306 178 230 c 0
EndSplineSet
EndChar

StartChar: uni0445
Encoding: 1093 1093 453
Width: 516
VWidth: 0
Flags: HW
LayerCount: 2
Fore
SplineSet
393 460 m 1
 564 460 l 1
 352 232 l 1
 494 0 l 1
 334 0 l 1
 262 134 l 1
 152 0 l 1
 -26 0 l 1
 198 243 l 1
 64 460 l 1
 230 460 l 1
 292 341 l 1
 393 460 l 1
EndSplineSet
EndChar

StartChar: uni0446
Encoding: 1094 1094 454
Width: 602
VWidth: 0
Flags: HW
LayerCount: 2
Fore
SplineSet
502 125 m 1
 582 125 l 1
 542 -102 l 1
 400 -102 l 1
 418 0 l 1
 28 0 l 1
 107 460 l 1
 259 460 l 1
 201 125 l 1
 350 125 l 1
 409 460 l 1
 560 460 l 1
 502 125 l 1
EndSplineSet
EndChar

StartChar: uni0447
Encoding: 1095 1095 455
Width: 530
VWidth: 0
Flags: HW
LayerCount: 2
Fore
SplineSet
220 116 m 1
 276 240 l 1
 392 240 l 1
 370 116 l 1
 220 116 l 1
369 460 m 1
 522 460 l 1
 442 0 l 1
 292 0 l 1
 369 460 l 1
250 460 m 1
 223 316 l 2
 214 265 232 240 276 240 c 1
 220 116 l 1
 87 116 58 205 76 328 c 2
 98 460 l 1
 250 460 l 1
EndSplineSet
EndChar

StartChar: uni0448
Encoding: 1096 1096 456
Width: 811
VWidth: 0
Flags: HW
LayerCount: 2
Fore
SplineSet
472 125 m 1
 604 125 l 1
 662 460 l 1
 809 460 l 1
 730 0 l 1
 28 0 l 1
 107 460 l 1
 253 460 l 1
 195 125 l 1
 327 125 l 1
 386 460 l 1
 530 460 l 1
 472 125 l 1
EndSplineSet
EndChar

StartChar: uni0449
Encoding: 1097 1097 457
Width: 850
VWidth: 0
Flags: HW
LayerCount: 2
Fore
SplineSet
472 125 m 1
 604 125 l 1
 662 460 l 1
 808 460 l 1
 750 125 l 1
 828 125 l 1
 789 -102 l 1
 647 -102 l 1
 666 0 l 1
 28 0 l 1
 107 460 l 1
 253 460 l 1
 195 125 l 1
 327 125 l 1
 386 460 l 1
 530 460 l 1
 472 125 l 1
EndSplineSet
EndChar

StartChar: uni044A
Encoding: 1098 1098 458
Width: 593
VWidth: 0
Flags: HW
LayerCount: 2
Fore
SplineSet
255 208 m 1
 270 304 l 1
 404 305 l 2
 494 305 563 257 551 162 c 0
 539 67 460 0 366 0 c 2
 218 0 l 1
 238 116 l 1
 347 116 l 2
 378 116 404 134 410 162 c 0
 415 188 398 206 370 206 c 2
 255 208 l 1
170 335 m 1
 32 335 l 1
 54 460 l 1
 330 460 l 1
 250 0 l 1
 112 0 l 1
 170 335 l 1
EndSplineSet
EndChar

StartChar: uni044B
Encoding: 1099 1099 459
Width: 740
VWidth: 0
Flags: HW
LayerCount: 2
Fore
SplineSet
585 460 m 1
 738 460 l 1
 658 0 l 1
 507 0 l 1
 585 460 l 1
106 460 m 1
 260 460 l 1
 180 0 l 1
 28 0 l 1
 106 460 l 1
181 208 m 1
 196 304 l 1
 330 305 l 2
 420 305 489 257 477 162 c 0
 465 67 386 0 292 0 c 2
 144 0 l 1
 164 116 l 1
 272 116 l 2
 303 116 330 134 336 162 c 0
 341 188 324 206 296 206 c 2
 181 208 l 1
EndSplineSet
EndChar

StartChar: uni044C
Encoding: 1100 1100 460
Width: 528
VWidth: 0
Flags: HW
LayerCount: 2
Fore
SplineSet
112 460 m 1
 266 460 l 1
 186 0 l 1
 35 0 l 1
 112 460 l 1
187 208 m 1
 202 304 l 1
 336 305 l 2
 426 305 495 257 483 162 c 0
 471 67 392 0 298 0 c 2
 149 0 l 1
 170 116 l 1
 279 116 l 2
 310 116 336 134 342 162 c 0
 347 188 330 206 302 206 c 2
 187 208 l 1
EndSplineSet
EndChar

StartChar: uni044D
Encoding: 1101 1101 461
Width: 478
VWidth: 0
Flags: HW
LayerCount: 2
Fore
SplineSet
127 280 m 1
 418 280 l 1
 375 180 l 1
 110 180 l 1
 127 280 l 1
310 230 m 0
 321 302 291 365 221 367 c 0
 167 369 110 339 74 301 c 1
 91 430 l 1
 130 453 178 470 238 470 c 0
 383 470 483 369 464 230 c 0
 444 88 318 -10 170 -10 c 0
 110 -10 64 5 27 32 c 1
 45 160 l 1
 68 116 110 92 162 92 c 0
 236 92 296 149 310 230 c 0
EndSplineSet
EndChar

StartChar: uni044E
Encoding: 1102 1102 462
Width: 796
VWidth: 0
Flags: HW
LayerCount: 2
Fore
SplineSet
106 186 m 1
 126 298 l 1
 392 299 l 1
 372 186 l 1
 106 186 l 1
106 460 m 1
 254 460 l 1
 174 0 l 1
 28 0 l 1
 106 460 l 1
266 230 m 0
 286 371 410 470 556 470 c 0
 700 470 799 368 780 230 c 0
 760 89 636 -10 490 -10 c 0
 346 -10 247 92 266 230 c 0
420 230 m 0
 411 172 438 118 498 116 c 0
 560 114 614 166 626 230 c 0
 635 288 608 344 548 346 c 0
 486 348 432 294 420 230 c 0
EndSplineSet
EndChar

StartChar: uni044F
Encoding: 1103 1103 463
Width: 528
VWidth: 0
Flags: HW
LayerCount: 2
Fore
SplineSet
170 0 m 1
 6 0 l 1
 187 208 l 1
 330 208 l 1
 170 0 l 1
466 0 m 1
 312 0 l 1
 392 460 l 1
 544 460 l 1
 466 0 l 1
411 266 m 1
 396 166 l 1
 262 165 l 1
 171 166 85 214 98 316 c 0
 110 416 205 458 298 460 c 2
 446 460 l 1
 426 340 l 1
 312 340 l 2
 280 340 246 331 242 303 c 0
 238 277 261 266 290 266 c 2
 411 266 l 1
EndSplineSet
EndChar

